%FSLAX46Y46*%
G04 Gerber Fmt 4.6, Leading zero omitted, Abs format (unit mm)*
G04 Created by KiCad (PCBNEW (2014-09-25 BZR 5147)-product) date fre 14 nov 2014 02:42:05*
%MOMM*%
G01*
G04 APERTURE LIST*
%ADD10C,0.100000*%
%ADD11C,0.381000*%
%ADD12R,1.600200X2.600960*%
%ADD13R,2.999740X1.501140*%
%ADD14C,2.999740*%
%ADD15R,1.727200X2.032000*%
%ADD16O,1.727200X2.032000*%
%ADD17R,1.727200X1.727200*%
%ADD18O,1.727200X1.727200*%
%ADD19R,0.914400X0.914400*%
%ADD20R,0.635000X1.143000*%
%ADD21R,2.032000X3.657600*%
%ADD22R,2.032000X1.016000*%
%ADD23R,3.048000X1.651000*%
%ADD24R,6.096000X6.096000*%
%ADD25C,4.000000*%
%ADD26C,0.889000*%
%ADD27C,2.000000*%
%ADD28C,0.400000*%
%ADD29C,0.500000*%
%ADD30C,0.600000*%
%ADD31C,0.300000*%
%ADD32C,0.254000*%
G04 APERTURE END LIST*
D10*
D11*
X108712000Y-78613000D02*
X108712000Y-76581000D01*
X107696000Y-77597000D02*
X109728000Y-77597000D01*
X124712000Y-78668000D02*
X124712000Y-76636000D01*
X123696000Y-77652000D02*
X125728000Y-77652000D01*
X140712000Y-78668000D02*
X140712000Y-76636000D01*
X139696000Y-77652000D02*
X141728000Y-77652000D01*
X156712000Y-78668000D02*
X156712000Y-76636000D01*
X155696000Y-77652000D02*
X157728000Y-77652000D01*
X172712000Y-78668000D02*
X172712000Y-76636000D01*
X171696000Y-77652000D02*
X173728000Y-77652000D01*
D12*
X181100000Y-99800860D03*
X181100000Y-96199140D03*
D13*
X181098980Y-91300000D03*
X177101020Y-91300000D03*
D14*
X114300000Y-80645000D03*
X109220000Y-80645000D03*
X130300000Y-80700000D03*
X125220000Y-80700000D03*
X146300000Y-80700000D03*
X141220000Y-80700000D03*
X162300000Y-80700000D03*
X157220000Y-80700000D03*
X178300000Y-80700000D03*
X173220000Y-80700000D03*
D15*
X113450000Y-103400000D03*
D16*
X115990000Y-103400000D03*
X118530000Y-103400000D03*
X121070000Y-103400000D03*
X123610000Y-103400000D03*
X126150000Y-103400000D03*
D17*
X101530000Y-92290000D03*
D18*
X104070000Y-92290000D03*
X101530000Y-94830000D03*
X104070000Y-94830000D03*
X101530000Y-97370000D03*
X104070000Y-97370000D03*
X101530000Y-99910000D03*
X104070000Y-99910000D03*
D15*
X106680000Y-64135000D03*
D16*
X109220000Y-64135000D03*
X111760000Y-64135000D03*
X114300000Y-64135000D03*
D15*
X122750000Y-64100000D03*
D16*
X125290000Y-64100000D03*
X127830000Y-64100000D03*
X130370000Y-64100000D03*
D15*
X138550000Y-64100000D03*
D16*
X141090000Y-64100000D03*
X143630000Y-64100000D03*
X146170000Y-64100000D03*
D15*
X154750000Y-64100000D03*
D16*
X157290000Y-64100000D03*
X159830000Y-64100000D03*
X162370000Y-64100000D03*
D15*
X170550000Y-64100000D03*
D16*
X173090000Y-64100000D03*
X175630000Y-64100000D03*
X178170000Y-64100000D03*
D19*
X108204000Y-68961000D03*
X106426000Y-68961000D03*
X107315000Y-66929000D03*
X112649000Y-68961000D03*
X110871000Y-68961000D03*
X111760000Y-66929000D03*
X117094000Y-68961000D03*
X115316000Y-68961000D03*
X116205000Y-66929000D03*
X124249000Y-68916000D03*
X122471000Y-68916000D03*
X123360000Y-66884000D03*
X128649000Y-68916000D03*
X126871000Y-68916000D03*
X127760000Y-66884000D03*
X133049000Y-68916000D03*
X131271000Y-68916000D03*
X132160000Y-66884000D03*
X140249000Y-68916000D03*
X138471000Y-68916000D03*
X139360000Y-66884000D03*
X144649000Y-68916000D03*
X142871000Y-68916000D03*
X143760000Y-66884000D03*
X149049000Y-68916000D03*
X147271000Y-68916000D03*
X148160000Y-66884000D03*
X156249000Y-68916000D03*
X154471000Y-68916000D03*
X155360000Y-66884000D03*
X160649000Y-68916000D03*
X158871000Y-68916000D03*
X159760000Y-66884000D03*
X165049000Y-68916000D03*
X163271000Y-68916000D03*
X164160000Y-66884000D03*
X172249000Y-68916000D03*
X170471000Y-68916000D03*
X171360000Y-66884000D03*
X176649000Y-68916000D03*
X174871000Y-68916000D03*
X175760000Y-66884000D03*
X181049000Y-68916000D03*
X179271000Y-68916000D03*
X180160000Y-66884000D03*
D20*
X106553000Y-70485000D03*
X108077000Y-70485000D03*
X110998000Y-70485000D03*
X112522000Y-70485000D03*
X115443000Y-70485000D03*
X116967000Y-70485000D03*
X122598000Y-70500000D03*
X124122000Y-70500000D03*
X126998000Y-70500000D03*
X128522000Y-70500000D03*
X131398000Y-70500000D03*
X132922000Y-70500000D03*
X138598000Y-70500000D03*
X140122000Y-70500000D03*
X142998000Y-70500000D03*
X144522000Y-70500000D03*
X147398000Y-70500000D03*
X148922000Y-70500000D03*
X154598000Y-70500000D03*
X156122000Y-70500000D03*
X158998000Y-70500000D03*
X160522000Y-70500000D03*
X163398000Y-70500000D03*
X164922000Y-70500000D03*
X170598000Y-70500000D03*
X172122000Y-70500000D03*
X174998000Y-70500000D03*
X176522000Y-70500000D03*
X179398000Y-70500000D03*
X180922000Y-70500000D03*
D21*
X169398000Y-98000000D03*
D22*
X176002000Y-98000000D03*
X176002000Y-95714000D03*
X176002000Y-100286000D03*
D10*
G36*
X140331009Y-92551760D02*
X141250587Y-93471338D01*
X141038653Y-93683272D01*
X140119075Y-92763694D01*
X140331009Y-92551760D01*
X140331009Y-92551760D01*
G37*
G36*
X139977186Y-92905582D02*
X140896764Y-93825160D01*
X140684830Y-94037094D01*
X139765252Y-93117516D01*
X139977186Y-92905582D01*
X139977186Y-92905582D01*
G37*
G36*
X139623364Y-93259404D02*
X140542942Y-94178982D01*
X140331008Y-94390916D01*
X139411430Y-93471338D01*
X139623364Y-93259404D01*
X139623364Y-93259404D01*
G37*
G36*
X139271338Y-93611430D02*
X140190916Y-94531008D01*
X139978982Y-94742942D01*
X139059404Y-93823364D01*
X139271338Y-93611430D01*
X139271338Y-93611430D01*
G37*
G36*
X138917516Y-93965252D02*
X139837094Y-94884830D01*
X139625160Y-95096764D01*
X138705582Y-94177186D01*
X138917516Y-93965252D01*
X138917516Y-93965252D01*
G37*
G36*
X141392475Y-91490294D02*
X142312053Y-92409872D01*
X142100119Y-92621806D01*
X141180541Y-91702228D01*
X141392475Y-91490294D01*
X141392475Y-91490294D01*
G37*
G36*
X141038653Y-91844116D02*
X141958231Y-92763694D01*
X141746297Y-92975628D01*
X140826719Y-92056050D01*
X141038653Y-91844116D01*
X141038653Y-91844116D01*
G37*
G36*
X140684831Y-92197938D02*
X141604409Y-93117516D01*
X141392475Y-93329450D01*
X140472897Y-92409872D01*
X140684831Y-92197938D01*
X140684831Y-92197938D01*
G37*
G36*
X138209872Y-97287947D02*
X138421806Y-97499881D01*
X137502228Y-98419459D01*
X137290294Y-98207525D01*
X138209872Y-97287947D01*
X138209872Y-97287947D01*
G37*
G36*
X138563694Y-97641769D02*
X138775628Y-97853703D01*
X137856050Y-98773281D01*
X137644116Y-98561347D01*
X138563694Y-97641769D01*
X138563694Y-97641769D01*
G37*
G36*
X138917516Y-97995591D02*
X139129450Y-98207525D01*
X138209872Y-99127103D01*
X137997938Y-98915169D01*
X138917516Y-97995591D01*
X138917516Y-97995591D01*
G37*
G36*
X139271338Y-98349413D02*
X139483272Y-98561347D01*
X138563694Y-99480925D01*
X138351760Y-99268991D01*
X139271338Y-98349413D01*
X139271338Y-98349413D01*
G37*
G36*
X139625160Y-98703236D02*
X139837094Y-98915170D01*
X138917516Y-99834748D01*
X138705582Y-99622814D01*
X139625160Y-98703236D01*
X139625160Y-98703236D01*
G37*
G36*
X139978982Y-99057058D02*
X140190916Y-99268992D01*
X139271338Y-100188570D01*
X139059404Y-99976636D01*
X139978982Y-99057058D01*
X139978982Y-99057058D01*
G37*
G36*
X140331008Y-99409084D02*
X140542942Y-99621018D01*
X139623364Y-100540596D01*
X139411430Y-100328662D01*
X140331008Y-99409084D01*
X140331008Y-99409084D01*
G37*
G36*
X140684830Y-99762906D02*
X140896764Y-99974840D01*
X139977186Y-100894418D01*
X139765252Y-100682484D01*
X140684830Y-99762906D01*
X140684830Y-99762906D01*
G37*
G36*
X143299881Y-101178194D02*
X144219459Y-102097772D01*
X144007525Y-102309706D01*
X143087947Y-101390128D01*
X143299881Y-101178194D01*
X143299881Y-101178194D01*
G37*
G36*
X143653703Y-100824372D02*
X144573281Y-101743950D01*
X144361347Y-101955884D01*
X143441769Y-101036306D01*
X143653703Y-100824372D01*
X143653703Y-100824372D01*
G37*
G36*
X144007525Y-100470550D02*
X144927103Y-101390128D01*
X144715169Y-101602062D01*
X143795591Y-100682484D01*
X144007525Y-100470550D01*
X144007525Y-100470550D01*
G37*
G36*
X144361347Y-100116728D02*
X145280925Y-101036306D01*
X145068991Y-101248240D01*
X144149413Y-100328662D01*
X144361347Y-100116728D01*
X144361347Y-100116728D01*
G37*
G36*
X144715170Y-99762906D02*
X145634748Y-100682484D01*
X145422814Y-100894418D01*
X144503236Y-99974840D01*
X144715170Y-99762906D01*
X144715170Y-99762906D01*
G37*
G36*
X145068992Y-99409084D02*
X145988570Y-100328662D01*
X145776636Y-100540596D01*
X144857058Y-99621018D01*
X145068992Y-99409084D01*
X145068992Y-99409084D01*
G37*
G36*
X145421018Y-99057058D02*
X146340596Y-99976636D01*
X146128662Y-100188570D01*
X145209084Y-99268992D01*
X145421018Y-99057058D01*
X145421018Y-99057058D01*
G37*
G36*
X145774840Y-98703236D02*
X146694418Y-99622814D01*
X146482484Y-99834748D01*
X145562906Y-98915170D01*
X145774840Y-98703236D01*
X145774840Y-98703236D01*
G37*
G36*
X147897772Y-95380541D02*
X148109706Y-95592475D01*
X147190128Y-96512053D01*
X146978194Y-96300119D01*
X147897772Y-95380541D01*
X147897772Y-95380541D01*
G37*
G36*
X147543950Y-95026719D02*
X147755884Y-95238653D01*
X146836306Y-96158231D01*
X146624372Y-95946297D01*
X147543950Y-95026719D01*
X147543950Y-95026719D01*
G37*
G36*
X147190128Y-94672897D02*
X147402062Y-94884831D01*
X146482484Y-95804409D01*
X146270550Y-95592475D01*
X147190128Y-94672897D01*
X147190128Y-94672897D01*
G37*
G36*
X146836306Y-94319075D02*
X147048240Y-94531009D01*
X146128662Y-95450587D01*
X145916728Y-95238653D01*
X146836306Y-94319075D01*
X146836306Y-94319075D01*
G37*
G36*
X146482484Y-93965252D02*
X146694418Y-94177186D01*
X145774840Y-95096764D01*
X145562906Y-94884830D01*
X146482484Y-93965252D01*
X146482484Y-93965252D01*
G37*
G36*
X146128662Y-93611430D02*
X146340596Y-93823364D01*
X145421018Y-94742942D01*
X145209084Y-94531008D01*
X146128662Y-93611430D01*
X146128662Y-93611430D01*
G37*
G36*
X145776636Y-93259404D02*
X145988570Y-93471338D01*
X145068992Y-94390916D01*
X144857058Y-94178982D01*
X145776636Y-93259404D01*
X145776636Y-93259404D01*
G37*
G36*
X145422814Y-92905582D02*
X145634748Y-93117516D01*
X144715170Y-94037094D01*
X144503236Y-93825160D01*
X145422814Y-92905582D01*
X145422814Y-92905582D01*
G37*
G36*
X138563694Y-94319075D02*
X139483272Y-95238653D01*
X139271338Y-95450587D01*
X138351760Y-94531009D01*
X138563694Y-94319075D01*
X138563694Y-94319075D01*
G37*
G36*
X138209872Y-94672897D02*
X139129450Y-95592475D01*
X138917516Y-95804409D01*
X137997938Y-94884831D01*
X138209872Y-94672897D01*
X138209872Y-94672897D01*
G37*
G36*
X137856050Y-95026719D02*
X138775628Y-95946297D01*
X138563694Y-96158231D01*
X137644116Y-95238653D01*
X137856050Y-95026719D01*
X137856050Y-95026719D01*
G37*
G36*
X137502228Y-95380541D02*
X138421806Y-96300119D01*
X138209872Y-96512053D01*
X137290294Y-95592475D01*
X137502228Y-95380541D01*
X137502228Y-95380541D01*
G37*
G36*
X141038653Y-100116728D02*
X141250587Y-100328662D01*
X140331009Y-101248240D01*
X140119075Y-101036306D01*
X141038653Y-100116728D01*
X141038653Y-100116728D01*
G37*
G36*
X141392475Y-100470550D02*
X141604409Y-100682484D01*
X140684831Y-101602062D01*
X140472897Y-101390128D01*
X141392475Y-100470550D01*
X141392475Y-100470550D01*
G37*
G36*
X141746297Y-100824372D02*
X141958231Y-101036306D01*
X141038653Y-101955884D01*
X140826719Y-101743950D01*
X141746297Y-100824372D01*
X141746297Y-100824372D01*
G37*
G36*
X142100119Y-101178194D02*
X142312053Y-101390128D01*
X141392475Y-102309706D01*
X141180541Y-102097772D01*
X142100119Y-101178194D01*
X142100119Y-101178194D01*
G37*
G36*
X146128662Y-98349413D02*
X147048240Y-99268991D01*
X146836306Y-99480925D01*
X145916728Y-98561347D01*
X146128662Y-98349413D01*
X146128662Y-98349413D01*
G37*
G36*
X146482484Y-97995591D02*
X147402062Y-98915169D01*
X147190128Y-99127103D01*
X146270550Y-98207525D01*
X146482484Y-97995591D01*
X146482484Y-97995591D01*
G37*
G36*
X146836306Y-97641769D02*
X147755884Y-98561347D01*
X147543950Y-98773281D01*
X146624372Y-97853703D01*
X146836306Y-97641769D01*
X146836306Y-97641769D01*
G37*
G36*
X147190128Y-97287947D02*
X148109706Y-98207525D01*
X147897772Y-98419459D01*
X146978194Y-97499881D01*
X147190128Y-97287947D01*
X147190128Y-97287947D01*
G37*
G36*
X145068991Y-92551760D02*
X145280925Y-92763694D01*
X144361347Y-93683272D01*
X144149413Y-93471338D01*
X145068991Y-92551760D01*
X145068991Y-92551760D01*
G37*
G36*
X144715169Y-92197938D02*
X144927103Y-92409872D01*
X144007525Y-93329450D01*
X143795591Y-93117516D01*
X144715169Y-92197938D01*
X144715169Y-92197938D01*
G37*
G36*
X144361347Y-91844116D02*
X144573281Y-92056050D01*
X143653703Y-92975628D01*
X143441769Y-92763694D01*
X144361347Y-91844116D01*
X144361347Y-91844116D01*
G37*
G36*
X144007525Y-91490294D02*
X144219459Y-91702228D01*
X143299881Y-92621806D01*
X143087947Y-92409872D01*
X144007525Y-91490294D01*
X144007525Y-91490294D01*
G37*
D23*
X186300000Y-91414000D03*
D24*
X192650000Y-93700000D03*
D23*
X186300000Y-95986000D03*
D25*
X193000000Y-72500000D03*
X193000000Y-77500000D03*
D26*
X109220000Y-67945000D03*
X113665000Y-67945000D03*
X118110000Y-67945000D03*
X118110000Y-69215000D03*
X118110000Y-70485000D03*
X113665000Y-69215000D03*
X113665000Y-70485000D03*
X109220000Y-69215000D03*
X109220000Y-70485000D03*
X173220000Y-70485000D03*
X173220000Y-69215000D03*
X177665000Y-70485000D03*
X177665000Y-69215000D03*
X182110000Y-70485000D03*
X182110000Y-69215000D03*
X182110000Y-67945000D03*
X177665000Y-67945000D03*
X173220000Y-67945000D03*
X157220000Y-67945000D03*
X161665000Y-67945000D03*
X166110000Y-67945000D03*
X166110000Y-69215000D03*
X166110000Y-70485000D03*
X161665000Y-69215000D03*
X161665000Y-70485000D03*
X157220000Y-69215000D03*
X157220000Y-70485000D03*
X125220000Y-70485000D03*
X125220000Y-69215000D03*
X129665000Y-70485000D03*
X129665000Y-69215000D03*
X134110000Y-70485000D03*
X134110000Y-69215000D03*
X134110000Y-67945000D03*
X129665000Y-67945000D03*
X125220000Y-67945000D03*
X141220000Y-67945000D03*
X145665000Y-67945000D03*
X150110000Y-67945000D03*
X150110000Y-69215000D03*
X150110000Y-70485000D03*
X145665000Y-69215000D03*
X145665000Y-70485000D03*
X141220000Y-69215000D03*
X141220000Y-70485000D03*
X140900000Y-96700000D03*
X142300000Y-97600000D03*
X145200000Y-97800000D03*
X144200000Y-95300000D03*
X138100000Y-91400000D03*
X186400000Y-89300000D03*
X150400000Y-106200000D03*
X141692790Y-104394593D03*
X148200000Y-97500000D03*
X142900000Y-91500000D03*
X137400000Y-92500000D03*
X139100000Y-92000000D03*
X131800000Y-96000000D03*
X134500000Y-89200000D03*
X146900000Y-92500000D03*
X133000000Y-96600000D03*
X144400000Y-88685490D03*
X147300000Y-102400000D03*
X143016816Y-105985442D03*
X148600000Y-102500000D03*
X142618045Y-105037085D03*
X129600000Y-100085490D03*
X132400000Y-102900000D03*
X128400000Y-99600000D03*
X130900000Y-102600000D03*
X127200000Y-97600000D03*
X154100000Y-105900000D03*
X150900000Y-103000000D03*
X149500000Y-100400000D03*
X126200000Y-98800000D03*
X155500000Y-105400000D03*
X152100000Y-102300000D03*
X150500000Y-99700000D03*
X142800000Y-100800000D03*
X124800000Y-99400000D03*
X129900000Y-105000000D03*
X140700000Y-102500000D03*
X146300000Y-105100000D03*
X150800000Y-95800000D03*
X122800000Y-99800000D03*
X128800000Y-104000000D03*
X140900000Y-103700000D03*
X142500000Y-102600000D03*
X145445825Y-105664645D03*
X151700000Y-97200000D03*
X106680000Y-74930000D03*
X127588544Y-91864655D03*
X143494758Y-98594758D03*
X128585480Y-91709013D03*
X107950000Y-74930000D03*
X134300000Y-99400000D03*
X109220000Y-74930000D03*
X128585480Y-90700000D03*
X134900000Y-98100000D03*
X147800000Y-103800000D03*
X122680000Y-74930000D03*
X117400000Y-89700000D03*
X123950000Y-74930000D03*
X118900000Y-89700000D03*
X125220000Y-74930000D03*
X137438554Y-104446277D03*
X138680000Y-74930000D03*
X134300840Y-103657839D03*
X139950000Y-74930000D03*
X135500000Y-103500000D03*
X141220000Y-74930000D03*
X136400000Y-102600000D03*
X154680000Y-74930000D03*
X134100000Y-92400000D03*
X155950000Y-74930000D03*
X134297762Y-100427047D03*
X157220000Y-74930000D03*
X147900000Y-90100000D03*
X170680000Y-74930000D03*
X161744758Y-88844758D03*
X171950000Y-74930000D03*
X138800000Y-103800000D03*
X173220000Y-74930000D03*
X136600000Y-103700000D03*
X140400000Y-97800000D03*
D27*
X122750000Y-64100000D02*
X122750000Y-61000000D01*
X122750000Y-61000000D02*
X123000000Y-61000000D01*
X138550000Y-64100000D02*
X138550000Y-61000000D01*
X138550000Y-61000000D02*
X139000000Y-61000000D01*
X154750000Y-64100000D02*
X154750000Y-61000000D01*
X154750000Y-61000000D02*
X155000000Y-61000000D01*
X104140000Y-65405000D02*
X104140000Y-61860000D01*
X167450000Y-61000000D02*
X170550000Y-64100000D01*
X105000000Y-61000000D02*
X123000000Y-61000000D01*
X123000000Y-61000000D02*
X139000000Y-61000000D01*
X139000000Y-61000000D02*
X155000000Y-61000000D01*
X155000000Y-61000000D02*
X167450000Y-61000000D01*
X104140000Y-61860000D02*
X105000000Y-61000000D01*
X105410000Y-64135000D02*
X104140000Y-65405000D01*
X104140000Y-65405000D02*
X104140000Y-75565000D01*
X104140000Y-75565000D02*
X109220000Y-80645000D01*
X106680000Y-64135000D02*
X105410000Y-64135000D01*
X170680000Y-64135000D02*
X169410000Y-64135000D01*
X168140000Y-75565000D02*
X173220000Y-80645000D01*
X168140000Y-65405000D02*
X168140000Y-75565000D01*
X169410000Y-64135000D02*
X168140000Y-65405000D01*
X153410000Y-64135000D02*
X152140000Y-65405000D01*
X152140000Y-65405000D02*
X152140000Y-75565000D01*
X152140000Y-75565000D02*
X157220000Y-80645000D01*
X154680000Y-64135000D02*
X153410000Y-64135000D01*
X122680000Y-64135000D02*
X121410000Y-64135000D01*
X120140000Y-75565000D02*
X125220000Y-80645000D01*
X120140000Y-65405000D02*
X120140000Y-75565000D01*
X121410000Y-64135000D02*
X120140000Y-65405000D01*
X137410000Y-64135000D02*
X136140000Y-65405000D01*
X136140000Y-65405000D02*
X136140000Y-75565000D01*
X136140000Y-75565000D02*
X141220000Y-80645000D01*
X138680000Y-64135000D02*
X137410000Y-64135000D01*
X192650000Y-86350000D02*
X192700000Y-86300000D01*
X192650000Y-93700000D02*
X192650000Y-86350000D01*
D28*
X180614860Y-100286000D02*
X181100000Y-99800860D01*
X176002000Y-100286000D02*
X180614860Y-100286000D01*
X192650000Y-96250000D02*
X192650000Y-93700000D01*
X189099140Y-99800860D02*
X192650000Y-96250000D01*
X181100000Y-99800860D02*
X189099140Y-99800860D01*
D29*
X108077000Y-69088000D02*
X108204000Y-68961000D01*
X112522000Y-69088000D02*
X112649000Y-68961000D01*
X112522000Y-69850000D02*
X112522000Y-69088000D01*
X112522000Y-70485000D02*
X112522000Y-69850000D01*
X116967000Y-69088000D02*
X117094000Y-68961000D01*
X116967000Y-69850000D02*
X116967000Y-69088000D01*
X116967000Y-70485000D02*
X116967000Y-69850000D01*
D30*
X108204000Y-68961000D02*
X109220000Y-67945000D01*
X112649000Y-68961000D02*
X113665000Y-67945000D01*
X117094000Y-68961000D02*
X118110000Y-67945000D01*
X117475000Y-69850000D02*
X118110000Y-69215000D01*
X116967000Y-69850000D02*
X117475000Y-69850000D01*
X116967000Y-70485000D02*
X118110000Y-70485000D01*
X113030000Y-69850000D02*
X113665000Y-69215000D01*
X112522000Y-69850000D02*
X113030000Y-69850000D01*
D29*
X108077000Y-70485000D02*
X108077000Y-69749991D01*
X108077000Y-69749991D02*
X108077000Y-69088000D01*
D30*
X112522000Y-70485000D02*
X113665000Y-70485000D01*
X108685009Y-69749991D02*
X109220000Y-69215000D01*
X108077000Y-69749991D02*
X108685009Y-69749991D01*
X108077000Y-70485000D02*
X109220000Y-70485000D01*
X172077000Y-70485000D02*
X173220000Y-70485000D01*
X172077000Y-69749991D02*
X172685009Y-69749991D01*
X172685009Y-69749991D02*
X173220000Y-69215000D01*
X176522000Y-70485000D02*
X177665000Y-70485000D01*
D29*
X172077000Y-69749991D02*
X172077000Y-69088000D01*
X172077000Y-70485000D02*
X172077000Y-69749991D01*
D30*
X176522000Y-69850000D02*
X177030000Y-69850000D01*
X177030000Y-69850000D02*
X177665000Y-69215000D01*
X180967000Y-70485000D02*
X182110000Y-70485000D01*
X180967000Y-69850000D02*
X181475000Y-69850000D01*
X181475000Y-69850000D02*
X182110000Y-69215000D01*
X181094000Y-68961000D02*
X182110000Y-67945000D01*
X176649000Y-68961000D02*
X177665000Y-67945000D01*
X172204000Y-68961000D02*
X173220000Y-67945000D01*
D29*
X180967000Y-70485000D02*
X180967000Y-69850000D01*
X180967000Y-69850000D02*
X180967000Y-69088000D01*
X180967000Y-69088000D02*
X181094000Y-68961000D01*
X176522000Y-70485000D02*
X176522000Y-69850000D01*
X176522000Y-69850000D02*
X176522000Y-69088000D01*
X176522000Y-69088000D02*
X176649000Y-68961000D01*
X172077000Y-69088000D02*
X172204000Y-68961000D01*
X156077000Y-69088000D02*
X156204000Y-68961000D01*
X160522000Y-69088000D02*
X160649000Y-68961000D01*
X160522000Y-69850000D02*
X160522000Y-69088000D01*
X160522000Y-70485000D02*
X160522000Y-69850000D01*
X164967000Y-69088000D02*
X165094000Y-68961000D01*
X164967000Y-69850000D02*
X164967000Y-69088000D01*
X164967000Y-70485000D02*
X164967000Y-69850000D01*
D30*
X156204000Y-68961000D02*
X157220000Y-67945000D01*
X160649000Y-68961000D02*
X161665000Y-67945000D01*
X165094000Y-68961000D02*
X166110000Y-67945000D01*
X165475000Y-69850000D02*
X166110000Y-69215000D01*
X164967000Y-69850000D02*
X165475000Y-69850000D01*
X164967000Y-70485000D02*
X166110000Y-70485000D01*
X161030000Y-69850000D02*
X161665000Y-69215000D01*
X160522000Y-69850000D02*
X161030000Y-69850000D01*
D29*
X156077000Y-70485000D02*
X156077000Y-69749991D01*
X156077000Y-69749991D02*
X156077000Y-69088000D01*
D30*
X160522000Y-70485000D02*
X161665000Y-70485000D01*
X156685009Y-69749991D02*
X157220000Y-69215000D01*
X156077000Y-69749991D02*
X156685009Y-69749991D01*
X156077000Y-70485000D02*
X157220000Y-70485000D01*
X124077000Y-70485000D02*
X125220000Y-70485000D01*
X124077000Y-69749991D02*
X124685009Y-69749991D01*
X124685009Y-69749991D02*
X125220000Y-69215000D01*
X128522000Y-70485000D02*
X129665000Y-70485000D01*
D29*
X124077000Y-69749991D02*
X124077000Y-69088000D01*
X124077000Y-70485000D02*
X124077000Y-69749991D01*
D30*
X128522000Y-69850000D02*
X129030000Y-69850000D01*
X129030000Y-69850000D02*
X129665000Y-69215000D01*
X132967000Y-70485000D02*
X134110000Y-70485000D01*
X132967000Y-69850000D02*
X133475000Y-69850000D01*
X133475000Y-69850000D02*
X134110000Y-69215000D01*
X133094000Y-68961000D02*
X134110000Y-67945000D01*
X128649000Y-68961000D02*
X129665000Y-67945000D01*
X124204000Y-68961000D02*
X125220000Y-67945000D01*
D29*
X132967000Y-70485000D02*
X132967000Y-69850000D01*
X132967000Y-69850000D02*
X132967000Y-69088000D01*
X132967000Y-69088000D02*
X133094000Y-68961000D01*
X128522000Y-70485000D02*
X128522000Y-69850000D01*
X128522000Y-69850000D02*
X128522000Y-69088000D01*
X128522000Y-69088000D02*
X128649000Y-68961000D01*
X124077000Y-69088000D02*
X124204000Y-68961000D01*
X140077000Y-69088000D02*
X140204000Y-68961000D01*
X144522000Y-69088000D02*
X144649000Y-68961000D01*
X144522000Y-69850000D02*
X144522000Y-69088000D01*
X144522000Y-70485000D02*
X144522000Y-69850000D01*
X148967000Y-69088000D02*
X149094000Y-68961000D01*
X148967000Y-69850000D02*
X148967000Y-69088000D01*
X148967000Y-70485000D02*
X148967000Y-69850000D01*
D30*
X140204000Y-68961000D02*
X141220000Y-67945000D01*
X144649000Y-68961000D02*
X145665000Y-67945000D01*
X149094000Y-68961000D02*
X150110000Y-67945000D01*
X149475000Y-69850000D02*
X150110000Y-69215000D01*
X148967000Y-69850000D02*
X149475000Y-69850000D01*
X148967000Y-70485000D02*
X150110000Y-70485000D01*
X145030000Y-69850000D02*
X145665000Y-69215000D01*
X144522000Y-69850000D02*
X145030000Y-69850000D01*
D29*
X140077000Y-70485000D02*
X140077000Y-69749991D01*
X140077000Y-69749991D02*
X140077000Y-69088000D01*
D30*
X144522000Y-70485000D02*
X145665000Y-70485000D01*
X140685009Y-69749991D02*
X141220000Y-69215000D01*
X140077000Y-69749991D02*
X140685009Y-69749991D01*
X140077000Y-70485000D02*
X141220000Y-70485000D01*
D31*
X140900000Y-96700000D02*
X140400000Y-96200000D01*
X140400000Y-96200000D02*
X140400000Y-95659670D01*
X140400000Y-95659670D02*
X139271338Y-94531008D01*
X146382603Y-97400000D02*
X147190128Y-98207525D01*
X145600000Y-97400000D02*
X146382603Y-97400000D01*
X145200000Y-97800000D02*
X145600000Y-97400000D01*
X144200000Y-95300000D02*
X143100000Y-94200000D01*
X143100000Y-94200000D02*
X143100000Y-93317397D01*
X143100000Y-93317397D02*
X144007525Y-92409872D01*
X138100000Y-92057462D02*
X138100000Y-91400000D01*
X138520010Y-92477472D02*
X138100000Y-92057462D01*
X138520010Y-93779680D02*
X138520010Y-92477472D01*
X139271338Y-94531008D02*
X138520010Y-93779680D01*
D27*
X186300000Y-95986000D02*
X186300000Y-91414000D01*
X186300000Y-89400000D02*
X186400000Y-89300000D01*
X186300000Y-91414000D02*
X186300000Y-89400000D01*
D28*
X181100000Y-91526980D02*
X181100000Y-96199140D01*
X181212980Y-91414000D02*
X181100000Y-91526980D01*
X186300000Y-91414000D02*
X181212980Y-91414000D01*
X177900000Y-98000000D02*
X179700860Y-96199140D01*
X179700860Y-96199140D02*
X181100000Y-96199140D01*
X176002000Y-98000000D02*
X177900000Y-98000000D01*
X148039970Y-108560030D02*
X149955501Y-106644499D01*
X118457630Y-108560030D02*
X148039970Y-108560030D01*
X113450000Y-103552400D02*
X118457630Y-108560030D01*
X113450000Y-103400000D02*
X113450000Y-103552400D01*
X149955501Y-106644499D02*
X150400000Y-106200000D01*
D31*
X141392475Y-101390128D02*
X142085499Y-100697104D01*
X142085499Y-100697104D02*
X142085499Y-98443118D01*
X142085499Y-98443118D02*
X142300000Y-98228617D01*
X142300000Y-98228617D02*
X142300000Y-97600000D01*
X148200000Y-97500000D02*
X147846297Y-97853703D01*
X147846297Y-97853703D02*
X147543950Y-97853703D01*
X143456050Y-92056050D02*
X143653703Y-92056050D01*
X142900000Y-91500000D02*
X143456050Y-92056050D01*
X138917516Y-94884831D02*
X138100000Y-94067315D01*
X138100000Y-94067315D02*
X138100000Y-93200000D01*
X138100000Y-93200000D02*
X137844499Y-92944499D01*
X137844499Y-92944499D02*
X137400000Y-92500000D01*
D28*
X176002000Y-92399020D02*
X177101020Y-91300000D01*
X176002000Y-95714000D02*
X176002000Y-92399020D01*
X141248291Y-104839092D02*
X141692790Y-104394593D01*
X126150000Y-103400000D02*
X126150000Y-104750000D01*
X126150000Y-104750000D02*
X128600000Y-107200000D01*
X128600000Y-107200000D02*
X138887383Y-107200000D01*
X138887383Y-107200000D02*
X141248291Y-104839092D01*
X161431462Y-91300000D02*
X148664501Y-104066961D01*
X148664501Y-104166961D02*
X146331462Y-106500000D01*
X177101020Y-91300000D02*
X161431462Y-91300000D01*
X142257255Y-103557255D02*
X141901511Y-103557255D01*
X148664501Y-104066961D02*
X148664501Y-104166961D01*
X146331462Y-106500000D02*
X145200000Y-106500000D01*
X141901511Y-103557255D02*
X141692790Y-103765976D01*
X141692790Y-103765976D02*
X141692790Y-104394593D01*
X145200000Y-106500000D02*
X142257255Y-103557255D01*
D31*
X141692790Y-102992790D02*
X141692790Y-104394593D01*
X141500000Y-101990247D02*
X141500000Y-102800000D01*
X141500000Y-102800000D02*
X141692790Y-102992790D01*
X141746297Y-101743950D02*
X141500000Y-101990247D01*
X139625160Y-94177186D02*
X139100000Y-93652026D01*
X139100000Y-93652026D02*
X139100000Y-92628617D01*
X139100000Y-92628617D02*
X139100000Y-92000000D01*
X139100000Y-91900000D02*
X139100000Y-92000000D01*
X115990000Y-102084000D02*
X117274000Y-100800000D01*
X115990000Y-103400000D02*
X115990000Y-102084000D01*
X117274000Y-100800000D02*
X130300000Y-100800000D01*
X130300000Y-100800000D02*
X132400000Y-98700000D01*
X132400000Y-98700000D02*
X132400000Y-97600000D01*
X131900000Y-96100000D02*
X131800000Y-96000000D01*
X131900000Y-97100000D02*
X131900000Y-96100000D01*
X132400000Y-97600000D02*
X131900000Y-97100000D01*
X134944499Y-88755501D02*
X137155501Y-88755501D01*
X134500000Y-89200000D02*
X134944499Y-88755501D01*
X139100000Y-90700000D02*
X139100000Y-92000000D01*
X137155501Y-88755501D02*
X139100000Y-90700000D01*
X146900000Y-92500000D02*
X146700000Y-92700000D01*
X146700000Y-92700000D02*
X145840330Y-92700000D01*
X145840330Y-92700000D02*
X145068992Y-93471338D01*
X118530000Y-103247600D02*
X120477600Y-101300000D01*
X118530000Y-103400000D02*
X118530000Y-103247600D01*
X120477600Y-101300000D02*
X130600000Y-101300000D01*
X133000000Y-98900000D02*
X133000000Y-96600000D01*
X130600000Y-101300000D02*
X133000000Y-98900000D01*
X144400000Y-88685490D02*
X147885490Y-88685490D01*
X147885490Y-88685490D02*
X148700000Y-89500000D01*
X148700000Y-90700000D02*
X146900000Y-92500000D01*
X148700000Y-89500000D02*
X148700000Y-90700000D01*
X147300000Y-102400000D02*
X146500000Y-101600000D01*
X146500000Y-101600000D02*
X146500000Y-101052026D01*
X146500000Y-101052026D02*
X145422814Y-99974840D01*
X140912238Y-108090020D02*
X125607620Y-108090020D01*
X143016816Y-105985442D02*
X140912238Y-108090020D01*
X121070000Y-103552400D02*
X121070000Y-103400000D01*
X125607620Y-108090020D02*
X121070000Y-103552400D01*
X139985120Y-107670010D02*
X142173546Y-105481584D01*
X123610000Y-103400000D02*
X123610000Y-103552400D01*
X123610000Y-103552400D02*
X127727610Y-107670010D01*
X127727610Y-107670010D02*
X139985120Y-107670010D01*
X142173546Y-105481584D02*
X142618045Y-105037085D01*
X145822814Y-99622814D02*
X145774840Y-99622814D01*
X148600000Y-102400000D02*
X145822814Y-99622814D01*
X148600000Y-102500000D02*
X148600000Y-102400000D01*
X102936399Y-93423601D02*
X129523601Y-93423601D01*
X101530000Y-94830000D02*
X102936399Y-93423601D01*
X131085499Y-98599991D02*
X129600000Y-100085490D01*
X131085499Y-94985499D02*
X131085499Y-98599991D01*
X129523601Y-93423601D02*
X131085499Y-94985499D01*
X136917397Y-99500000D02*
X138209872Y-98207525D01*
X136300000Y-99500000D02*
X136917397Y-99500000D01*
X132900000Y-102900000D02*
X136300000Y-99500000D01*
X132400000Y-102900000D02*
X132900000Y-102900000D01*
X105291314Y-94830000D02*
X106277703Y-93843611D01*
X104070000Y-94830000D02*
X105291314Y-94830000D01*
X106277703Y-93843611D02*
X129243611Y-93843611D01*
X129243611Y-93843611D02*
X130500000Y-95100000D01*
X129028028Y-99600000D02*
X128400000Y-99600000D01*
X130500000Y-98128028D02*
X129028028Y-99600000D01*
X130500000Y-95100000D02*
X130500000Y-98128028D01*
X138413835Y-98711206D02*
X138563694Y-98561347D01*
X136579990Y-99920010D02*
X137205031Y-99920010D01*
X132800000Y-103700000D02*
X136579990Y-99920010D01*
X132000000Y-103700000D02*
X132800000Y-103700000D01*
X137205031Y-99920010D02*
X138413835Y-98711206D01*
X130900000Y-102600000D02*
X132000000Y-103700000D01*
X153355501Y-105455501D02*
X150900000Y-103000000D01*
X153655501Y-105455501D02*
X153355501Y-105455501D01*
X154100000Y-105900000D02*
X153655501Y-105455501D01*
X147967315Y-100400000D02*
X146482484Y-98915169D01*
X149500000Y-100400000D02*
X147967315Y-100400000D01*
X125728149Y-96128149D02*
X127200000Y-97600000D01*
X125728149Y-95828149D02*
X125728149Y-96128149D01*
X124200000Y-94300000D02*
X125728149Y-95828149D01*
X107000000Y-94300000D02*
X124200000Y-94300000D01*
X105384600Y-95915400D02*
X107000000Y-94300000D01*
X105384600Y-96000000D02*
X105384600Y-95915400D01*
X102900000Y-96000000D02*
X105384600Y-96000000D01*
X101530000Y-97370000D02*
X102900000Y-96000000D01*
X155055501Y-104955501D02*
X154755501Y-104955501D01*
X154755501Y-104955501D02*
X152100000Y-102300000D01*
X155500000Y-105400000D02*
X155055501Y-104955501D01*
X148061297Y-99786338D02*
X146836306Y-98561347D01*
X148061297Y-99800000D02*
X148061297Y-99786338D01*
X148900000Y-99800000D02*
X148061297Y-99800000D01*
X149444499Y-99255501D02*
X148900000Y-99800000D01*
X150055501Y-99255501D02*
X149444499Y-99255501D01*
X150500000Y-99700000D02*
X150055501Y-99255501D01*
X125000000Y-97600000D02*
X126200000Y-98800000D01*
X125000000Y-95800000D02*
X125000000Y-97600000D01*
X124000000Y-94800000D02*
X125000000Y-95800000D01*
X107600000Y-94800000D02*
X124000000Y-94800000D01*
X105100000Y-97300000D02*
X107600000Y-94800000D01*
X104140000Y-97300000D02*
X105100000Y-97300000D01*
X104070000Y-97370000D02*
X104140000Y-97300000D01*
X142800000Y-101428617D02*
X142800000Y-100800000D01*
X142800000Y-101600000D02*
X142800000Y-101428617D01*
X146300000Y-105100000D02*
X142800000Y-101600000D01*
X147690247Y-95800000D02*
X147543950Y-95946297D01*
X150800000Y-95800000D02*
X147690247Y-95800000D01*
X140255501Y-102944499D02*
X140700000Y-102500000D01*
X130344499Y-105444499D02*
X138212963Y-105444499D01*
X129900000Y-105000000D02*
X130344499Y-105444499D01*
X139814501Y-103385499D02*
X140255501Y-102944499D01*
X139814501Y-103842961D02*
X139814501Y-103385499D01*
X138212963Y-105444499D02*
X139814501Y-103842961D01*
X124300000Y-98900000D02*
X124800000Y-99400000D01*
X124300000Y-95800000D02*
X124300000Y-98900000D01*
X108200000Y-95300000D02*
X123800000Y-95300000D01*
X104996399Y-98503601D02*
X108200000Y-95300000D01*
X123800000Y-95300000D02*
X124300000Y-95800000D01*
X102936399Y-98503601D02*
X104996399Y-98503601D01*
X101530000Y-99910000D02*
X102936399Y-98503601D01*
X128355501Y-104444499D02*
X128355501Y-104755501D01*
X128800000Y-104000000D02*
X128355501Y-104444499D01*
X128355501Y-104755501D02*
X128355501Y-105255501D01*
X128355501Y-105255501D02*
X129500000Y-106400000D01*
X138200000Y-106400000D02*
X140900000Y-103700000D01*
X129500000Y-106400000D02*
X138200000Y-106400000D01*
X142944499Y-103163319D02*
X145445825Y-105664645D01*
X142944499Y-103044499D02*
X142944499Y-103163319D01*
X142500000Y-102600000D02*
X142944499Y-103044499D01*
X151700000Y-97200000D02*
X151700000Y-95300000D01*
X147339987Y-95442616D02*
X147190128Y-95592475D01*
X147697104Y-95085499D02*
X147339987Y-95442616D01*
X151485499Y-95085499D02*
X147697104Y-95085499D01*
X151700000Y-95300000D02*
X151485499Y-95085499D01*
X123600000Y-96000000D02*
X123600000Y-99000000D01*
X123400000Y-95800000D02*
X123600000Y-96000000D01*
X123600000Y-99000000D02*
X122800000Y-99800000D01*
X109100000Y-95800000D02*
X123400000Y-95800000D01*
X104990000Y-99910000D02*
X109100000Y-95800000D01*
X104070000Y-99910000D02*
X104990000Y-99910000D01*
D30*
X109220000Y-65405000D02*
X109220000Y-64135000D01*
X107696000Y-66929000D02*
X109220000Y-65405000D01*
X107315000Y-66929000D02*
X107696000Y-66929000D01*
X111760000Y-66929000D02*
X111760000Y-64135000D01*
X114300000Y-65405000D02*
X114300000Y-64135000D01*
X115824000Y-66929000D02*
X114300000Y-65405000D01*
X116205000Y-66929000D02*
X115824000Y-66929000D01*
X123315000Y-66929000D02*
X123696000Y-66929000D01*
X123696000Y-66929000D02*
X125220000Y-65405000D01*
X125220000Y-65405000D02*
X125220000Y-64135000D01*
X127760000Y-66929000D02*
X127760000Y-64135000D01*
X132205000Y-66929000D02*
X131824000Y-66929000D01*
X131824000Y-66929000D02*
X130300000Y-65405000D01*
X130300000Y-65405000D02*
X130300000Y-64135000D01*
X141220000Y-65405000D02*
X141220000Y-64135000D01*
X139696000Y-66929000D02*
X141220000Y-65405000D01*
X139315000Y-66929000D02*
X139696000Y-66929000D01*
X143760000Y-66929000D02*
X143760000Y-64135000D01*
X146300000Y-65405000D02*
X146300000Y-64135000D01*
X147824000Y-66929000D02*
X146300000Y-65405000D01*
X148205000Y-66929000D02*
X147824000Y-66929000D01*
X157220000Y-65405000D02*
X157220000Y-64135000D01*
X155696000Y-66929000D02*
X157220000Y-65405000D01*
X155315000Y-66929000D02*
X155696000Y-66929000D01*
X159760000Y-66929000D02*
X159760000Y-64135000D01*
X162300000Y-65405000D02*
X162300000Y-64135000D01*
X163824000Y-66929000D02*
X162300000Y-65405000D01*
X164205000Y-66929000D02*
X163824000Y-66929000D01*
X171315000Y-66929000D02*
X171696000Y-66929000D01*
X171696000Y-66929000D02*
X173220000Y-65405000D01*
X173220000Y-65405000D02*
X173220000Y-64135000D01*
X175760000Y-66929000D02*
X175760000Y-64135000D01*
X180205000Y-66929000D02*
X179824000Y-66929000D01*
X179824000Y-66929000D02*
X178300000Y-65405000D01*
X178300000Y-65405000D02*
X178300000Y-64135000D01*
D31*
X106426000Y-70358000D02*
X106553000Y-70485000D01*
X106426000Y-68961000D02*
X106426000Y-70358000D01*
X106553000Y-74803000D02*
X106680000Y-74930000D01*
X106553000Y-70485000D02*
X106553000Y-74803000D01*
X110871000Y-70358000D02*
X110998000Y-70485000D01*
X110871000Y-68961000D02*
X110871000Y-70358000D01*
X110998000Y-70485000D02*
X110998000Y-70739000D01*
X143494758Y-99223375D02*
X143494758Y-98594758D01*
X144361347Y-101036306D02*
X143494758Y-100169717D01*
X110998000Y-70485000D02*
X110998000Y-71247000D01*
X107950000Y-72390000D02*
X107950000Y-74930000D01*
X108585000Y-71755000D02*
X107950000Y-72390000D01*
X110490000Y-71755000D02*
X108585000Y-71755000D01*
X110998000Y-71247000D02*
X110490000Y-71755000D01*
X143494758Y-100169717D02*
X143494758Y-99223375D01*
X128585480Y-91709013D02*
X129214097Y-91709013D01*
X134085499Y-96580415D02*
X134085499Y-98556882D01*
X129214097Y-91709013D02*
X134085499Y-96580415D01*
X134085499Y-98556882D02*
X134300000Y-98771383D01*
X134300000Y-98771383D02*
X134300000Y-99400000D01*
X115316000Y-70358000D02*
X115443000Y-70485000D01*
X115316000Y-68961000D02*
X115316000Y-70358000D01*
X115443000Y-70485000D02*
X115443000Y-70739000D01*
X115443000Y-71247000D02*
X114300000Y-72390000D01*
X114300000Y-72390000D02*
X109855000Y-72390000D01*
X109855000Y-72390000D02*
X109220000Y-73025000D01*
X109220000Y-73025000D02*
X109220000Y-74930000D01*
X115443000Y-70485000D02*
X115443000Y-71247000D01*
X134900000Y-96385903D02*
X134900000Y-97471383D01*
X128585480Y-90700000D02*
X129214097Y-90700000D01*
X129214097Y-90700000D02*
X134900000Y-96385903D01*
X134900000Y-97471383D02*
X134900000Y-98100000D01*
X147171383Y-103800000D02*
X147800000Y-103800000D01*
X147071383Y-103800000D02*
X147171383Y-103800000D01*
X145900000Y-102628617D02*
X147071383Y-103800000D01*
X145900000Y-101867315D02*
X145900000Y-102628617D01*
X144715169Y-100682484D02*
X145900000Y-101867315D01*
X122553000Y-70485000D02*
X122553000Y-74803000D01*
X122553000Y-74803000D02*
X122680000Y-74930000D01*
X122426000Y-68961000D02*
X122426000Y-70358000D01*
X122426000Y-70358000D02*
X122553000Y-70485000D01*
X138563694Y-95238653D02*
X137620010Y-94294969D01*
X118144499Y-88955501D02*
X117844499Y-89255501D01*
X117844499Y-89255501D02*
X117400000Y-89700000D01*
X137620010Y-94294969D02*
X137620010Y-93868565D01*
X137620010Y-93868565D02*
X132706946Y-88955501D01*
X132706946Y-88955501D02*
X118144499Y-88955501D01*
X126998000Y-70485000D02*
X126998000Y-71247000D01*
X123950000Y-72390000D02*
X123950000Y-74930000D01*
X124585000Y-71755000D02*
X123950000Y-72390000D01*
X126490000Y-71755000D02*
X124585000Y-71755000D01*
X126998000Y-71247000D02*
X126490000Y-71755000D01*
X126998000Y-70485000D02*
X126998000Y-70739000D01*
X126871000Y-68961000D02*
X126871000Y-70358000D01*
X126871000Y-70358000D02*
X126998000Y-70485000D01*
X132857462Y-89700000D02*
X119528617Y-89700000D01*
X119528617Y-89700000D02*
X118900000Y-89700000D01*
X137200000Y-94582603D02*
X137200000Y-94042538D01*
X138209872Y-95592475D02*
X137200000Y-94582603D01*
X137200000Y-94042538D02*
X132857462Y-89700000D01*
X131443000Y-70485000D02*
X131443000Y-71247000D01*
X125220000Y-73025000D02*
X125220000Y-74930000D01*
X125855000Y-72390000D02*
X125220000Y-73025000D01*
X130300000Y-72390000D02*
X125855000Y-72390000D01*
X131443000Y-71247000D02*
X130300000Y-72390000D01*
X131443000Y-70485000D02*
X131443000Y-70739000D01*
X131316000Y-68961000D02*
X131316000Y-70358000D01*
X131316000Y-70358000D02*
X131443000Y-70485000D01*
X140684831Y-100682484D02*
X137438554Y-103928761D01*
X137438554Y-103928761D02*
X137438554Y-104446277D01*
X138426000Y-70358000D02*
X138553000Y-70485000D01*
X138426000Y-68961000D02*
X138426000Y-70358000D01*
X138553000Y-74803000D02*
X138680000Y-74930000D01*
X138553000Y-70485000D02*
X138553000Y-74803000D01*
X134300840Y-103029222D02*
X134300840Y-103657839D01*
X134300840Y-102999160D02*
X134300840Y-103029222D01*
X136400000Y-100900000D02*
X134300840Y-102999160D01*
X136932685Y-100900000D02*
X136400000Y-100900000D01*
X138917516Y-98915169D02*
X136932685Y-100900000D01*
X142871000Y-70358000D02*
X142998000Y-70485000D01*
X142871000Y-68961000D02*
X142871000Y-70358000D01*
X142998000Y-70485000D02*
X142998000Y-70739000D01*
X142998000Y-71247000D02*
X142490000Y-71755000D01*
X142490000Y-71755000D02*
X140585000Y-71755000D01*
X140585000Y-71755000D02*
X139950000Y-72390000D01*
X139950000Y-72390000D02*
X139950000Y-74930000D01*
X142998000Y-70485000D02*
X142998000Y-71247000D01*
X135500000Y-102871383D02*
X135500000Y-103500000D01*
X139271338Y-99268992D02*
X137140330Y-101400000D01*
X137140330Y-101400000D02*
X136571383Y-101400000D01*
X136571383Y-101400000D02*
X135500000Y-102471383D01*
X135500000Y-102471383D02*
X135500000Y-102871383D01*
X147316000Y-70358000D02*
X147443000Y-70485000D01*
X147316000Y-68961000D02*
X147316000Y-70358000D01*
X147443000Y-70485000D02*
X147443000Y-70739000D01*
X147443000Y-71247000D02*
X146300000Y-72390000D01*
X146300000Y-72390000D02*
X141855000Y-72390000D01*
X141855000Y-72390000D02*
X141220000Y-73025000D01*
X141220000Y-73025000D02*
X141220000Y-74930000D01*
X147443000Y-70485000D02*
X147443000Y-71247000D01*
X139625160Y-99622814D02*
X136647974Y-102600000D01*
X136647974Y-102600000D02*
X136400000Y-102600000D01*
X154426000Y-70358000D02*
X154553000Y-70485000D01*
X154426000Y-68961000D02*
X154426000Y-70358000D01*
X154553000Y-74803000D02*
X154680000Y-74930000D01*
X154553000Y-70485000D02*
X154553000Y-74803000D01*
X137856050Y-95946297D02*
X134309753Y-92400000D01*
X134309753Y-92400000D02*
X134100000Y-92400000D01*
X158871000Y-70358000D02*
X158998000Y-70485000D01*
X158871000Y-68961000D02*
X158871000Y-70358000D01*
X158998000Y-70485000D02*
X158998000Y-70739000D01*
X158998000Y-70485000D02*
X158998000Y-71247000D01*
X155950000Y-72390000D02*
X155950000Y-74930000D01*
X156585000Y-71755000D02*
X155950000Y-72390000D01*
X158490000Y-71755000D02*
X156585000Y-71755000D01*
X158998000Y-71247000D02*
X158490000Y-71755000D01*
X137856050Y-97853703D02*
X136871106Y-97853703D01*
X136871106Y-97853703D02*
X134742261Y-99982548D01*
X134742261Y-99982548D02*
X134297762Y-100427047D01*
X163316000Y-70358000D02*
X163443000Y-70485000D01*
X163316000Y-68961000D02*
X163316000Y-70358000D01*
X163443000Y-70485000D02*
X163443000Y-70739000D01*
X163443000Y-71247000D02*
X162300000Y-72390000D01*
X162300000Y-72390000D02*
X157855000Y-72390000D01*
X157855000Y-72390000D02*
X157220000Y-73025000D01*
X157220000Y-73025000D02*
X157220000Y-74930000D01*
X163443000Y-70485000D02*
X163443000Y-71247000D01*
X147732685Y-90100000D02*
X147900000Y-90100000D01*
X144715169Y-93117516D02*
X147732685Y-90100000D01*
X170553000Y-70485000D02*
X170553000Y-74803000D01*
X170553000Y-74803000D02*
X170680000Y-74930000D01*
X170426000Y-68961000D02*
X170426000Y-70358000D01*
X170426000Y-70358000D02*
X170553000Y-70485000D01*
X146128662Y-99228662D02*
X146128662Y-99268992D01*
X161300259Y-89289257D02*
X161744758Y-88844758D01*
X161300259Y-90399741D02*
X161300259Y-89289257D01*
X150500000Y-101200000D02*
X161300259Y-90399741D01*
X148059670Y-101200000D02*
X150500000Y-101200000D01*
X146128662Y-99268992D02*
X148059670Y-101200000D01*
X174998000Y-70485000D02*
X174998000Y-71247000D01*
X171950000Y-72390000D02*
X171950000Y-74930000D01*
X172585000Y-71755000D02*
X171950000Y-72390000D01*
X174490000Y-71755000D02*
X172585000Y-71755000D01*
X174998000Y-71247000D02*
X174490000Y-71755000D01*
X174998000Y-70485000D02*
X174998000Y-70739000D01*
X174871000Y-68961000D02*
X174871000Y-70358000D01*
X174871000Y-70358000D02*
X174998000Y-70485000D01*
X138800000Y-103274959D02*
X138800000Y-103800000D01*
X141038653Y-101036306D02*
X138800000Y-103274959D01*
X179443000Y-70485000D02*
X179443000Y-70739000D01*
X179316000Y-68961000D02*
X179316000Y-70358000D01*
X179316000Y-70358000D02*
X179443000Y-70485000D01*
X139977186Y-99922814D02*
X139977186Y-99974840D01*
X179443000Y-71247000D02*
X178300000Y-72390000D01*
X179443000Y-70485000D02*
X179443000Y-71247000D01*
X173220000Y-73025000D02*
X173220000Y-74930000D01*
X173855000Y-72390000D02*
X173220000Y-73025000D01*
X178300000Y-72390000D02*
X173855000Y-72390000D01*
X138900000Y-101400000D02*
X137044499Y-103255501D01*
X138900000Y-101000000D02*
X138900000Y-101400000D01*
X139925160Y-99974840D02*
X138900000Y-101000000D01*
X137044499Y-103255501D02*
X136600000Y-103700000D01*
X139977186Y-99974840D02*
X139925160Y-99974840D01*
D32*
X141100000Y-99600000D02*
X141100000Y-98500000D01*
X141100000Y-98500000D02*
X140400000Y-97800000D01*
X140521197Y-100178803D02*
X141100000Y-99600000D01*
X140480867Y-100178803D02*
X140521197Y-100178803D01*
D31*
X140331008Y-100328662D02*
X140480867Y-100178803D01*
D32*
G36*
X197315000Y-88138000D02*
X187547317Y-88138000D01*
X187025687Y-87789458D01*
X186400000Y-87665000D01*
X185774312Y-87789458D01*
X185252681Y-88138000D01*
X180435240Y-88138000D01*
X180435240Y-80277211D01*
X180110910Y-79492273D01*
X179510886Y-78891200D01*
X178726515Y-78565501D01*
X177877211Y-78564760D01*
X177092273Y-78889090D01*
X176491200Y-79489114D01*
X176165501Y-80273485D01*
X176164760Y-81122789D01*
X176489090Y-81907727D01*
X177089114Y-82508800D01*
X177873485Y-82834499D01*
X178722789Y-82835240D01*
X179507727Y-82510910D01*
X180108800Y-81910886D01*
X180434499Y-81126515D01*
X180435240Y-80277211D01*
X180435240Y-88138000D01*
X164435240Y-88138000D01*
X164435240Y-80277211D01*
X164110910Y-79492273D01*
X163510886Y-78891200D01*
X162726515Y-78565501D01*
X161877211Y-78564760D01*
X161092273Y-78889090D01*
X160491200Y-79489114D01*
X160165501Y-80273485D01*
X160164760Y-81122789D01*
X160489090Y-81907727D01*
X161089114Y-82508800D01*
X161873485Y-82834499D01*
X162722789Y-82835240D01*
X163507727Y-82510910D01*
X164108800Y-81910886D01*
X164434499Y-81126515D01*
X164435240Y-80277211D01*
X164435240Y-88138000D01*
X162564545Y-88138000D01*
X162357044Y-87930136D01*
X161960426Y-87765445D01*
X161530974Y-87765071D01*
X161134069Y-87929069D01*
X160924773Y-88138000D01*
X148448158Y-88138000D01*
X148440569Y-88130411D01*
X148435240Y-88126850D01*
X148435240Y-80277211D01*
X148110910Y-79492273D01*
X147510886Y-78891200D01*
X146726515Y-78565501D01*
X145877211Y-78564760D01*
X145092273Y-78889090D01*
X144491200Y-79489114D01*
X144165501Y-80273485D01*
X144164760Y-81122789D01*
X144489090Y-81907727D01*
X145089114Y-82508800D01*
X145873485Y-82834499D01*
X146722789Y-82835240D01*
X147507727Y-82510910D01*
X148108800Y-81910886D01*
X148434499Y-81126515D01*
X148435240Y-80277211D01*
X148435240Y-88126850D01*
X148185897Y-87960245D01*
X147885490Y-87900490D01*
X145141681Y-87900490D01*
X145012286Y-87770868D01*
X144615668Y-87606177D01*
X144186216Y-87605803D01*
X143789311Y-87769801D01*
X143485378Y-88073204D01*
X143458472Y-88138000D01*
X137617158Y-88138000D01*
X137455908Y-88030256D01*
X137155501Y-87970501D01*
X134944504Y-87970501D01*
X134944499Y-87970500D01*
X134644093Y-88030256D01*
X134509021Y-88120507D01*
X134286216Y-88120313D01*
X134243410Y-88138000D01*
X132435240Y-88138000D01*
X132435240Y-80277211D01*
X132110910Y-79492273D01*
X131510886Y-78891200D01*
X130726515Y-78565501D01*
X129877211Y-78564760D01*
X129092273Y-78889090D01*
X128491200Y-79489114D01*
X128165501Y-80273485D01*
X128164760Y-81122789D01*
X128489090Y-81907727D01*
X129089114Y-82508800D01*
X129873485Y-82834499D01*
X130722789Y-82835240D01*
X131507727Y-82510910D01*
X132108800Y-81910886D01*
X132434499Y-81126515D01*
X132435240Y-80277211D01*
X132435240Y-88138000D01*
X116435240Y-88138000D01*
X116435240Y-80222211D01*
X116110910Y-79437273D01*
X115510886Y-78836200D01*
X114726515Y-78510501D01*
X113877211Y-78509760D01*
X113092273Y-78834090D01*
X112491200Y-79434114D01*
X112165501Y-80218485D01*
X112164760Y-81067789D01*
X112489090Y-81852727D01*
X113089114Y-82453800D01*
X113873485Y-82779499D01*
X114722789Y-82780240D01*
X115507727Y-82455910D01*
X116108800Y-81855886D01*
X116434499Y-81071515D01*
X116435240Y-80222211D01*
X116435240Y-88138000D01*
X98687000Y-88138000D01*
X98687000Y-75692000D01*
X105915358Y-75692000D01*
X106067714Y-75844622D01*
X106464332Y-76009313D01*
X106893784Y-76009687D01*
X107290689Y-75845689D01*
X107314776Y-75821643D01*
X107337714Y-75844622D01*
X107734332Y-76009313D01*
X108120020Y-76009648D01*
X107949337Y-76265095D01*
X107886500Y-76581000D01*
X107886500Y-76771500D01*
X107696000Y-76771500D01*
X107380095Y-76834337D01*
X107112283Y-77013283D01*
X106933337Y-77281095D01*
X106870500Y-77597000D01*
X106933337Y-77912905D01*
X107112283Y-78180717D01*
X107380095Y-78359663D01*
X107696000Y-78422500D01*
X107886500Y-78422500D01*
X107886500Y-78613000D01*
X107949337Y-78928905D01*
X108128283Y-79196717D01*
X108396095Y-79375663D01*
X108712000Y-79438500D01*
X109027905Y-79375663D01*
X109295717Y-79196717D01*
X109474663Y-78928905D01*
X109537500Y-78613000D01*
X109537500Y-78422500D01*
X109728000Y-78422500D01*
X110043905Y-78359663D01*
X110311717Y-78180717D01*
X110490663Y-77912905D01*
X110553500Y-77597000D01*
X110490663Y-77281095D01*
X110311717Y-77013283D01*
X110043905Y-76834337D01*
X109728000Y-76771500D01*
X109537500Y-76771500D01*
X109537500Y-76581000D01*
X109474663Y-76265095D01*
X109303929Y-76009573D01*
X109433784Y-76009687D01*
X109830689Y-75845689D01*
X109984646Y-75692000D01*
X121915358Y-75692000D01*
X122067714Y-75844622D01*
X122464332Y-76009313D01*
X122893784Y-76009687D01*
X123290689Y-75845689D01*
X123314776Y-75821643D01*
X123337714Y-75844622D01*
X123734332Y-76009313D01*
X124163784Y-76009687D01*
X124237807Y-75979100D01*
X124128283Y-76052283D01*
X123949337Y-76320095D01*
X123886500Y-76636000D01*
X123886500Y-76826500D01*
X123696000Y-76826500D01*
X123380095Y-76889337D01*
X123112283Y-77068283D01*
X122933337Y-77336095D01*
X122870500Y-77652000D01*
X122933337Y-77967905D01*
X123112283Y-78235717D01*
X123380095Y-78414663D01*
X123696000Y-78477500D01*
X123886500Y-78477500D01*
X123886500Y-78668000D01*
X123949337Y-78983905D01*
X124128283Y-79251717D01*
X124396095Y-79430663D01*
X124712000Y-79493500D01*
X125027905Y-79430663D01*
X125295717Y-79251717D01*
X125474663Y-78983905D01*
X125537500Y-78668000D01*
X125537500Y-78477500D01*
X125728000Y-78477500D01*
X126043905Y-78414663D01*
X126311717Y-78235717D01*
X126490663Y-77967905D01*
X126553500Y-77652000D01*
X126490663Y-77336095D01*
X126311717Y-77068283D01*
X126043905Y-76889337D01*
X125728000Y-76826500D01*
X125537500Y-76826500D01*
X125537500Y-76636000D01*
X125474663Y-76320095D01*
X125295717Y-76052283D01*
X125231704Y-76009511D01*
X125433784Y-76009687D01*
X125830689Y-75845689D01*
X125984646Y-75692000D01*
X137915358Y-75692000D01*
X138067714Y-75844622D01*
X138464332Y-76009313D01*
X138893784Y-76009687D01*
X139290689Y-75845689D01*
X139314776Y-75821643D01*
X139337714Y-75844622D01*
X139734332Y-76009313D01*
X140163784Y-76009687D01*
X140237807Y-75979100D01*
X140128283Y-76052283D01*
X139949337Y-76320095D01*
X139886500Y-76636000D01*
X139886500Y-76826500D01*
X139696000Y-76826500D01*
X139380095Y-76889337D01*
X139112283Y-77068283D01*
X138933337Y-77336095D01*
X138870500Y-77652000D01*
X138933337Y-77967905D01*
X139112283Y-78235717D01*
X139380095Y-78414663D01*
X139696000Y-78477500D01*
X139886500Y-78477500D01*
X139886500Y-78668000D01*
X139949337Y-78983905D01*
X140128283Y-79251717D01*
X140396095Y-79430663D01*
X140712000Y-79493500D01*
X141027905Y-79430663D01*
X141295717Y-79251717D01*
X141474663Y-78983905D01*
X141537500Y-78668000D01*
X141537500Y-78477500D01*
X141728000Y-78477500D01*
X142043905Y-78414663D01*
X142311717Y-78235717D01*
X142490663Y-77967905D01*
X142553500Y-77652000D01*
X142490663Y-77336095D01*
X142311717Y-77068283D01*
X142043905Y-76889337D01*
X141728000Y-76826500D01*
X141537500Y-76826500D01*
X141537500Y-76636000D01*
X141474663Y-76320095D01*
X141295717Y-76052283D01*
X141231704Y-76009511D01*
X141433784Y-76009687D01*
X141830689Y-75845689D01*
X141984646Y-75692000D01*
X153915358Y-75692000D01*
X154067714Y-75844622D01*
X154464332Y-76009313D01*
X154893784Y-76009687D01*
X155290689Y-75845689D01*
X155314776Y-75821643D01*
X155337714Y-75844622D01*
X155734332Y-76009313D01*
X156163784Y-76009687D01*
X156237807Y-75979100D01*
X156128283Y-76052283D01*
X155949337Y-76320095D01*
X155886500Y-76636000D01*
X155886500Y-76826500D01*
X155696000Y-76826500D01*
X155380095Y-76889337D01*
X155112283Y-77068283D01*
X154933337Y-77336095D01*
X154870500Y-77652000D01*
X154933337Y-77967905D01*
X155112283Y-78235717D01*
X155380095Y-78414663D01*
X155696000Y-78477500D01*
X155886500Y-78477500D01*
X155886500Y-78668000D01*
X155949337Y-78983905D01*
X156128283Y-79251717D01*
X156396095Y-79430663D01*
X156712000Y-79493500D01*
X157027905Y-79430663D01*
X157295717Y-79251717D01*
X157474663Y-78983905D01*
X157537500Y-78668000D01*
X157537500Y-78477500D01*
X157728000Y-78477500D01*
X158043905Y-78414663D01*
X158311717Y-78235717D01*
X158490663Y-77967905D01*
X158553500Y-77652000D01*
X158490663Y-77336095D01*
X158311717Y-77068283D01*
X158043905Y-76889337D01*
X157728000Y-76826500D01*
X157537500Y-76826500D01*
X157537500Y-76636000D01*
X157474663Y-76320095D01*
X157295717Y-76052283D01*
X157231704Y-76009511D01*
X157433784Y-76009687D01*
X157830689Y-75845689D01*
X157984646Y-75692000D01*
X169915358Y-75692000D01*
X170067714Y-75844622D01*
X170464332Y-76009313D01*
X170893784Y-76009687D01*
X171290689Y-75845689D01*
X171314776Y-75821643D01*
X171337714Y-75844622D01*
X171734332Y-76009313D01*
X172163784Y-76009687D01*
X172237807Y-75979100D01*
X172128283Y-76052283D01*
X171949337Y-76320095D01*
X171886500Y-76636000D01*
X171886500Y-76826500D01*
X171696000Y-76826500D01*
X171380095Y-76889337D01*
X171112283Y-77068283D01*
X170933337Y-77336095D01*
X170870500Y-77652000D01*
X170933337Y-77967905D01*
X171112283Y-78235717D01*
X171380095Y-78414663D01*
X171696000Y-78477500D01*
X171886500Y-78477500D01*
X171886500Y-78668000D01*
X171949337Y-78983905D01*
X172128283Y-79251717D01*
X172396095Y-79430663D01*
X172712000Y-79493500D01*
X173027905Y-79430663D01*
X173295717Y-79251717D01*
X173474663Y-78983905D01*
X173537500Y-78668000D01*
X173537500Y-78477500D01*
X173728000Y-78477500D01*
X174043905Y-78414663D01*
X174311717Y-78235717D01*
X174490663Y-77967905D01*
X174553500Y-77652000D01*
X174490663Y-77336095D01*
X174311717Y-77068283D01*
X174043905Y-76889337D01*
X173728000Y-76826500D01*
X173537500Y-76826500D01*
X173537500Y-76636000D01*
X173474663Y-76320095D01*
X173295717Y-76052283D01*
X173231704Y-76009511D01*
X173433784Y-76009687D01*
X173830689Y-75845689D01*
X173984646Y-75692000D01*
X197315000Y-75692000D01*
X197315000Y-88138000D01*
X197315000Y-88138000D01*
G37*
X197315000Y-88138000D02*
X187547317Y-88138000D01*
X187025687Y-87789458D01*
X186400000Y-87665000D01*
X185774312Y-87789458D01*
X185252681Y-88138000D01*
X180435240Y-88138000D01*
X180435240Y-80277211D01*
X180110910Y-79492273D01*
X179510886Y-78891200D01*
X178726515Y-78565501D01*
X177877211Y-78564760D01*
X177092273Y-78889090D01*
X176491200Y-79489114D01*
X176165501Y-80273485D01*
X176164760Y-81122789D01*
X176489090Y-81907727D01*
X177089114Y-82508800D01*
X177873485Y-82834499D01*
X178722789Y-82835240D01*
X179507727Y-82510910D01*
X180108800Y-81910886D01*
X180434499Y-81126515D01*
X180435240Y-80277211D01*
X180435240Y-88138000D01*
X164435240Y-88138000D01*
X164435240Y-80277211D01*
X164110910Y-79492273D01*
X163510886Y-78891200D01*
X162726515Y-78565501D01*
X161877211Y-78564760D01*
X161092273Y-78889090D01*
X160491200Y-79489114D01*
X160165501Y-80273485D01*
X160164760Y-81122789D01*
X160489090Y-81907727D01*
X161089114Y-82508800D01*
X161873485Y-82834499D01*
X162722789Y-82835240D01*
X163507727Y-82510910D01*
X164108800Y-81910886D01*
X164434499Y-81126515D01*
X164435240Y-80277211D01*
X164435240Y-88138000D01*
X162564545Y-88138000D01*
X162357044Y-87930136D01*
X161960426Y-87765445D01*
X161530974Y-87765071D01*
X161134069Y-87929069D01*
X160924773Y-88138000D01*
X148448158Y-88138000D01*
X148440569Y-88130411D01*
X148435240Y-88126850D01*
X148435240Y-80277211D01*
X148110910Y-79492273D01*
X147510886Y-78891200D01*
X146726515Y-78565501D01*
X145877211Y-78564760D01*
X145092273Y-78889090D01*
X144491200Y-79489114D01*
X144165501Y-80273485D01*
X144164760Y-81122789D01*
X144489090Y-81907727D01*
X145089114Y-82508800D01*
X145873485Y-82834499D01*
X146722789Y-82835240D01*
X147507727Y-82510910D01*
X148108800Y-81910886D01*
X148434499Y-81126515D01*
X148435240Y-80277211D01*
X148435240Y-88126850D01*
X148185897Y-87960245D01*
X147885490Y-87900490D01*
X145141681Y-87900490D01*
X145012286Y-87770868D01*
X144615668Y-87606177D01*
X144186216Y-87605803D01*
X143789311Y-87769801D01*
X143485378Y-88073204D01*
X143458472Y-88138000D01*
X137617158Y-88138000D01*
X137455908Y-88030256D01*
X137155501Y-87970501D01*
X134944504Y-87970501D01*
X134944499Y-87970500D01*
X134644093Y-88030256D01*
X134509021Y-88120507D01*
X134286216Y-88120313D01*
X134243410Y-88138000D01*
X132435240Y-88138000D01*
X132435240Y-80277211D01*
X132110910Y-79492273D01*
X131510886Y-78891200D01*
X130726515Y-78565501D01*
X129877211Y-78564760D01*
X129092273Y-78889090D01*
X128491200Y-79489114D01*
X128165501Y-80273485D01*
X128164760Y-81122789D01*
X128489090Y-81907727D01*
X129089114Y-82508800D01*
X129873485Y-82834499D01*
X130722789Y-82835240D01*
X131507727Y-82510910D01*
X132108800Y-81910886D01*
X132434499Y-81126515D01*
X132435240Y-80277211D01*
X132435240Y-88138000D01*
X116435240Y-88138000D01*
X116435240Y-80222211D01*
X116110910Y-79437273D01*
X115510886Y-78836200D01*
X114726515Y-78510501D01*
X113877211Y-78509760D01*
X113092273Y-78834090D01*
X112491200Y-79434114D01*
X112165501Y-80218485D01*
X112164760Y-81067789D01*
X112489090Y-81852727D01*
X113089114Y-82453800D01*
X113873485Y-82779499D01*
X114722789Y-82780240D01*
X115507727Y-82455910D01*
X116108800Y-81855886D01*
X116434499Y-81071515D01*
X116435240Y-80222211D01*
X116435240Y-88138000D01*
X98687000Y-88138000D01*
X98687000Y-75692000D01*
X105915358Y-75692000D01*
X106067714Y-75844622D01*
X106464332Y-76009313D01*
X106893784Y-76009687D01*
X107290689Y-75845689D01*
X107314776Y-75821643D01*
X107337714Y-75844622D01*
X107734332Y-76009313D01*
X108120020Y-76009648D01*
X107949337Y-76265095D01*
X107886500Y-76581000D01*
X107886500Y-76771500D01*
X107696000Y-76771500D01*
X107380095Y-76834337D01*
X107112283Y-77013283D01*
X106933337Y-77281095D01*
X106870500Y-77597000D01*
X106933337Y-77912905D01*
X107112283Y-78180717D01*
X107380095Y-78359663D01*
X107696000Y-78422500D01*
X107886500Y-78422500D01*
X107886500Y-78613000D01*
X107949337Y-78928905D01*
X108128283Y-79196717D01*
X108396095Y-79375663D01*
X108712000Y-79438500D01*
X109027905Y-79375663D01*
X109295717Y-79196717D01*
X109474663Y-78928905D01*
X109537500Y-78613000D01*
X109537500Y-78422500D01*
X109728000Y-78422500D01*
X110043905Y-78359663D01*
X110311717Y-78180717D01*
X110490663Y-77912905D01*
X110553500Y-77597000D01*
X110490663Y-77281095D01*
X110311717Y-77013283D01*
X110043905Y-76834337D01*
X109728000Y-76771500D01*
X109537500Y-76771500D01*
X109537500Y-76581000D01*
X109474663Y-76265095D01*
X109303929Y-76009573D01*
X109433784Y-76009687D01*
X109830689Y-75845689D01*
X109984646Y-75692000D01*
X121915358Y-75692000D01*
X122067714Y-75844622D01*
X122464332Y-76009313D01*
X122893784Y-76009687D01*
X123290689Y-75845689D01*
X123314776Y-75821643D01*
X123337714Y-75844622D01*
X123734332Y-76009313D01*
X124163784Y-76009687D01*
X124237807Y-75979100D01*
X124128283Y-76052283D01*
X123949337Y-76320095D01*
X123886500Y-76636000D01*
X123886500Y-76826500D01*
X123696000Y-76826500D01*
X123380095Y-76889337D01*
X123112283Y-77068283D01*
X122933337Y-77336095D01*
X122870500Y-77652000D01*
X122933337Y-77967905D01*
X123112283Y-78235717D01*
X123380095Y-78414663D01*
X123696000Y-78477500D01*
X123886500Y-78477500D01*
X123886500Y-78668000D01*
X123949337Y-78983905D01*
X124128283Y-79251717D01*
X124396095Y-79430663D01*
X124712000Y-79493500D01*
X125027905Y-79430663D01*
X125295717Y-79251717D01*
X125474663Y-78983905D01*
X125537500Y-78668000D01*
X125537500Y-78477500D01*
X125728000Y-78477500D01*
X126043905Y-78414663D01*
X126311717Y-78235717D01*
X126490663Y-77967905D01*
X126553500Y-77652000D01*
X126490663Y-77336095D01*
X126311717Y-77068283D01*
X126043905Y-76889337D01*
X125728000Y-76826500D01*
X125537500Y-76826500D01*
X125537500Y-76636000D01*
X125474663Y-76320095D01*
X125295717Y-76052283D01*
X125231704Y-76009511D01*
X125433784Y-76009687D01*
X125830689Y-75845689D01*
X125984646Y-75692000D01*
X137915358Y-75692000D01*
X138067714Y-75844622D01*
X138464332Y-76009313D01*
X138893784Y-76009687D01*
X139290689Y-75845689D01*
X139314776Y-75821643D01*
X139337714Y-75844622D01*
X139734332Y-76009313D01*
X140163784Y-76009687D01*
X140237807Y-75979100D01*
X140128283Y-76052283D01*
X139949337Y-76320095D01*
X139886500Y-76636000D01*
X139886500Y-76826500D01*
X139696000Y-76826500D01*
X139380095Y-76889337D01*
X139112283Y-77068283D01*
X138933337Y-77336095D01*
X138870500Y-77652000D01*
X138933337Y-77967905D01*
X139112283Y-78235717D01*
X139380095Y-78414663D01*
X139696000Y-78477500D01*
X139886500Y-78477500D01*
X139886500Y-78668000D01*
X139949337Y-78983905D01*
X140128283Y-79251717D01*
X140396095Y-79430663D01*
X140712000Y-79493500D01*
X141027905Y-79430663D01*
X141295717Y-79251717D01*
X141474663Y-78983905D01*
X141537500Y-78668000D01*
X141537500Y-78477500D01*
X141728000Y-78477500D01*
X142043905Y-78414663D01*
X142311717Y-78235717D01*
X142490663Y-77967905D01*
X142553500Y-77652000D01*
X142490663Y-77336095D01*
X142311717Y-77068283D01*
X142043905Y-76889337D01*
X141728000Y-76826500D01*
X141537500Y-76826500D01*
X141537500Y-76636000D01*
X141474663Y-76320095D01*
X141295717Y-76052283D01*
X141231704Y-76009511D01*
X141433784Y-76009687D01*
X141830689Y-75845689D01*
X141984646Y-75692000D01*
X153915358Y-75692000D01*
X154067714Y-75844622D01*
X154464332Y-76009313D01*
X154893784Y-76009687D01*
X155290689Y-75845689D01*
X155314776Y-75821643D01*
X155337714Y-75844622D01*
X155734332Y-76009313D01*
X156163784Y-76009687D01*
X156237807Y-75979100D01*
X156128283Y-76052283D01*
X155949337Y-76320095D01*
X155886500Y-76636000D01*
X155886500Y-76826500D01*
X155696000Y-76826500D01*
X155380095Y-76889337D01*
X155112283Y-77068283D01*
X154933337Y-77336095D01*
X154870500Y-77652000D01*
X154933337Y-77967905D01*
X155112283Y-78235717D01*
X155380095Y-78414663D01*
X155696000Y-78477500D01*
X155886500Y-78477500D01*
X155886500Y-78668000D01*
X155949337Y-78983905D01*
X156128283Y-79251717D01*
X156396095Y-79430663D01*
X156712000Y-79493500D01*
X157027905Y-79430663D01*
X157295717Y-79251717D01*
X157474663Y-78983905D01*
X157537500Y-78668000D01*
X157537500Y-78477500D01*
X157728000Y-78477500D01*
X158043905Y-78414663D01*
X158311717Y-78235717D01*
X158490663Y-77967905D01*
X158553500Y-77652000D01*
X158490663Y-77336095D01*
X158311717Y-77068283D01*
X158043905Y-76889337D01*
X157728000Y-76826500D01*
X157537500Y-76826500D01*
X157537500Y-76636000D01*
X157474663Y-76320095D01*
X157295717Y-76052283D01*
X157231704Y-76009511D01*
X157433784Y-76009687D01*
X157830689Y-75845689D01*
X157984646Y-75692000D01*
X169915358Y-75692000D01*
X170067714Y-75844622D01*
X170464332Y-76009313D01*
X170893784Y-76009687D01*
X171290689Y-75845689D01*
X171314776Y-75821643D01*
X171337714Y-75844622D01*
X171734332Y-76009313D01*
X172163784Y-76009687D01*
X172237807Y-75979100D01*
X172128283Y-76052283D01*
X171949337Y-76320095D01*
X171886500Y-76636000D01*
X171886500Y-76826500D01*
X171696000Y-76826500D01*
X171380095Y-76889337D01*
X171112283Y-77068283D01*
X170933337Y-77336095D01*
X170870500Y-77652000D01*
X170933337Y-77967905D01*
X171112283Y-78235717D01*
X171380095Y-78414663D01*
X171696000Y-78477500D01*
X171886500Y-78477500D01*
X171886500Y-78668000D01*
X171949337Y-78983905D01*
X172128283Y-79251717D01*
X172396095Y-79430663D01*
X172712000Y-79493500D01*
X173027905Y-79430663D01*
X173295717Y-79251717D01*
X173474663Y-78983905D01*
X173537500Y-78668000D01*
X173537500Y-78477500D01*
X173728000Y-78477500D01*
X174043905Y-78414663D01*
X174311717Y-78235717D01*
X174490663Y-77967905D01*
X174553500Y-77652000D01*
X174490663Y-77336095D01*
X174311717Y-77068283D01*
X174043905Y-76889337D01*
X173728000Y-76826500D01*
X173537500Y-76826500D01*
X173537500Y-76636000D01*
X173474663Y-76320095D01*
X173295717Y-76052283D01*
X173231704Y-76009511D01*
X173433784Y-76009687D01*
X173830689Y-75845689D01*
X173984646Y-75692000D01*
X197315000Y-75692000D01*
X197315000Y-88138000D01*
G36*
X197315000Y-74373000D02*
X194853437Y-74373000D01*
X195232542Y-73994557D01*
X195634542Y-73026433D01*
X195635457Y-71978166D01*
X195235147Y-71009342D01*
X194494557Y-70267458D01*
X193526433Y-69865458D01*
X192478166Y-69864543D01*
X191509342Y-70264853D01*
X190767458Y-71005443D01*
X190365458Y-71973567D01*
X190364543Y-73021834D01*
X190764853Y-73990658D01*
X191146528Y-74373000D01*
X174157872Y-74373000D01*
X174135689Y-74319311D01*
X174005000Y-74188393D01*
X174005000Y-73350158D01*
X174180158Y-73175000D01*
X178300000Y-73175000D01*
X178600406Y-73115245D01*
X178600407Y-73115245D01*
X178855079Y-72945079D01*
X179998079Y-71802079D01*
X180168245Y-71547407D01*
X180168245Y-71547406D01*
X180170590Y-71535615D01*
X180244801Y-71609827D01*
X180478190Y-71706500D01*
X180730809Y-71706500D01*
X181365809Y-71706500D01*
X181599198Y-71609827D01*
X181717952Y-71491073D01*
X181894332Y-71564313D01*
X182323784Y-71564687D01*
X182720689Y-71400689D01*
X183024622Y-71097286D01*
X183189313Y-70700668D01*
X183189687Y-70271216D01*
X183025689Y-69874311D01*
X183001643Y-69850223D01*
X183024622Y-69827286D01*
X183189313Y-69430668D01*
X183189687Y-69001216D01*
X183025689Y-68604311D01*
X183001643Y-68580223D01*
X183024622Y-68557286D01*
X183189313Y-68160668D01*
X183189687Y-67731216D01*
X183025689Y-67334311D01*
X182722286Y-67030378D01*
X182325668Y-66865687D01*
X181896216Y-66865313D01*
X181499311Y-67029311D01*
X181252200Y-67275991D01*
X181252200Y-67214891D01*
X181252200Y-66300491D01*
X181155527Y-66067102D01*
X180976899Y-65888473D01*
X180743510Y-65791800D01*
X180490891Y-65791800D01*
X180009090Y-65791800D01*
X179362664Y-65145374D01*
X179554526Y-64858234D01*
X179668600Y-64284745D01*
X179668600Y-63915255D01*
X179554526Y-63341766D01*
X179229670Y-62855585D01*
X178743489Y-62530729D01*
X178170000Y-62416655D01*
X177596511Y-62530729D01*
X177110330Y-62855585D01*
X176900000Y-63170365D01*
X176689670Y-62855585D01*
X176203489Y-62530729D01*
X175630000Y-62416655D01*
X175056511Y-62530729D01*
X174570330Y-62855585D01*
X174360000Y-63170365D01*
X174149670Y-62855585D01*
X173663489Y-62530729D01*
X173090000Y-62416655D01*
X172516511Y-62530729D01*
X172030330Y-62855585D01*
X171705474Y-63341766D01*
X171591400Y-63915255D01*
X171591400Y-64284745D01*
X171705474Y-64858234D01*
X172001476Y-65301233D01*
X171510910Y-65791800D01*
X170776491Y-65791800D01*
X170543102Y-65888473D01*
X170364473Y-66067101D01*
X170267800Y-66300490D01*
X170267800Y-66553109D01*
X170267800Y-67467509D01*
X170364473Y-67700898D01*
X170487374Y-67823800D01*
X169887491Y-67823800D01*
X169654102Y-67920473D01*
X169475473Y-68099101D01*
X169378800Y-68332490D01*
X169378800Y-68585109D01*
X169378800Y-69499509D01*
X169475473Y-69732898D01*
X169641000Y-69898425D01*
X169641000Y-70358000D01*
X169645500Y-70380622D01*
X169645500Y-71197809D01*
X169742173Y-71431198D01*
X169768000Y-71457025D01*
X169768000Y-74315096D01*
X169765378Y-74317714D01*
X169742421Y-74373000D01*
X158157872Y-74373000D01*
X158135689Y-74319311D01*
X158005000Y-74188393D01*
X158005000Y-73350158D01*
X158180158Y-73175000D01*
X162300000Y-73175000D01*
X162600406Y-73115245D01*
X162600407Y-73115245D01*
X162855079Y-72945079D01*
X163998079Y-71802079D01*
X164168245Y-71547407D01*
X164168245Y-71547406D01*
X164170590Y-71535615D01*
X164244801Y-71609827D01*
X164478190Y-71706500D01*
X164730809Y-71706500D01*
X165365809Y-71706500D01*
X165599198Y-71609827D01*
X165717952Y-71491073D01*
X165894332Y-71564313D01*
X166323784Y-71564687D01*
X166720689Y-71400689D01*
X167024622Y-71097286D01*
X167189313Y-70700668D01*
X167189687Y-70271216D01*
X167025689Y-69874311D01*
X167001643Y-69850223D01*
X167024622Y-69827286D01*
X167189313Y-69430668D01*
X167189687Y-69001216D01*
X167025689Y-68604311D01*
X167001643Y-68580223D01*
X167024622Y-68557286D01*
X167189313Y-68160668D01*
X167189687Y-67731216D01*
X167025689Y-67334311D01*
X166722286Y-67030378D01*
X166325668Y-66865687D01*
X165896216Y-66865313D01*
X165499311Y-67029311D01*
X165252200Y-67275991D01*
X165252200Y-67214891D01*
X165252200Y-66300491D01*
X165155527Y-66067102D01*
X164976899Y-65888473D01*
X164743510Y-65791800D01*
X164490891Y-65791800D01*
X164009090Y-65791800D01*
X163482555Y-65265265D01*
X163754526Y-64858234D01*
X163868600Y-64284745D01*
X163868600Y-63915255D01*
X163754526Y-63341766D01*
X163429670Y-62855585D01*
X162943489Y-62530729D01*
X162370000Y-62416655D01*
X161796511Y-62530729D01*
X161310330Y-62855585D01*
X161100000Y-63170365D01*
X160889670Y-62855585D01*
X160403489Y-62530729D01*
X159830000Y-62416655D01*
X159256511Y-62530729D01*
X158770330Y-62855585D01*
X158560000Y-63170365D01*
X158349670Y-62855585D01*
X157863489Y-62530729D01*
X157290000Y-62416655D01*
X156716511Y-62530729D01*
X156230330Y-62855585D01*
X155905474Y-63341766D01*
X155791400Y-63915255D01*
X155791400Y-64284745D01*
X155905474Y-64858234D01*
X156121368Y-65181341D01*
X155510910Y-65791800D01*
X154776491Y-65791800D01*
X154543102Y-65888473D01*
X154364473Y-66067101D01*
X154267800Y-66300490D01*
X154267800Y-66553109D01*
X154267800Y-67467509D01*
X154364473Y-67700898D01*
X154487374Y-67823800D01*
X153887491Y-67823800D01*
X153654102Y-67920473D01*
X153475473Y-68099101D01*
X153378800Y-68332490D01*
X153378800Y-68585109D01*
X153378800Y-69499509D01*
X153475473Y-69732898D01*
X153641000Y-69898425D01*
X153641000Y-70358000D01*
X153645500Y-70380622D01*
X153645500Y-71197809D01*
X153742173Y-71431198D01*
X153768000Y-71457025D01*
X153768000Y-74315096D01*
X153765378Y-74317714D01*
X153742421Y-74373000D01*
X142157872Y-74373000D01*
X142135689Y-74319311D01*
X142005000Y-74188393D01*
X142005000Y-73350158D01*
X142180158Y-73175000D01*
X146300000Y-73175000D01*
X146600406Y-73115245D01*
X146600407Y-73115245D01*
X146855079Y-72945079D01*
X147998079Y-71802079D01*
X148168245Y-71547407D01*
X148168245Y-71547406D01*
X148170590Y-71535615D01*
X148244801Y-71609827D01*
X148478190Y-71706500D01*
X148730809Y-71706500D01*
X149365809Y-71706500D01*
X149599198Y-71609827D01*
X149717952Y-71491073D01*
X149894332Y-71564313D01*
X150323784Y-71564687D01*
X150720689Y-71400689D01*
X151024622Y-71097286D01*
X151189313Y-70700668D01*
X151189687Y-70271216D01*
X151025689Y-69874311D01*
X151001643Y-69850223D01*
X151024622Y-69827286D01*
X151189313Y-69430668D01*
X151189687Y-69001216D01*
X151025689Y-68604311D01*
X151001643Y-68580223D01*
X151024622Y-68557286D01*
X151189313Y-68160668D01*
X151189687Y-67731216D01*
X151025689Y-67334311D01*
X150722286Y-67030378D01*
X150325668Y-66865687D01*
X149896216Y-66865313D01*
X149499311Y-67029311D01*
X149252200Y-67275991D01*
X149252200Y-67214891D01*
X149252200Y-66300491D01*
X149155527Y-66067102D01*
X148976899Y-65888473D01*
X148743510Y-65791800D01*
X148490891Y-65791800D01*
X148009090Y-65791800D01*
X147362664Y-65145374D01*
X147554526Y-64858234D01*
X147668600Y-64284745D01*
X147668600Y-63915255D01*
X147554526Y-63341766D01*
X147229670Y-62855585D01*
X146743489Y-62530729D01*
X146170000Y-62416655D01*
X145596511Y-62530729D01*
X145110330Y-62855585D01*
X144900000Y-63170365D01*
X144689670Y-62855585D01*
X144203489Y-62530729D01*
X143630000Y-62416655D01*
X143056511Y-62530729D01*
X142570330Y-62855585D01*
X142360000Y-63170365D01*
X142149670Y-62855585D01*
X141663489Y-62530729D01*
X141090000Y-62416655D01*
X140516511Y-62530729D01*
X140030330Y-62855585D01*
X139705474Y-63341766D01*
X139591400Y-63915255D01*
X139591400Y-64284745D01*
X139705474Y-64858234D01*
X140001476Y-65301233D01*
X139510910Y-65791800D01*
X138776491Y-65791800D01*
X138543102Y-65888473D01*
X138364473Y-66067101D01*
X138267800Y-66300490D01*
X138267800Y-66553109D01*
X138267800Y-67467509D01*
X138364473Y-67700898D01*
X138487374Y-67823800D01*
X137887491Y-67823800D01*
X137654102Y-67920473D01*
X137475473Y-68099101D01*
X137378800Y-68332490D01*
X137378800Y-68585109D01*
X137378800Y-69499509D01*
X137475473Y-69732898D01*
X137641000Y-69898425D01*
X137641000Y-70358000D01*
X137645500Y-70380622D01*
X137645500Y-71197809D01*
X137742173Y-71431198D01*
X137768000Y-71457025D01*
X137768000Y-74315096D01*
X137765378Y-74317714D01*
X137742421Y-74373000D01*
X126157872Y-74373000D01*
X126135689Y-74319311D01*
X126005000Y-74188393D01*
X126005000Y-73350158D01*
X126180158Y-73175000D01*
X130300000Y-73175000D01*
X130600406Y-73115245D01*
X130600407Y-73115245D01*
X130855079Y-72945079D01*
X131998079Y-71802079D01*
X132168245Y-71547407D01*
X132168245Y-71547406D01*
X132170590Y-71535615D01*
X132244801Y-71609827D01*
X132478190Y-71706500D01*
X132730809Y-71706500D01*
X133365809Y-71706500D01*
X133599198Y-71609827D01*
X133717952Y-71491073D01*
X133894332Y-71564313D01*
X134323784Y-71564687D01*
X134720689Y-71400689D01*
X135024622Y-71097286D01*
X135189313Y-70700668D01*
X135189687Y-70271216D01*
X135025689Y-69874311D01*
X135001643Y-69850223D01*
X135024622Y-69827286D01*
X135189313Y-69430668D01*
X135189687Y-69001216D01*
X135025689Y-68604311D01*
X135001643Y-68580223D01*
X135024622Y-68557286D01*
X135189313Y-68160668D01*
X135189687Y-67731216D01*
X135025689Y-67334311D01*
X134722286Y-67030378D01*
X134325668Y-66865687D01*
X133896216Y-66865313D01*
X133499311Y-67029311D01*
X133252200Y-67275991D01*
X133252200Y-67214891D01*
X133252200Y-66300491D01*
X133155527Y-66067102D01*
X132976899Y-65888473D01*
X132743510Y-65791800D01*
X132490891Y-65791800D01*
X132009090Y-65791800D01*
X131482555Y-65265265D01*
X131754526Y-64858234D01*
X131868600Y-64284745D01*
X131868600Y-63915255D01*
X131754526Y-63341766D01*
X131429670Y-62855585D01*
X130943489Y-62530729D01*
X130370000Y-62416655D01*
X129796511Y-62530729D01*
X129310330Y-62855585D01*
X129100000Y-63170365D01*
X128889670Y-62855585D01*
X128403489Y-62530729D01*
X127830000Y-62416655D01*
X127256511Y-62530729D01*
X126770330Y-62855585D01*
X126560000Y-63170365D01*
X126349670Y-62855585D01*
X125863489Y-62530729D01*
X125290000Y-62416655D01*
X124716511Y-62530729D01*
X124230330Y-62855585D01*
X123905474Y-63341766D01*
X123791400Y-63915255D01*
X123791400Y-64284745D01*
X123905474Y-64858234D01*
X124121368Y-65181341D01*
X123510910Y-65791800D01*
X122776491Y-65791800D01*
X122543102Y-65888473D01*
X122364473Y-66067101D01*
X122267800Y-66300490D01*
X122267800Y-66553109D01*
X122267800Y-67467509D01*
X122364473Y-67700898D01*
X122487374Y-67823800D01*
X121887491Y-67823800D01*
X121654102Y-67920473D01*
X121475473Y-68099101D01*
X121378800Y-68332490D01*
X121378800Y-68585109D01*
X121378800Y-69499509D01*
X121475473Y-69732898D01*
X121641000Y-69898425D01*
X121641000Y-70358000D01*
X121645500Y-70380622D01*
X121645500Y-71197809D01*
X121742173Y-71431198D01*
X121768000Y-71457025D01*
X121768000Y-74315096D01*
X121765378Y-74317714D01*
X121742421Y-74373000D01*
X110157872Y-74373000D01*
X110135689Y-74319311D01*
X110005000Y-74188393D01*
X110005000Y-73350158D01*
X110180158Y-73175000D01*
X114300000Y-73175000D01*
X114600406Y-73115245D01*
X114600407Y-73115245D01*
X114855079Y-72945079D01*
X115998079Y-71802079D01*
X116168245Y-71547407D01*
X116168245Y-71547406D01*
X116168400Y-71546624D01*
X116204999Y-71510025D01*
X116289801Y-71594827D01*
X116523190Y-71691500D01*
X116775809Y-71691500D01*
X117410809Y-71691500D01*
X117644198Y-71594827D01*
X117739150Y-71499875D01*
X117894332Y-71564313D01*
X118323784Y-71564687D01*
X118720689Y-71400689D01*
X119024622Y-71097286D01*
X119189313Y-70700668D01*
X119189687Y-70271216D01*
X119025689Y-69874311D01*
X119001643Y-69850223D01*
X119024622Y-69827286D01*
X119189313Y-69430668D01*
X119189687Y-69001216D01*
X119025689Y-68604311D01*
X119001643Y-68580223D01*
X119024622Y-68557286D01*
X119189313Y-68160668D01*
X119189687Y-67731216D01*
X119025689Y-67334311D01*
X118722286Y-67030378D01*
X118325668Y-66865687D01*
X117896216Y-66865313D01*
X117499311Y-67029311D01*
X117297200Y-67231069D01*
X117297200Y-66345491D01*
X117200527Y-66112102D01*
X117021899Y-65933473D01*
X116788510Y-65836800D01*
X116535891Y-65836800D01*
X116054090Y-65836800D01*
X115454612Y-65237322D01*
X115684526Y-64893234D01*
X115798600Y-64319745D01*
X115798600Y-63950255D01*
X115684526Y-63376766D01*
X115359670Y-62890585D01*
X114873489Y-62565729D01*
X114300000Y-62451655D01*
X113726511Y-62565729D01*
X113240330Y-62890585D01*
X113030000Y-63205365D01*
X112819670Y-62890585D01*
X112333489Y-62565729D01*
X111760000Y-62451655D01*
X111186511Y-62565729D01*
X110700330Y-62890585D01*
X110490000Y-63205365D01*
X110279670Y-62890585D01*
X109793489Y-62565729D01*
X109220000Y-62451655D01*
X108646511Y-62565729D01*
X108160330Y-62890585D01*
X107835474Y-63376766D01*
X107721400Y-63950255D01*
X107721400Y-64319745D01*
X107835474Y-64893234D01*
X108065387Y-65237322D01*
X107465910Y-65836800D01*
X106731491Y-65836800D01*
X106498102Y-65933473D01*
X106319473Y-66112101D01*
X106222800Y-66345490D01*
X106222800Y-66598109D01*
X106222800Y-67512509D01*
X106319473Y-67745898D01*
X106442374Y-67868800D01*
X105842491Y-67868800D01*
X105609102Y-67965473D01*
X105430473Y-68144101D01*
X105333800Y-68377490D01*
X105333800Y-68630109D01*
X105333800Y-69544509D01*
X105430473Y-69777898D01*
X105600500Y-69947925D01*
X105600500Y-70039809D01*
X105600500Y-71182809D01*
X105697173Y-71416198D01*
X105768000Y-71487025D01*
X105768000Y-74315096D01*
X105765378Y-74317714D01*
X105742421Y-74373000D01*
X98685000Y-74373000D01*
X98685000Y-59685000D01*
X197315000Y-59685000D01*
X197315000Y-74373000D01*
X197315000Y-74373000D01*
G37*
X197315000Y-74373000D02*
X194853437Y-74373000D01*
X195232542Y-73994557D01*
X195634542Y-73026433D01*
X195635457Y-71978166D01*
X195235147Y-71009342D01*
X194494557Y-70267458D01*
X193526433Y-69865458D01*
X192478166Y-69864543D01*
X191509342Y-70264853D01*
X190767458Y-71005443D01*
X190365458Y-71973567D01*
X190364543Y-73021834D01*
X190764853Y-73990658D01*
X191146528Y-74373000D01*
X174157872Y-74373000D01*
X174135689Y-74319311D01*
X174005000Y-74188393D01*
X174005000Y-73350158D01*
X174180158Y-73175000D01*
X178300000Y-73175000D01*
X178600406Y-73115245D01*
X178600407Y-73115245D01*
X178855079Y-72945079D01*
X179998079Y-71802079D01*
X180168245Y-71547407D01*
X180168245Y-71547406D01*
X180170590Y-71535615D01*
X180244801Y-71609827D01*
X180478190Y-71706500D01*
X180730809Y-71706500D01*
X181365809Y-71706500D01*
X181599198Y-71609827D01*
X181717952Y-71491073D01*
X181894332Y-71564313D01*
X182323784Y-71564687D01*
X182720689Y-71400689D01*
X183024622Y-71097286D01*
X183189313Y-70700668D01*
X183189687Y-70271216D01*
X183025689Y-69874311D01*
X183001643Y-69850223D01*
X183024622Y-69827286D01*
X183189313Y-69430668D01*
X183189687Y-69001216D01*
X183025689Y-68604311D01*
X183001643Y-68580223D01*
X183024622Y-68557286D01*
X183189313Y-68160668D01*
X183189687Y-67731216D01*
X183025689Y-67334311D01*
X182722286Y-67030378D01*
X182325668Y-66865687D01*
X181896216Y-66865313D01*
X181499311Y-67029311D01*
X181252200Y-67275991D01*
X181252200Y-67214891D01*
X181252200Y-66300491D01*
X181155527Y-66067102D01*
X180976899Y-65888473D01*
X180743510Y-65791800D01*
X180490891Y-65791800D01*
X180009090Y-65791800D01*
X179362664Y-65145374D01*
X179554526Y-64858234D01*
X179668600Y-64284745D01*
X179668600Y-63915255D01*
X179554526Y-63341766D01*
X179229670Y-62855585D01*
X178743489Y-62530729D01*
X178170000Y-62416655D01*
X177596511Y-62530729D01*
X177110330Y-62855585D01*
X176900000Y-63170365D01*
X176689670Y-62855585D01*
X176203489Y-62530729D01*
X175630000Y-62416655D01*
X175056511Y-62530729D01*
X174570330Y-62855585D01*
X174360000Y-63170365D01*
X174149670Y-62855585D01*
X173663489Y-62530729D01*
X173090000Y-62416655D01*
X172516511Y-62530729D01*
X172030330Y-62855585D01*
X171705474Y-63341766D01*
X171591400Y-63915255D01*
X171591400Y-64284745D01*
X171705474Y-64858234D01*
X172001476Y-65301233D01*
X171510910Y-65791800D01*
X170776491Y-65791800D01*
X170543102Y-65888473D01*
X170364473Y-66067101D01*
X170267800Y-66300490D01*
X170267800Y-66553109D01*
X170267800Y-67467509D01*
X170364473Y-67700898D01*
X170487374Y-67823800D01*
X169887491Y-67823800D01*
X169654102Y-67920473D01*
X169475473Y-68099101D01*
X169378800Y-68332490D01*
X169378800Y-68585109D01*
X169378800Y-69499509D01*
X169475473Y-69732898D01*
X169641000Y-69898425D01*
X169641000Y-70358000D01*
X169645500Y-70380622D01*
X169645500Y-71197809D01*
X169742173Y-71431198D01*
X169768000Y-71457025D01*
X169768000Y-74315096D01*
X169765378Y-74317714D01*
X169742421Y-74373000D01*
X158157872Y-74373000D01*
X158135689Y-74319311D01*
X158005000Y-74188393D01*
X158005000Y-73350158D01*
X158180158Y-73175000D01*
X162300000Y-73175000D01*
X162600406Y-73115245D01*
X162600407Y-73115245D01*
X162855079Y-72945079D01*
X163998079Y-71802079D01*
X164168245Y-71547407D01*
X164168245Y-71547406D01*
X164170590Y-71535615D01*
X164244801Y-71609827D01*
X164478190Y-71706500D01*
X164730809Y-71706500D01*
X165365809Y-71706500D01*
X165599198Y-71609827D01*
X165717952Y-71491073D01*
X165894332Y-71564313D01*
X166323784Y-71564687D01*
X166720689Y-71400689D01*
X167024622Y-71097286D01*
X167189313Y-70700668D01*
X167189687Y-70271216D01*
X167025689Y-69874311D01*
X167001643Y-69850223D01*
X167024622Y-69827286D01*
X167189313Y-69430668D01*
X167189687Y-69001216D01*
X167025689Y-68604311D01*
X167001643Y-68580223D01*
X167024622Y-68557286D01*
X167189313Y-68160668D01*
X167189687Y-67731216D01*
X167025689Y-67334311D01*
X166722286Y-67030378D01*
X166325668Y-66865687D01*
X165896216Y-66865313D01*
X165499311Y-67029311D01*
X165252200Y-67275991D01*
X165252200Y-67214891D01*
X165252200Y-66300491D01*
X165155527Y-66067102D01*
X164976899Y-65888473D01*
X164743510Y-65791800D01*
X164490891Y-65791800D01*
X164009090Y-65791800D01*
X163482555Y-65265265D01*
X163754526Y-64858234D01*
X163868600Y-64284745D01*
X163868600Y-63915255D01*
X163754526Y-63341766D01*
X163429670Y-62855585D01*
X162943489Y-62530729D01*
X162370000Y-62416655D01*
X161796511Y-62530729D01*
X161310330Y-62855585D01*
X161100000Y-63170365D01*
X160889670Y-62855585D01*
X160403489Y-62530729D01*
X159830000Y-62416655D01*
X159256511Y-62530729D01*
X158770330Y-62855585D01*
X158560000Y-63170365D01*
X158349670Y-62855585D01*
X157863489Y-62530729D01*
X157290000Y-62416655D01*
X156716511Y-62530729D01*
X156230330Y-62855585D01*
X155905474Y-63341766D01*
X155791400Y-63915255D01*
X155791400Y-64284745D01*
X155905474Y-64858234D01*
X156121368Y-65181341D01*
X155510910Y-65791800D01*
X154776491Y-65791800D01*
X154543102Y-65888473D01*
X154364473Y-66067101D01*
X154267800Y-66300490D01*
X154267800Y-66553109D01*
X154267800Y-67467509D01*
X154364473Y-67700898D01*
X154487374Y-67823800D01*
X153887491Y-67823800D01*
X153654102Y-67920473D01*
X153475473Y-68099101D01*
X153378800Y-68332490D01*
X153378800Y-68585109D01*
X153378800Y-69499509D01*
X153475473Y-69732898D01*
X153641000Y-69898425D01*
X153641000Y-70358000D01*
X153645500Y-70380622D01*
X153645500Y-71197809D01*
X153742173Y-71431198D01*
X153768000Y-71457025D01*
X153768000Y-74315096D01*
X153765378Y-74317714D01*
X153742421Y-74373000D01*
X142157872Y-74373000D01*
X142135689Y-74319311D01*
X142005000Y-74188393D01*
X142005000Y-73350158D01*
X142180158Y-73175000D01*
X146300000Y-73175000D01*
X146600406Y-73115245D01*
X146600407Y-73115245D01*
X146855079Y-72945079D01*
X147998079Y-71802079D01*
X148168245Y-71547407D01*
X148168245Y-71547406D01*
X148170590Y-71535615D01*
X148244801Y-71609827D01*
X148478190Y-71706500D01*
X148730809Y-71706500D01*
X149365809Y-71706500D01*
X149599198Y-71609827D01*
X149717952Y-71491073D01*
X149894332Y-71564313D01*
X150323784Y-71564687D01*
X150720689Y-71400689D01*
X151024622Y-71097286D01*
X151189313Y-70700668D01*
X151189687Y-70271216D01*
X151025689Y-69874311D01*
X151001643Y-69850223D01*
X151024622Y-69827286D01*
X151189313Y-69430668D01*
X151189687Y-69001216D01*
X151025689Y-68604311D01*
X151001643Y-68580223D01*
X151024622Y-68557286D01*
X151189313Y-68160668D01*
X151189687Y-67731216D01*
X151025689Y-67334311D01*
X150722286Y-67030378D01*
X150325668Y-66865687D01*
X149896216Y-66865313D01*
X149499311Y-67029311D01*
X149252200Y-67275991D01*
X149252200Y-67214891D01*
X149252200Y-66300491D01*
X149155527Y-66067102D01*
X148976899Y-65888473D01*
X148743510Y-65791800D01*
X148490891Y-65791800D01*
X148009090Y-65791800D01*
X147362664Y-65145374D01*
X147554526Y-64858234D01*
X147668600Y-64284745D01*
X147668600Y-63915255D01*
X147554526Y-63341766D01*
X147229670Y-62855585D01*
X146743489Y-62530729D01*
X146170000Y-62416655D01*
X145596511Y-62530729D01*
X145110330Y-62855585D01*
X144900000Y-63170365D01*
X144689670Y-62855585D01*
X144203489Y-62530729D01*
X143630000Y-62416655D01*
X143056511Y-62530729D01*
X142570330Y-62855585D01*
X142360000Y-63170365D01*
X142149670Y-62855585D01*
X141663489Y-62530729D01*
X141090000Y-62416655D01*
X140516511Y-62530729D01*
X140030330Y-62855585D01*
X139705474Y-63341766D01*
X139591400Y-63915255D01*
X139591400Y-64284745D01*
X139705474Y-64858234D01*
X140001476Y-65301233D01*
X139510910Y-65791800D01*
X138776491Y-65791800D01*
X138543102Y-65888473D01*
X138364473Y-66067101D01*
X138267800Y-66300490D01*
X138267800Y-66553109D01*
X138267800Y-67467509D01*
X138364473Y-67700898D01*
X138487374Y-67823800D01*
X137887491Y-67823800D01*
X137654102Y-67920473D01*
X137475473Y-68099101D01*
X137378800Y-68332490D01*
X137378800Y-68585109D01*
X137378800Y-69499509D01*
X137475473Y-69732898D01*
X137641000Y-69898425D01*
X137641000Y-70358000D01*
X137645500Y-70380622D01*
X137645500Y-71197809D01*
X137742173Y-71431198D01*
X137768000Y-71457025D01*
X137768000Y-74315096D01*
X137765378Y-74317714D01*
X137742421Y-74373000D01*
X126157872Y-74373000D01*
X126135689Y-74319311D01*
X126005000Y-74188393D01*
X126005000Y-73350158D01*
X126180158Y-73175000D01*
X130300000Y-73175000D01*
X130600406Y-73115245D01*
X130600407Y-73115245D01*
X130855079Y-72945079D01*
X131998079Y-71802079D01*
X132168245Y-71547407D01*
X132168245Y-71547406D01*
X132170590Y-71535615D01*
X132244801Y-71609827D01*
X132478190Y-71706500D01*
X132730809Y-71706500D01*
X133365809Y-71706500D01*
X133599198Y-71609827D01*
X133717952Y-71491073D01*
X133894332Y-71564313D01*
X134323784Y-71564687D01*
X134720689Y-71400689D01*
X135024622Y-71097286D01*
X135189313Y-70700668D01*
X135189687Y-70271216D01*
X135025689Y-69874311D01*
X135001643Y-69850223D01*
X135024622Y-69827286D01*
X135189313Y-69430668D01*
X135189687Y-69001216D01*
X135025689Y-68604311D01*
X135001643Y-68580223D01*
X135024622Y-68557286D01*
X135189313Y-68160668D01*
X135189687Y-67731216D01*
X135025689Y-67334311D01*
X134722286Y-67030378D01*
X134325668Y-66865687D01*
X133896216Y-66865313D01*
X133499311Y-67029311D01*
X133252200Y-67275991D01*
X133252200Y-67214891D01*
X133252200Y-66300491D01*
X133155527Y-66067102D01*
X132976899Y-65888473D01*
X132743510Y-65791800D01*
X132490891Y-65791800D01*
X132009090Y-65791800D01*
X131482555Y-65265265D01*
X131754526Y-64858234D01*
X131868600Y-64284745D01*
X131868600Y-63915255D01*
X131754526Y-63341766D01*
X131429670Y-62855585D01*
X130943489Y-62530729D01*
X130370000Y-62416655D01*
X129796511Y-62530729D01*
X129310330Y-62855585D01*
X129100000Y-63170365D01*
X128889670Y-62855585D01*
X128403489Y-62530729D01*
X127830000Y-62416655D01*
X127256511Y-62530729D01*
X126770330Y-62855585D01*
X126560000Y-63170365D01*
X126349670Y-62855585D01*
X125863489Y-62530729D01*
X125290000Y-62416655D01*
X124716511Y-62530729D01*
X124230330Y-62855585D01*
X123905474Y-63341766D01*
X123791400Y-63915255D01*
X123791400Y-64284745D01*
X123905474Y-64858234D01*
X124121368Y-65181341D01*
X123510910Y-65791800D01*
X122776491Y-65791800D01*
X122543102Y-65888473D01*
X122364473Y-66067101D01*
X122267800Y-66300490D01*
X122267800Y-66553109D01*
X122267800Y-67467509D01*
X122364473Y-67700898D01*
X122487374Y-67823800D01*
X121887491Y-67823800D01*
X121654102Y-67920473D01*
X121475473Y-68099101D01*
X121378800Y-68332490D01*
X121378800Y-68585109D01*
X121378800Y-69499509D01*
X121475473Y-69732898D01*
X121641000Y-69898425D01*
X121641000Y-70358000D01*
X121645500Y-70380622D01*
X121645500Y-71197809D01*
X121742173Y-71431198D01*
X121768000Y-71457025D01*
X121768000Y-74315096D01*
X121765378Y-74317714D01*
X121742421Y-74373000D01*
X110157872Y-74373000D01*
X110135689Y-74319311D01*
X110005000Y-74188393D01*
X110005000Y-73350158D01*
X110180158Y-73175000D01*
X114300000Y-73175000D01*
X114600406Y-73115245D01*
X114600407Y-73115245D01*
X114855079Y-72945079D01*
X115998079Y-71802079D01*
X116168245Y-71547407D01*
X116168245Y-71547406D01*
X116168400Y-71546624D01*
X116204999Y-71510025D01*
X116289801Y-71594827D01*
X116523190Y-71691500D01*
X116775809Y-71691500D01*
X117410809Y-71691500D01*
X117644198Y-71594827D01*
X117739150Y-71499875D01*
X117894332Y-71564313D01*
X118323784Y-71564687D01*
X118720689Y-71400689D01*
X119024622Y-71097286D01*
X119189313Y-70700668D01*
X119189687Y-70271216D01*
X119025689Y-69874311D01*
X119001643Y-69850223D01*
X119024622Y-69827286D01*
X119189313Y-69430668D01*
X119189687Y-69001216D01*
X119025689Y-68604311D01*
X119001643Y-68580223D01*
X119024622Y-68557286D01*
X119189313Y-68160668D01*
X119189687Y-67731216D01*
X119025689Y-67334311D01*
X118722286Y-67030378D01*
X118325668Y-66865687D01*
X117896216Y-66865313D01*
X117499311Y-67029311D01*
X117297200Y-67231069D01*
X117297200Y-66345491D01*
X117200527Y-66112102D01*
X117021899Y-65933473D01*
X116788510Y-65836800D01*
X116535891Y-65836800D01*
X116054090Y-65836800D01*
X115454612Y-65237322D01*
X115684526Y-64893234D01*
X115798600Y-64319745D01*
X115798600Y-63950255D01*
X115684526Y-63376766D01*
X115359670Y-62890585D01*
X114873489Y-62565729D01*
X114300000Y-62451655D01*
X113726511Y-62565729D01*
X113240330Y-62890585D01*
X113030000Y-63205365D01*
X112819670Y-62890585D01*
X112333489Y-62565729D01*
X111760000Y-62451655D01*
X111186511Y-62565729D01*
X110700330Y-62890585D01*
X110490000Y-63205365D01*
X110279670Y-62890585D01*
X109793489Y-62565729D01*
X109220000Y-62451655D01*
X108646511Y-62565729D01*
X108160330Y-62890585D01*
X107835474Y-63376766D01*
X107721400Y-63950255D01*
X107721400Y-64319745D01*
X107835474Y-64893234D01*
X108065387Y-65237322D01*
X107465910Y-65836800D01*
X106731491Y-65836800D01*
X106498102Y-65933473D01*
X106319473Y-66112101D01*
X106222800Y-66345490D01*
X106222800Y-66598109D01*
X106222800Y-67512509D01*
X106319473Y-67745898D01*
X106442374Y-67868800D01*
X105842491Y-67868800D01*
X105609102Y-67965473D01*
X105430473Y-68144101D01*
X105333800Y-68377490D01*
X105333800Y-68630109D01*
X105333800Y-69544509D01*
X105430473Y-69777898D01*
X105600500Y-69947925D01*
X105600500Y-70039809D01*
X105600500Y-71182809D01*
X105697173Y-71416198D01*
X105768000Y-71487025D01*
X105768000Y-74315096D01*
X105765378Y-74317714D01*
X105742421Y-74373000D01*
X98685000Y-74373000D01*
X98685000Y-59685000D01*
X197315000Y-59685000D01*
X197315000Y-74373000D01*
G36*
X127506166Y-90485000D02*
X127505905Y-90785082D01*
X127374760Y-90784968D01*
X126977855Y-90948966D01*
X126673922Y-91252369D01*
X126509231Y-91648987D01*
X126508857Y-92078439D01*
X126672855Y-92475344D01*
X126835827Y-92638601D01*
X105524968Y-92638601D01*
X105524968Y-91930973D01*
X105276821Y-91401510D01*
X104844947Y-91007312D01*
X104429026Y-90835042D01*
X104197000Y-90956183D01*
X104197000Y-92163000D01*
X105404469Y-92163000D01*
X105524968Y-91930973D01*
X105524968Y-92638601D01*
X105519553Y-92638601D01*
X105404469Y-92417000D01*
X104197000Y-92417000D01*
X104197000Y-92437000D01*
X103943000Y-92437000D01*
X103943000Y-92417000D01*
X103923000Y-92417000D01*
X103923000Y-92163000D01*
X103943000Y-92163000D01*
X103943000Y-90956183D01*
X103710974Y-90835042D01*
X103295053Y-91007312D01*
X103013700Y-91264119D01*
X102931927Y-91066702D01*
X102753299Y-90888073D01*
X102519910Y-90791400D01*
X102267291Y-90791400D01*
X100540091Y-90791400D01*
X100306702Y-90888073D01*
X100128073Y-91066701D01*
X100031400Y-91300090D01*
X100031400Y-91552709D01*
X100031400Y-93279909D01*
X100128073Y-93513298D01*
X100306701Y-93691927D01*
X100460526Y-93755643D01*
X100145474Y-94227152D01*
X100031400Y-94800641D01*
X100031400Y-94859359D01*
X100145474Y-95432848D01*
X100470330Y-95919029D01*
X100741172Y-96100000D01*
X100470330Y-96280971D01*
X100145474Y-96767152D01*
X100031400Y-97340641D01*
X100031400Y-97399359D01*
X100145474Y-97972848D01*
X100470330Y-98459029D01*
X100741172Y-98640000D01*
X100470330Y-98820971D01*
X100145474Y-99307152D01*
X100031400Y-99880641D01*
X100031400Y-99939359D01*
X100145474Y-100512848D01*
X100470330Y-100999029D01*
X100956511Y-101323885D01*
X101530000Y-101437959D01*
X102103489Y-101323885D01*
X102589670Y-100999029D01*
X102800000Y-100684248D01*
X103010330Y-100999029D01*
X103496511Y-101323885D01*
X104070000Y-101437959D01*
X104643489Y-101323885D01*
X105129670Y-100999029D01*
X105439151Y-100535857D01*
X105439152Y-100535856D01*
X105545079Y-100465079D01*
X109425158Y-96585000D01*
X122815000Y-96585000D01*
X122815000Y-98674842D01*
X122769369Y-98720472D01*
X122586216Y-98720313D01*
X122189311Y-98884311D01*
X121885378Y-99187714D01*
X121720687Y-99584332D01*
X121720313Y-100013784D01*
X121720815Y-100015000D01*
X117274000Y-100015000D01*
X116973593Y-100074755D01*
X116718921Y-100244921D01*
X115434921Y-101528921D01*
X115264755Y-101783593D01*
X115230680Y-101954897D01*
X114930330Y-102155585D01*
X114915500Y-102177779D01*
X114851927Y-102024301D01*
X114673298Y-101845673D01*
X114439909Y-101749000D01*
X113735750Y-101749000D01*
X113577000Y-101907750D01*
X113577000Y-103273000D01*
X113597000Y-103273000D01*
X113597000Y-103527000D01*
X113577000Y-103527000D01*
X113577000Y-104892250D01*
X113735750Y-105051000D01*
X114439909Y-105051000D01*
X114673298Y-104954327D01*
X114851927Y-104775699D01*
X114915500Y-104622220D01*
X114930330Y-104644415D01*
X115416511Y-104969271D01*
X115990000Y-105083345D01*
X116563489Y-104969271D01*
X117049670Y-104644415D01*
X117260000Y-104329634D01*
X117470330Y-104644415D01*
X117956511Y-104969271D01*
X118530000Y-105083345D01*
X119103489Y-104969271D01*
X119589670Y-104644415D01*
X119800000Y-104329634D01*
X120010330Y-104644415D01*
X120496511Y-104969271D01*
X121070000Y-105083345D01*
X121420973Y-105013531D01*
X124722441Y-108315000D01*
X113323000Y-108315000D01*
X113323000Y-104892250D01*
X113323000Y-103527000D01*
X113323000Y-103273000D01*
X113323000Y-101907750D01*
X113164250Y-101749000D01*
X112460091Y-101749000D01*
X112226702Y-101845673D01*
X112048073Y-102024301D01*
X111951400Y-102257690D01*
X111951400Y-102510309D01*
X111951400Y-103114250D01*
X112110150Y-103273000D01*
X113323000Y-103273000D01*
X113323000Y-103527000D01*
X112110150Y-103527000D01*
X111951400Y-103685750D01*
X111951400Y-104289691D01*
X111951400Y-104542310D01*
X112048073Y-104775699D01*
X112226702Y-104954327D01*
X112460091Y-105051000D01*
X113164250Y-105051000D01*
X113323000Y-104892250D01*
X113323000Y-108315000D01*
X98685000Y-108315000D01*
X98685000Y-89127000D01*
X116469064Y-89127000D01*
X116320687Y-89484332D01*
X116320313Y-89913784D01*
X116484311Y-90310689D01*
X116787714Y-90614622D01*
X117184332Y-90779313D01*
X117613784Y-90779687D01*
X118010689Y-90615689D01*
X118149976Y-90476644D01*
X118287714Y-90614622D01*
X118684332Y-90779313D01*
X119113784Y-90779687D01*
X119510689Y-90615689D01*
X119641606Y-90485000D01*
X127506166Y-90485000D01*
X127506166Y-90485000D01*
G37*
X127506166Y-90485000D02*
X127505905Y-90785082D01*
X127374760Y-90784968D01*
X126977855Y-90948966D01*
X126673922Y-91252369D01*
X126509231Y-91648987D01*
X126508857Y-92078439D01*
X126672855Y-92475344D01*
X126835827Y-92638601D01*
X105524968Y-92638601D01*
X105524968Y-91930973D01*
X105276821Y-91401510D01*
X104844947Y-91007312D01*
X104429026Y-90835042D01*
X104197000Y-90956183D01*
X104197000Y-92163000D01*
X105404469Y-92163000D01*
X105524968Y-91930973D01*
X105524968Y-92638601D01*
X105519553Y-92638601D01*
X105404469Y-92417000D01*
X104197000Y-92417000D01*
X104197000Y-92437000D01*
X103943000Y-92437000D01*
X103943000Y-92417000D01*
X103923000Y-92417000D01*
X103923000Y-92163000D01*
X103943000Y-92163000D01*
X103943000Y-90956183D01*
X103710974Y-90835042D01*
X103295053Y-91007312D01*
X103013700Y-91264119D01*
X102931927Y-91066702D01*
X102753299Y-90888073D01*
X102519910Y-90791400D01*
X102267291Y-90791400D01*
X100540091Y-90791400D01*
X100306702Y-90888073D01*
X100128073Y-91066701D01*
X100031400Y-91300090D01*
X100031400Y-91552709D01*
X100031400Y-93279909D01*
X100128073Y-93513298D01*
X100306701Y-93691927D01*
X100460526Y-93755643D01*
X100145474Y-94227152D01*
X100031400Y-94800641D01*
X100031400Y-94859359D01*
X100145474Y-95432848D01*
X100470330Y-95919029D01*
X100741172Y-96100000D01*
X100470330Y-96280971D01*
X100145474Y-96767152D01*
X100031400Y-97340641D01*
X100031400Y-97399359D01*
X100145474Y-97972848D01*
X100470330Y-98459029D01*
X100741172Y-98640000D01*
X100470330Y-98820971D01*
X100145474Y-99307152D01*
X100031400Y-99880641D01*
X100031400Y-99939359D01*
X100145474Y-100512848D01*
X100470330Y-100999029D01*
X100956511Y-101323885D01*
X101530000Y-101437959D01*
X102103489Y-101323885D01*
X102589670Y-100999029D01*
X102800000Y-100684248D01*
X103010330Y-100999029D01*
X103496511Y-101323885D01*
X104070000Y-101437959D01*
X104643489Y-101323885D01*
X105129670Y-100999029D01*
X105439151Y-100535857D01*
X105439152Y-100535856D01*
X105545079Y-100465079D01*
X109425158Y-96585000D01*
X122815000Y-96585000D01*
X122815000Y-98674842D01*
X122769369Y-98720472D01*
X122586216Y-98720313D01*
X122189311Y-98884311D01*
X121885378Y-99187714D01*
X121720687Y-99584332D01*
X121720313Y-100013784D01*
X121720815Y-100015000D01*
X117274000Y-100015000D01*
X116973593Y-100074755D01*
X116718921Y-100244921D01*
X115434921Y-101528921D01*
X115264755Y-101783593D01*
X115230680Y-101954897D01*
X114930330Y-102155585D01*
X114915500Y-102177779D01*
X114851927Y-102024301D01*
X114673298Y-101845673D01*
X114439909Y-101749000D01*
X113735750Y-101749000D01*
X113577000Y-101907750D01*
X113577000Y-103273000D01*
X113597000Y-103273000D01*
X113597000Y-103527000D01*
X113577000Y-103527000D01*
X113577000Y-104892250D01*
X113735750Y-105051000D01*
X114439909Y-105051000D01*
X114673298Y-104954327D01*
X114851927Y-104775699D01*
X114915500Y-104622220D01*
X114930330Y-104644415D01*
X115416511Y-104969271D01*
X115990000Y-105083345D01*
X116563489Y-104969271D01*
X117049670Y-104644415D01*
X117260000Y-104329634D01*
X117470330Y-104644415D01*
X117956511Y-104969271D01*
X118530000Y-105083345D01*
X119103489Y-104969271D01*
X119589670Y-104644415D01*
X119800000Y-104329634D01*
X120010330Y-104644415D01*
X120496511Y-104969271D01*
X121070000Y-105083345D01*
X121420973Y-105013531D01*
X124722441Y-108315000D01*
X113323000Y-108315000D01*
X113323000Y-104892250D01*
X113323000Y-103527000D01*
X113323000Y-103273000D01*
X113323000Y-101907750D01*
X113164250Y-101749000D01*
X112460091Y-101749000D01*
X112226702Y-101845673D01*
X112048073Y-102024301D01*
X111951400Y-102257690D01*
X111951400Y-102510309D01*
X111951400Y-103114250D01*
X112110150Y-103273000D01*
X113323000Y-103273000D01*
X113323000Y-103527000D01*
X112110150Y-103527000D01*
X111951400Y-103685750D01*
X111951400Y-104289691D01*
X111951400Y-104542310D01*
X112048073Y-104775699D01*
X112226702Y-104954327D01*
X112460091Y-105051000D01*
X113164250Y-105051000D01*
X113323000Y-104892250D01*
X113323000Y-108315000D01*
X98685000Y-108315000D01*
X98685000Y-89127000D01*
X116469064Y-89127000D01*
X116320687Y-89484332D01*
X116320313Y-89913784D01*
X116484311Y-90310689D01*
X116787714Y-90614622D01*
X117184332Y-90779313D01*
X117613784Y-90779687D01*
X118010689Y-90615689D01*
X118149976Y-90476644D01*
X118287714Y-90614622D01*
X118684332Y-90779313D01*
X119113784Y-90779687D01*
X119510689Y-90615689D01*
X119641606Y-90485000D01*
X127506166Y-90485000D01*
G36*
X138315000Y-91258318D02*
X138185378Y-91387714D01*
X138076563Y-91649767D01*
X138012286Y-91585378D01*
X137615668Y-91420687D01*
X137186216Y-91420313D01*
X136789311Y-91584311D01*
X136617462Y-91755859D01*
X135016294Y-90154691D01*
X135110689Y-90115689D01*
X135414622Y-89812286D01*
X135527477Y-89540501D01*
X136830343Y-89540501D01*
X138315000Y-91025158D01*
X138315000Y-91258318D01*
X138315000Y-91258318D01*
G37*
X138315000Y-91258318D02*
X138185378Y-91387714D01*
X138076563Y-91649767D01*
X138012286Y-91585378D01*
X137615668Y-91420687D01*
X137186216Y-91420313D01*
X136789311Y-91584311D01*
X136617462Y-91755859D01*
X135016294Y-90154691D01*
X135110689Y-90115689D01*
X135414622Y-89812286D01*
X135527477Y-89540501D01*
X136830343Y-89540501D01*
X138315000Y-91025158D01*
X138315000Y-91258318D01*
G36*
X146680049Y-96900000D02*
X146651801Y-96928248D01*
X146476607Y-97103442D01*
X146446563Y-97133486D01*
X146439867Y-97140182D01*
X146346995Y-97364393D01*
X146122786Y-97457263D01*
X146116089Y-97463960D01*
X146086045Y-97494004D01*
X145944157Y-97635892D01*
X145768964Y-97811085D01*
X145732223Y-97847826D01*
X145590335Y-97989714D01*
X145378401Y-98201648D01*
X145378400Y-98201649D01*
X145236513Y-98343537D01*
X145061320Y-98518730D01*
X145024579Y-98555471D01*
X144882691Y-98697359D01*
X144709294Y-98870756D01*
X144670757Y-98909293D01*
X144530665Y-99049385D01*
X144435209Y-99144840D01*
X144574071Y-98810426D01*
X144574445Y-98380974D01*
X144410447Y-97984069D01*
X144107044Y-97680136D01*
X143710426Y-97515445D01*
X143280974Y-97515071D01*
X142884069Y-97679069D01*
X142580136Y-97982472D01*
X142415445Y-98379090D01*
X142415071Y-98808542D01*
X142579069Y-99205447D01*
X142709758Y-99336364D01*
X142709758Y-99720420D01*
X142586216Y-99720313D01*
X142189311Y-99884311D01*
X141946574Y-100126623D01*
X141788915Y-99968964D01*
X141766969Y-99947018D01*
X141803996Y-99891605D01*
X141861999Y-99600000D01*
X141862000Y-99600000D01*
X141862000Y-98500000D01*
X141803996Y-98208395D01*
X141638815Y-97961185D01*
X141638815Y-97961184D01*
X141479499Y-97801868D01*
X141479687Y-97586216D01*
X141315689Y-97189311D01*
X141012286Y-96885378D01*
X140615668Y-96720687D01*
X140186216Y-96720313D01*
X139789311Y-96884311D01*
X139485378Y-97187714D01*
X139345214Y-97525263D01*
X139313956Y-97494005D01*
X139277215Y-97457264D01*
X139135327Y-97315376D01*
X138960134Y-97140183D01*
X138923393Y-97103442D01*
X138781505Y-96961554D01*
X138719951Y-96900000D01*
X138748199Y-96871752D01*
X138923392Y-96696559D01*
X138960133Y-96659818D01*
X139102021Y-96517930D01*
X139277214Y-96342737D01*
X139313955Y-96305996D01*
X139455843Y-96164108D01*
X139631036Y-95988915D01*
X139667777Y-95952174D01*
X139809665Y-95810286D01*
X139984859Y-95635091D01*
X140014903Y-95605047D01*
X140021599Y-95598352D01*
X140114470Y-95374139D01*
X140338680Y-95281270D01*
X140345377Y-95274573D01*
X140375421Y-95244529D01*
X140517309Y-95102641D01*
X140690706Y-94929244D01*
X140729243Y-94890707D01*
X140869335Y-94750615D01*
X141044528Y-94575422D01*
X141081269Y-94538681D01*
X141223157Y-94396793D01*
X141398349Y-94221600D01*
X141398351Y-94221600D01*
X141435091Y-94184859D01*
X141576980Y-94042971D01*
X141752173Y-93867778D01*
X141788914Y-93831037D01*
X141930802Y-93689149D01*
X142105995Y-93513956D01*
X142142736Y-93477215D01*
X142284624Y-93335327D01*
X142459817Y-93160134D01*
X142496558Y-93123393D01*
X142638446Y-92981505D01*
X142700000Y-92919951D01*
X142728248Y-92948199D01*
X142903441Y-93123392D01*
X142933486Y-93153437D01*
X142940182Y-93160133D01*
X143164393Y-93253004D01*
X143257263Y-93477214D01*
X143263960Y-93483911D01*
X143294005Y-93513956D01*
X143435892Y-93655843D01*
X143611085Y-93831036D01*
X143647826Y-93867777D01*
X143789714Y-94009665D01*
X144001648Y-94221599D01*
X144001649Y-94221599D01*
X144143537Y-94363487D01*
X144318730Y-94538680D01*
X144355471Y-94575421D01*
X144497359Y-94717309D01*
X144670756Y-94890706D01*
X144709293Y-94929243D01*
X144849385Y-95069335D01*
X145024578Y-95244528D01*
X145061319Y-95281269D01*
X145203207Y-95423157D01*
X145378399Y-95598349D01*
X145378400Y-95598351D01*
X145557029Y-95776980D01*
X145732222Y-95952173D01*
X145768963Y-95988914D01*
X145910851Y-96130802D01*
X146086044Y-96305995D01*
X146122785Y-96342736D01*
X146264673Y-96484624D01*
X146439866Y-96659817D01*
X146476607Y-96696558D01*
X146618495Y-96838446D01*
X146680049Y-96900000D01*
X146680049Y-96900000D01*
G37*
X146680049Y-96900000D02*
X146651801Y-96928248D01*
X146476607Y-97103442D01*
X146446563Y-97133486D01*
X146439867Y-97140182D01*
X146346995Y-97364393D01*
X146122786Y-97457263D01*
X146116089Y-97463960D01*
X146086045Y-97494004D01*
X145944157Y-97635892D01*
X145768964Y-97811085D01*
X145732223Y-97847826D01*
X145590335Y-97989714D01*
X145378401Y-98201648D01*
X145378400Y-98201649D01*
X145236513Y-98343537D01*
X145061320Y-98518730D01*
X145024579Y-98555471D01*
X144882691Y-98697359D01*
X144709294Y-98870756D01*
X144670757Y-98909293D01*
X144530665Y-99049385D01*
X144435209Y-99144840D01*
X144574071Y-98810426D01*
X144574445Y-98380974D01*
X144410447Y-97984069D01*
X144107044Y-97680136D01*
X143710426Y-97515445D01*
X143280974Y-97515071D01*
X142884069Y-97679069D01*
X142580136Y-97982472D01*
X142415445Y-98379090D01*
X142415071Y-98808542D01*
X142579069Y-99205447D01*
X142709758Y-99336364D01*
X142709758Y-99720420D01*
X142586216Y-99720313D01*
X142189311Y-99884311D01*
X141946574Y-100126623D01*
X141788915Y-99968964D01*
X141766969Y-99947018D01*
X141803996Y-99891605D01*
X141861999Y-99600000D01*
X141862000Y-99600000D01*
X141862000Y-98500000D01*
X141803996Y-98208395D01*
X141638815Y-97961185D01*
X141638815Y-97961184D01*
X141479499Y-97801868D01*
X141479687Y-97586216D01*
X141315689Y-97189311D01*
X141012286Y-96885378D01*
X140615668Y-96720687D01*
X140186216Y-96720313D01*
X139789311Y-96884311D01*
X139485378Y-97187714D01*
X139345214Y-97525263D01*
X139313956Y-97494005D01*
X139277215Y-97457264D01*
X139135327Y-97315376D01*
X138960134Y-97140183D01*
X138923393Y-97103442D01*
X138781505Y-96961554D01*
X138719951Y-96900000D01*
X138748199Y-96871752D01*
X138923392Y-96696559D01*
X138960133Y-96659818D01*
X139102021Y-96517930D01*
X139277214Y-96342737D01*
X139313955Y-96305996D01*
X139455843Y-96164108D01*
X139631036Y-95988915D01*
X139667777Y-95952174D01*
X139809665Y-95810286D01*
X139984859Y-95635091D01*
X140014903Y-95605047D01*
X140021599Y-95598352D01*
X140114470Y-95374139D01*
X140338680Y-95281270D01*
X140345377Y-95274573D01*
X140375421Y-95244529D01*
X140517309Y-95102641D01*
X140690706Y-94929244D01*
X140729243Y-94890707D01*
X140869335Y-94750615D01*
X141044528Y-94575422D01*
X141081269Y-94538681D01*
X141223157Y-94396793D01*
X141398349Y-94221600D01*
X141398351Y-94221600D01*
X141435091Y-94184859D01*
X141576980Y-94042971D01*
X141752173Y-93867778D01*
X141788914Y-93831037D01*
X141930802Y-93689149D01*
X142105995Y-93513956D01*
X142142736Y-93477215D01*
X142284624Y-93335327D01*
X142459817Y-93160134D01*
X142496558Y-93123393D01*
X142638446Y-92981505D01*
X142700000Y-92919951D01*
X142728248Y-92948199D01*
X142903441Y-93123392D01*
X142933486Y-93153437D01*
X142940182Y-93160133D01*
X143164393Y-93253004D01*
X143257263Y-93477214D01*
X143263960Y-93483911D01*
X143294005Y-93513956D01*
X143435892Y-93655843D01*
X143611085Y-93831036D01*
X143647826Y-93867777D01*
X143789714Y-94009665D01*
X144001648Y-94221599D01*
X144001649Y-94221599D01*
X144143537Y-94363487D01*
X144318730Y-94538680D01*
X144355471Y-94575421D01*
X144497359Y-94717309D01*
X144670756Y-94890706D01*
X144709293Y-94929243D01*
X144849385Y-95069335D01*
X145024578Y-95244528D01*
X145061319Y-95281269D01*
X145203207Y-95423157D01*
X145378399Y-95598349D01*
X145378400Y-95598351D01*
X145557029Y-95776980D01*
X145732222Y-95952173D01*
X145768963Y-95988914D01*
X145910851Y-96130802D01*
X146086044Y-96305995D01*
X146122785Y-96342736D01*
X146264673Y-96484624D01*
X146439866Y-96659817D01*
X146476607Y-96696558D01*
X146618495Y-96838446D01*
X146680049Y-96900000D01*
G36*
X197315000Y-108315000D02*
X171049000Y-108315000D01*
X171049000Y-99955110D01*
X171049000Y-99702491D01*
X171049000Y-96044891D01*
X170952327Y-95811502D01*
X170773699Y-95632873D01*
X170540310Y-95536200D01*
X170287691Y-95536200D01*
X168255691Y-95536200D01*
X168022302Y-95632873D01*
X167843673Y-95811501D01*
X167747000Y-96044890D01*
X167747000Y-96297509D01*
X167747000Y-99955109D01*
X167843673Y-100188498D01*
X168022301Y-100367127D01*
X168255690Y-100463800D01*
X168508309Y-100463800D01*
X170540309Y-100463800D01*
X170773698Y-100367127D01*
X170952327Y-100188499D01*
X171049000Y-99955110D01*
X171049000Y-108315000D01*
X141797416Y-108315000D01*
X143047446Y-107064969D01*
X143230600Y-107065129D01*
X143627505Y-106901131D01*
X143931438Y-106597728D01*
X143985841Y-106466709D01*
X144609566Y-107090434D01*
X144880459Y-107271439D01*
X144880460Y-107271439D01*
X145200000Y-107335000D01*
X146331462Y-107335000D01*
X146651002Y-107271439D01*
X146651003Y-107271439D01*
X146921896Y-107090434D01*
X149254935Y-104757395D01*
X149435940Y-104486502D01*
X149435940Y-104486501D01*
X149438450Y-104473879D01*
X150142837Y-103769492D01*
X150287714Y-103914622D01*
X150684332Y-104079313D01*
X150869316Y-104079474D01*
X152800422Y-106010580D01*
X153045268Y-106174179D01*
X153184311Y-106510689D01*
X153487714Y-106814622D01*
X153884332Y-106979313D01*
X154313784Y-106979687D01*
X154710689Y-106815689D01*
X155014622Y-106512286D01*
X155065965Y-106388638D01*
X155284332Y-106479313D01*
X155713784Y-106479687D01*
X156110689Y-106315689D01*
X156414622Y-106012286D01*
X156579313Y-105615668D01*
X156579687Y-105186216D01*
X156415689Y-104789311D01*
X156112286Y-104485378D01*
X155715668Y-104320687D01*
X155490954Y-104320491D01*
X155355908Y-104230256D01*
X155086904Y-104176747D01*
X153179527Y-102269369D01*
X153179687Y-102086216D01*
X153015689Y-101689311D01*
X152712286Y-101385378D01*
X152581329Y-101331000D01*
X161777330Y-92135000D01*
X174966150Y-92135000D01*
X174966150Y-92176879D01*
X175062823Y-92410268D01*
X175167000Y-92514445D01*
X175167000Y-94571000D01*
X174859691Y-94571000D01*
X174626302Y-94667673D01*
X174447673Y-94846301D01*
X174351000Y-95079690D01*
X174351000Y-95332309D01*
X174351000Y-96348309D01*
X174447673Y-96581698D01*
X174626301Y-96760327D01*
X174859690Y-96857000D01*
X174626301Y-96953673D01*
X174447673Y-97132302D01*
X174351000Y-97365691D01*
X174351000Y-97714250D01*
X174509750Y-97873000D01*
X175875000Y-97873000D01*
X175875000Y-97015750D01*
X175716250Y-96857000D01*
X176287750Y-96857000D01*
X176129000Y-97015750D01*
X176129000Y-97873000D01*
X177494250Y-97873000D01*
X177653000Y-97714250D01*
X177653000Y-97365691D01*
X177556327Y-97132302D01*
X177377699Y-96953673D01*
X177144310Y-96857000D01*
X177144309Y-96857000D01*
X177377698Y-96760327D01*
X177556327Y-96581699D01*
X177653000Y-96348310D01*
X177653000Y-96095691D01*
X177653000Y-95079691D01*
X177556327Y-94846302D01*
X177377699Y-94667673D01*
X177144310Y-94571000D01*
X176891691Y-94571000D01*
X176837000Y-94571000D01*
X176837000Y-92744888D01*
X176896318Y-92685570D01*
X178727199Y-92685570D01*
X178960588Y-92588897D01*
X179100000Y-92449485D01*
X179239412Y-92588897D01*
X179472801Y-92685570D01*
X180813230Y-92685570D01*
X180971980Y-92526820D01*
X180971980Y-91427000D01*
X180951980Y-91427000D01*
X180951980Y-91173000D01*
X180971980Y-91173000D01*
X180971980Y-90073180D01*
X180813230Y-89914430D01*
X179472801Y-89914430D01*
X179239412Y-90011103D01*
X179099999Y-90150514D01*
X178960589Y-90011103D01*
X178727200Y-89914430D01*
X178474581Y-89914430D01*
X175474841Y-89914430D01*
X175241452Y-90011103D01*
X175062823Y-90189731D01*
X174966150Y-90423120D01*
X174966150Y-90465000D01*
X162072278Y-90465000D01*
X162085259Y-90399741D01*
X162085259Y-89872086D01*
X162355447Y-89760447D01*
X162659380Y-89457044D01*
X162796426Y-89127000D01*
X191015000Y-89127000D01*
X191015000Y-90017000D01*
X189475691Y-90017000D01*
X189242302Y-90113673D01*
X189063673Y-90292301D01*
X188967000Y-90525690D01*
X188967000Y-90778309D01*
X188967000Y-96874309D01*
X189063673Y-97107698D01*
X189242301Y-97286327D01*
X189475690Y-97383000D01*
X189728309Y-97383000D01*
X190336132Y-97383000D01*
X188753272Y-98965860D01*
X188459000Y-98965860D01*
X188459000Y-96937809D01*
X188459000Y-96271750D01*
X188459000Y-95700250D01*
X188459000Y-95034191D01*
X188459000Y-92365809D01*
X188459000Y-91699750D01*
X188459000Y-91128250D01*
X188459000Y-90462191D01*
X188362327Y-90228802D01*
X188183699Y-90050173D01*
X187950310Y-89953500D01*
X187697691Y-89953500D01*
X186585750Y-89953500D01*
X186427000Y-90112250D01*
X186427000Y-91287000D01*
X188300250Y-91287000D01*
X188459000Y-91128250D01*
X188459000Y-91699750D01*
X188300250Y-91541000D01*
X186427000Y-91541000D01*
X186427000Y-92715750D01*
X186585750Y-92874500D01*
X187697691Y-92874500D01*
X187950310Y-92874500D01*
X188183699Y-92777827D01*
X188362327Y-92599198D01*
X188459000Y-92365809D01*
X188459000Y-95034191D01*
X188362327Y-94800802D01*
X188183699Y-94622173D01*
X187950310Y-94525500D01*
X187697691Y-94525500D01*
X186585750Y-94525500D01*
X186427000Y-94684250D01*
X186427000Y-95859000D01*
X188300250Y-95859000D01*
X188459000Y-95700250D01*
X188459000Y-96271750D01*
X188300250Y-96113000D01*
X186427000Y-96113000D01*
X186427000Y-97287750D01*
X186585750Y-97446500D01*
X187697691Y-97446500D01*
X187950310Y-97446500D01*
X188183699Y-97349827D01*
X188362327Y-97171198D01*
X188459000Y-96937809D01*
X188459000Y-98965860D01*
X186173000Y-98965860D01*
X186173000Y-97287750D01*
X186173000Y-96113000D01*
X186173000Y-95859000D01*
X186173000Y-94684250D01*
X186173000Y-92715750D01*
X186173000Y-91541000D01*
X186173000Y-91287000D01*
X186173000Y-90112250D01*
X186014250Y-89953500D01*
X184902309Y-89953500D01*
X184649690Y-89953500D01*
X184416301Y-90050173D01*
X184237673Y-90228802D01*
X184141000Y-90462191D01*
X184141000Y-91128250D01*
X184299750Y-91287000D01*
X186173000Y-91287000D01*
X186173000Y-91541000D01*
X184299750Y-91541000D01*
X184141000Y-91699750D01*
X184141000Y-92365809D01*
X184237673Y-92599198D01*
X184416301Y-92777827D01*
X184649690Y-92874500D01*
X184902309Y-92874500D01*
X186014250Y-92874500D01*
X186173000Y-92715750D01*
X186173000Y-94684250D01*
X186014250Y-94525500D01*
X184902309Y-94525500D01*
X184649690Y-94525500D01*
X184416301Y-94622173D01*
X184237673Y-94800802D01*
X184141000Y-95034191D01*
X184141000Y-95700250D01*
X184299750Y-95859000D01*
X186173000Y-95859000D01*
X186173000Y-96113000D01*
X184299750Y-96113000D01*
X184141000Y-96271750D01*
X184141000Y-96937809D01*
X184237673Y-97171198D01*
X184416301Y-97349827D01*
X184649690Y-97446500D01*
X184902309Y-97446500D01*
X186014250Y-97446500D01*
X186173000Y-97287750D01*
X186173000Y-98965860D01*
X183233850Y-98965860D01*
X183233850Y-92176880D01*
X183233850Y-91924261D01*
X183233850Y-91585750D01*
X183233850Y-91014250D01*
X183233850Y-90675739D01*
X183233850Y-90423120D01*
X183137177Y-90189731D01*
X182958548Y-90011103D01*
X182725159Y-89914430D01*
X181384730Y-89914430D01*
X181225980Y-90073180D01*
X181225980Y-91173000D01*
X183075100Y-91173000D01*
X183233850Y-91014250D01*
X183233850Y-91585750D01*
X183075100Y-91427000D01*
X181225980Y-91427000D01*
X181225980Y-92526820D01*
X181384730Y-92685570D01*
X182725159Y-92685570D01*
X182958548Y-92588897D01*
X183137177Y-92410269D01*
X183233850Y-92176880D01*
X183233850Y-98965860D01*
X182535100Y-98965860D01*
X182535100Y-98374071D01*
X182438427Y-98140682D01*
X182297745Y-98000000D01*
X182438427Y-97859318D01*
X182535100Y-97625929D01*
X182535100Y-96484890D01*
X182535100Y-95913390D01*
X182535100Y-94772351D01*
X182438427Y-94538962D01*
X182259799Y-94360333D01*
X182026410Y-94263660D01*
X181773791Y-94263660D01*
X181385750Y-94263660D01*
X181227000Y-94422410D01*
X181227000Y-96072140D01*
X182376350Y-96072140D01*
X182535100Y-95913390D01*
X182535100Y-96484890D01*
X182376350Y-96326140D01*
X181227000Y-96326140D01*
X181227000Y-96346140D01*
X180973000Y-96346140D01*
X180973000Y-96326140D01*
X180973000Y-96072140D01*
X180973000Y-94422410D01*
X180814250Y-94263660D01*
X180426209Y-94263660D01*
X180173590Y-94263660D01*
X179940201Y-94360333D01*
X179761573Y-94538962D01*
X179664900Y-94772351D01*
X179664900Y-95913390D01*
X179823650Y-96072140D01*
X180973000Y-96072140D01*
X180973000Y-96326140D01*
X179823650Y-96326140D01*
X179664900Y-96484890D01*
X179664900Y-97625929D01*
X179761573Y-97859318D01*
X179902254Y-98000000D01*
X179761573Y-98140681D01*
X179664900Y-98374070D01*
X179664900Y-98626689D01*
X179664900Y-99451000D01*
X177569870Y-99451000D01*
X177556327Y-99418302D01*
X177377699Y-99239673D01*
X177144310Y-99143000D01*
X177377699Y-99046327D01*
X177556327Y-98867698D01*
X177653000Y-98634309D01*
X177653000Y-98285750D01*
X177494250Y-98127000D01*
X176129000Y-98127000D01*
X176129000Y-98147000D01*
X175875000Y-98147000D01*
X175875000Y-98127000D01*
X174509750Y-98127000D01*
X174351000Y-98285750D01*
X174351000Y-98634309D01*
X174447673Y-98867698D01*
X174626301Y-99046327D01*
X174859690Y-99143000D01*
X174626302Y-99239673D01*
X174447673Y-99418301D01*
X174351000Y-99651690D01*
X174351000Y-99904309D01*
X174351000Y-100920309D01*
X174447673Y-101153698D01*
X174626301Y-101332327D01*
X174859690Y-101429000D01*
X175112309Y-101429000D01*
X177144309Y-101429000D01*
X177377698Y-101332327D01*
X177556327Y-101153699D01*
X177569871Y-101121000D01*
X179664900Y-101121000D01*
X179664900Y-101227649D01*
X179761573Y-101461038D01*
X179940201Y-101639667D01*
X180173590Y-101736340D01*
X180426209Y-101736340D01*
X182026409Y-101736340D01*
X182259798Y-101639667D01*
X182438427Y-101461039D01*
X182535100Y-101227650D01*
X182535100Y-100975031D01*
X182535100Y-100635860D01*
X189099140Y-100635860D01*
X189418680Y-100572299D01*
X189418681Y-100572299D01*
X189689574Y-100391294D01*
X192697868Y-97383000D01*
X195824309Y-97383000D01*
X196057698Y-97286327D01*
X196236327Y-97107699D01*
X196333000Y-96874310D01*
X196333000Y-96621691D01*
X196333000Y-90525691D01*
X196236327Y-90292302D01*
X196057699Y-90113673D01*
X195824310Y-90017000D01*
X195571691Y-90017000D01*
X194285000Y-90017000D01*
X194285000Y-89127000D01*
X197315000Y-89127000D01*
X197315000Y-108315000D01*
X197315000Y-108315000D01*
G37*
X197315000Y-108315000D02*
X171049000Y-108315000D01*
X171049000Y-99955110D01*
X171049000Y-99702491D01*
X171049000Y-96044891D01*
X170952327Y-95811502D01*
X170773699Y-95632873D01*
X170540310Y-95536200D01*
X170287691Y-95536200D01*
X168255691Y-95536200D01*
X168022302Y-95632873D01*
X167843673Y-95811501D01*
X167747000Y-96044890D01*
X167747000Y-96297509D01*
X167747000Y-99955109D01*
X167843673Y-100188498D01*
X168022301Y-100367127D01*
X168255690Y-100463800D01*
X168508309Y-100463800D01*
X170540309Y-100463800D01*
X170773698Y-100367127D01*
X170952327Y-100188499D01*
X171049000Y-99955110D01*
X171049000Y-108315000D01*
X141797416Y-108315000D01*
X143047446Y-107064969D01*
X143230600Y-107065129D01*
X143627505Y-106901131D01*
X143931438Y-106597728D01*
X143985841Y-106466709D01*
X144609566Y-107090434D01*
X144880459Y-107271439D01*
X144880460Y-107271439D01*
X145200000Y-107335000D01*
X146331462Y-107335000D01*
X146651002Y-107271439D01*
X146651003Y-107271439D01*
X146921896Y-107090434D01*
X149254935Y-104757395D01*
X149435940Y-104486502D01*
X149435940Y-104486501D01*
X149438450Y-104473879D01*
X150142837Y-103769492D01*
X150287714Y-103914622D01*
X150684332Y-104079313D01*
X150869316Y-104079474D01*
X152800422Y-106010580D01*
X153045268Y-106174179D01*
X153184311Y-106510689D01*
X153487714Y-106814622D01*
X153884332Y-106979313D01*
X154313784Y-106979687D01*
X154710689Y-106815689D01*
X155014622Y-106512286D01*
X155065965Y-106388638D01*
X155284332Y-106479313D01*
X155713784Y-106479687D01*
X156110689Y-106315689D01*
X156414622Y-106012286D01*
X156579313Y-105615668D01*
X156579687Y-105186216D01*
X156415689Y-104789311D01*
X156112286Y-104485378D01*
X155715668Y-104320687D01*
X155490954Y-104320491D01*
X155355908Y-104230256D01*
X155086904Y-104176747D01*
X153179527Y-102269369D01*
X153179687Y-102086216D01*
X153015689Y-101689311D01*
X152712286Y-101385378D01*
X152581329Y-101331000D01*
X161777330Y-92135000D01*
X174966150Y-92135000D01*
X174966150Y-92176879D01*
X175062823Y-92410268D01*
X175167000Y-92514445D01*
X175167000Y-94571000D01*
X174859691Y-94571000D01*
X174626302Y-94667673D01*
X174447673Y-94846301D01*
X174351000Y-95079690D01*
X174351000Y-95332309D01*
X174351000Y-96348309D01*
X174447673Y-96581698D01*
X174626301Y-96760327D01*
X174859690Y-96857000D01*
X174626301Y-96953673D01*
X174447673Y-97132302D01*
X174351000Y-97365691D01*
X174351000Y-97714250D01*
X174509750Y-97873000D01*
X175875000Y-97873000D01*
X175875000Y-97015750D01*
X175716250Y-96857000D01*
X176287750Y-96857000D01*
X176129000Y-97015750D01*
X176129000Y-97873000D01*
X177494250Y-97873000D01*
X177653000Y-97714250D01*
X177653000Y-97365691D01*
X177556327Y-97132302D01*
X177377699Y-96953673D01*
X177144310Y-96857000D01*
X177144309Y-96857000D01*
X177377698Y-96760327D01*
X177556327Y-96581699D01*
X177653000Y-96348310D01*
X177653000Y-96095691D01*
X177653000Y-95079691D01*
X177556327Y-94846302D01*
X177377699Y-94667673D01*
X177144310Y-94571000D01*
X176891691Y-94571000D01*
X176837000Y-94571000D01*
X176837000Y-92744888D01*
X176896318Y-92685570D01*
X178727199Y-92685570D01*
X178960588Y-92588897D01*
X179100000Y-92449485D01*
X179239412Y-92588897D01*
X179472801Y-92685570D01*
X180813230Y-92685570D01*
X180971980Y-92526820D01*
X180971980Y-91427000D01*
X180951980Y-91427000D01*
X180951980Y-91173000D01*
X180971980Y-91173000D01*
X180971980Y-90073180D01*
X180813230Y-89914430D01*
X179472801Y-89914430D01*
X179239412Y-90011103D01*
X179099999Y-90150514D01*
X178960589Y-90011103D01*
X178727200Y-89914430D01*
X178474581Y-89914430D01*
X175474841Y-89914430D01*
X175241452Y-90011103D01*
X175062823Y-90189731D01*
X174966150Y-90423120D01*
X174966150Y-90465000D01*
X162072278Y-90465000D01*
X162085259Y-90399741D01*
X162085259Y-89872086D01*
X162355447Y-89760447D01*
X162659380Y-89457044D01*
X162796426Y-89127000D01*
X191015000Y-89127000D01*
X191015000Y-90017000D01*
X189475691Y-90017000D01*
X189242302Y-90113673D01*
X189063673Y-90292301D01*
X188967000Y-90525690D01*
X188967000Y-90778309D01*
X188967000Y-96874309D01*
X189063673Y-97107698D01*
X189242301Y-97286327D01*
X189475690Y-97383000D01*
X189728309Y-97383000D01*
X190336132Y-97383000D01*
X188753272Y-98965860D01*
X188459000Y-98965860D01*
X188459000Y-96937809D01*
X188459000Y-96271750D01*
X188459000Y-95700250D01*
X188459000Y-95034191D01*
X188459000Y-92365809D01*
X188459000Y-91699750D01*
X188459000Y-91128250D01*
X188459000Y-90462191D01*
X188362327Y-90228802D01*
X188183699Y-90050173D01*
X187950310Y-89953500D01*
X187697691Y-89953500D01*
X186585750Y-89953500D01*
X186427000Y-90112250D01*
X186427000Y-91287000D01*
X188300250Y-91287000D01*
X188459000Y-91128250D01*
X188459000Y-91699750D01*
X188300250Y-91541000D01*
X186427000Y-91541000D01*
X186427000Y-92715750D01*
X186585750Y-92874500D01*
X187697691Y-92874500D01*
X187950310Y-92874500D01*
X188183699Y-92777827D01*
X188362327Y-92599198D01*
X188459000Y-92365809D01*
X188459000Y-95034191D01*
X188362327Y-94800802D01*
X188183699Y-94622173D01*
X187950310Y-94525500D01*
X187697691Y-94525500D01*
X186585750Y-94525500D01*
X186427000Y-94684250D01*
X186427000Y-95859000D01*
X188300250Y-95859000D01*
X188459000Y-95700250D01*
X188459000Y-96271750D01*
X188300250Y-96113000D01*
X186427000Y-96113000D01*
X186427000Y-97287750D01*
X186585750Y-97446500D01*
X187697691Y-97446500D01*
X187950310Y-97446500D01*
X188183699Y-97349827D01*
X188362327Y-97171198D01*
X188459000Y-96937809D01*
X188459000Y-98965860D01*
X186173000Y-98965860D01*
X186173000Y-97287750D01*
X186173000Y-96113000D01*
X186173000Y-95859000D01*
X186173000Y-94684250D01*
X186173000Y-92715750D01*
X186173000Y-91541000D01*
X186173000Y-91287000D01*
X186173000Y-90112250D01*
X186014250Y-89953500D01*
X184902309Y-89953500D01*
X184649690Y-89953500D01*
X184416301Y-90050173D01*
X184237673Y-90228802D01*
X184141000Y-90462191D01*
X184141000Y-91128250D01*
X184299750Y-91287000D01*
X186173000Y-91287000D01*
X186173000Y-91541000D01*
X184299750Y-91541000D01*
X184141000Y-91699750D01*
X184141000Y-92365809D01*
X184237673Y-92599198D01*
X184416301Y-92777827D01*
X184649690Y-92874500D01*
X184902309Y-92874500D01*
X186014250Y-92874500D01*
X186173000Y-92715750D01*
X186173000Y-94684250D01*
X186014250Y-94525500D01*
X184902309Y-94525500D01*
X184649690Y-94525500D01*
X184416301Y-94622173D01*
X184237673Y-94800802D01*
X184141000Y-95034191D01*
X184141000Y-95700250D01*
X184299750Y-95859000D01*
X186173000Y-95859000D01*
X186173000Y-96113000D01*
X184299750Y-96113000D01*
X184141000Y-96271750D01*
X184141000Y-96937809D01*
X184237673Y-97171198D01*
X184416301Y-97349827D01*
X184649690Y-97446500D01*
X184902309Y-97446500D01*
X186014250Y-97446500D01*
X186173000Y-97287750D01*
X186173000Y-98965860D01*
X183233850Y-98965860D01*
X183233850Y-92176880D01*
X183233850Y-91924261D01*
X183233850Y-91585750D01*
X183233850Y-91014250D01*
X183233850Y-90675739D01*
X183233850Y-90423120D01*
X183137177Y-90189731D01*
X182958548Y-90011103D01*
X182725159Y-89914430D01*
X181384730Y-89914430D01*
X181225980Y-90073180D01*
X181225980Y-91173000D01*
X183075100Y-91173000D01*
X183233850Y-91014250D01*
X183233850Y-91585750D01*
X183075100Y-91427000D01*
X181225980Y-91427000D01*
X181225980Y-92526820D01*
X181384730Y-92685570D01*
X182725159Y-92685570D01*
X182958548Y-92588897D01*
X183137177Y-92410269D01*
X183233850Y-92176880D01*
X183233850Y-98965860D01*
X182535100Y-98965860D01*
X182535100Y-98374071D01*
X182438427Y-98140682D01*
X182297745Y-98000000D01*
X182438427Y-97859318D01*
X182535100Y-97625929D01*
X182535100Y-96484890D01*
X182535100Y-95913390D01*
X182535100Y-94772351D01*
X182438427Y-94538962D01*
X182259799Y-94360333D01*
X182026410Y-94263660D01*
X181773791Y-94263660D01*
X181385750Y-94263660D01*
X181227000Y-94422410D01*
X181227000Y-96072140D01*
X182376350Y-96072140D01*
X182535100Y-95913390D01*
X182535100Y-96484890D01*
X182376350Y-96326140D01*
X181227000Y-96326140D01*
X181227000Y-96346140D01*
X180973000Y-96346140D01*
X180973000Y-96326140D01*
X180973000Y-96072140D01*
X180973000Y-94422410D01*
X180814250Y-94263660D01*
X180426209Y-94263660D01*
X180173590Y-94263660D01*
X179940201Y-94360333D01*
X179761573Y-94538962D01*
X179664900Y-94772351D01*
X179664900Y-95913390D01*
X179823650Y-96072140D01*
X180973000Y-96072140D01*
X180973000Y-96326140D01*
X179823650Y-96326140D01*
X179664900Y-96484890D01*
X179664900Y-97625929D01*
X179761573Y-97859318D01*
X179902254Y-98000000D01*
X179761573Y-98140681D01*
X179664900Y-98374070D01*
X179664900Y-98626689D01*
X179664900Y-99451000D01*
X177569870Y-99451000D01*
X177556327Y-99418302D01*
X177377699Y-99239673D01*
X177144310Y-99143000D01*
X177377699Y-99046327D01*
X177556327Y-98867698D01*
X177653000Y-98634309D01*
X177653000Y-98285750D01*
X177494250Y-98127000D01*
X176129000Y-98127000D01*
X176129000Y-98147000D01*
X175875000Y-98147000D01*
X175875000Y-98127000D01*
X174509750Y-98127000D01*
X174351000Y-98285750D01*
X174351000Y-98634309D01*
X174447673Y-98867698D01*
X174626301Y-99046327D01*
X174859690Y-99143000D01*
X174626302Y-99239673D01*
X174447673Y-99418301D01*
X174351000Y-99651690D01*
X174351000Y-99904309D01*
X174351000Y-100920309D01*
X174447673Y-101153698D01*
X174626301Y-101332327D01*
X174859690Y-101429000D01*
X175112309Y-101429000D01*
X177144309Y-101429000D01*
X177377698Y-101332327D01*
X177556327Y-101153699D01*
X177569871Y-101121000D01*
X179664900Y-101121000D01*
X179664900Y-101227649D01*
X179761573Y-101461038D01*
X179940201Y-101639667D01*
X180173590Y-101736340D01*
X180426209Y-101736340D01*
X182026409Y-101736340D01*
X182259798Y-101639667D01*
X182438427Y-101461039D01*
X182535100Y-101227650D01*
X182535100Y-100975031D01*
X182535100Y-100635860D01*
X189099140Y-100635860D01*
X189418680Y-100572299D01*
X189418681Y-100572299D01*
X189689574Y-100391294D01*
X192697868Y-97383000D01*
X195824309Y-97383000D01*
X196057698Y-97286327D01*
X196236327Y-97107699D01*
X196333000Y-96874310D01*
X196333000Y-96621691D01*
X196333000Y-90525691D01*
X196236327Y-90292302D01*
X196057699Y-90113673D01*
X195824310Y-90017000D01*
X195571691Y-90017000D01*
X194285000Y-90017000D01*
X194285000Y-89127000D01*
X197315000Y-89127000D01*
X197315000Y-108315000D01*
M02*
