%FSLAX46Y46*%
G04 Gerber Fmt 4.6, Leading zero omitted, Abs format (unit mm)*
G04 Created by KiCad (PCBNEW (2014-09-25 BZR 5147)-product) date fre 14 nov 2014 02:42:05*
%MOMM*%
G01*
G04 APERTURE LIST*
%ADD10C,0.100000*%
%ADD11C,0.127000*%
%ADD12C,0.381000*%
%ADD13C,0.254000*%
%ADD14C,0.119380*%
%ADD15C,0.150000*%
%ADD16C,0.203200*%
%ADD17C,0.149860*%
%ADD18C,0.304800*%
%ADD19C,0.129540*%
%ADD20R,1.600200X2.600960*%
%ADD21R,2.999740X1.501140*%
%ADD22C,2.999740*%
%ADD23R,1.727200X2.032000*%
%ADD24O,1.727200X2.032000*%
%ADD25R,1.727200X1.727200*%
%ADD26O,1.727200X1.727200*%
%ADD27R,0.914400X0.914400*%
%ADD28R,0.635000X1.143000*%
%ADD29R,2.032000X3.657600*%
%ADD30R,2.032000X1.016000*%
%ADD31R,3.048000X1.651000*%
%ADD32R,6.096000X6.096000*%
%ADD33C,4.000000*%
G04 APERTURE END LIST*
D10*
D11*
X181100000Y-99651000D02*
X181100000Y-98889000D01*
X181481000Y-99270000D02*
X180719000Y-99270000D01*
X178814000Y-99524000D02*
X178814000Y-95714000D01*
X182624000Y-100286000D02*
X179576000Y-100286000D01*
X178814000Y-99524000D02*
X179576000Y-100286000D01*
X183386000Y-99524000D02*
X183386000Y-95714000D01*
X183386000Y-99524000D02*
X182624000Y-100286000D01*
X180973000Y-95968000D02*
X181227000Y-95968000D01*
X181735000Y-96095000D02*
X180465000Y-96095000D01*
X180211000Y-96222000D02*
X181989000Y-96222000D01*
X179957000Y-96349000D02*
X182243000Y-96349000D01*
X182370000Y-96476000D02*
X179830000Y-96476000D01*
X179703000Y-96603000D02*
X182497000Y-96603000D01*
X182624000Y-96730000D02*
X179576000Y-96730000D01*
X182751000Y-96857000D02*
X179449000Y-96857000D01*
X183132000Y-98000000D02*
G75*
G03X183132000Y-98000000I-2032000J0D01*
G74*
G01*
X183386000Y-95714000D02*
X178814000Y-95714000D01*
D12*
X176499040Y-92498880D02*
X181700960Y-92498880D01*
X181700960Y-90101120D02*
X176499040Y-90101120D01*
X174500060Y-89001300D02*
X174500060Y-90101120D01*
X173900620Y-89501680D02*
X175099500Y-89501680D01*
X175104580Y-90101120D02*
X175104580Y-92498880D01*
X107696000Y-77597000D02*
X109728000Y-77597000D01*
X108712000Y-76581000D02*
X108712000Y-78613000D01*
X118872000Y-80645000D02*
G75*
G03X118872000Y-80645000I-7112000J0D01*
G74*
G01*
X123696000Y-77652000D02*
X125728000Y-77652000D01*
X124712000Y-76636000D02*
X124712000Y-78668000D01*
X134872000Y-80700000D02*
G75*
G03X134872000Y-80700000I-7112000J0D01*
G74*
G01*
X139696000Y-77652000D02*
X141728000Y-77652000D01*
X140712000Y-76636000D02*
X140712000Y-78668000D01*
X150872000Y-80700000D02*
G75*
G03X150872000Y-80700000I-7112000J0D01*
G74*
G01*
X155696000Y-77652000D02*
X157728000Y-77652000D01*
X156712000Y-76636000D02*
X156712000Y-78668000D01*
X166872000Y-80700000D02*
G75*
G03X166872000Y-80700000I-7112000J0D01*
G74*
G01*
X171696000Y-77652000D02*
X173728000Y-77652000D01*
X172712000Y-76636000D02*
X172712000Y-78668000D01*
X182872000Y-80700000D02*
G75*
G03X182872000Y-80700000I-7112000J0D01*
G74*
G01*
D13*
X114720000Y-102130000D02*
X127420000Y-102130000D01*
X127420000Y-102130000D02*
X127420000Y-104670000D01*
X127420000Y-104670000D02*
X114720000Y-104670000D01*
X112180000Y-102130000D02*
X114720000Y-102130000D01*
X114720000Y-102130000D02*
X114720000Y-104670000D01*
X112180000Y-102130000D02*
X112180000Y-104670000D01*
X112180000Y-104670000D02*
X114720000Y-104670000D01*
X100260000Y-93560000D02*
X100260000Y-101180000D01*
X100260000Y-101180000D02*
X105340000Y-101180000D01*
X105340000Y-101180000D02*
X105340000Y-91020000D01*
X105340000Y-91020000D02*
X102800000Y-91020000D01*
X100260000Y-91020000D02*
X100260000Y-93560000D01*
X102800000Y-91020000D02*
X102800000Y-93560000D01*
X102800000Y-93560000D02*
X100260000Y-93560000D01*
X100260000Y-91020000D02*
X102800000Y-91020000D01*
X107950000Y-65405000D02*
X115570000Y-65405000D01*
X107950000Y-62865000D02*
X115570000Y-62865000D01*
X105410000Y-62865000D02*
X107950000Y-62865000D01*
X115570000Y-65405000D02*
X115570000Y-62865000D01*
X107950000Y-62865000D02*
X107950000Y-65405000D01*
X105410000Y-62865000D02*
X105410000Y-65405000D01*
X105410000Y-65405000D02*
X107950000Y-65405000D01*
X124020000Y-65370000D02*
X131640000Y-65370000D01*
X124020000Y-62830000D02*
X131640000Y-62830000D01*
X121480000Y-62830000D02*
X124020000Y-62830000D01*
X131640000Y-65370000D02*
X131640000Y-62830000D01*
X124020000Y-62830000D02*
X124020000Y-65370000D01*
X121480000Y-62830000D02*
X121480000Y-65370000D01*
X121480000Y-65370000D02*
X124020000Y-65370000D01*
X139820000Y-65370000D02*
X147440000Y-65370000D01*
X139820000Y-62830000D02*
X147440000Y-62830000D01*
X137280000Y-62830000D02*
X139820000Y-62830000D01*
X147440000Y-65370000D02*
X147440000Y-62830000D01*
X139820000Y-62830000D02*
X139820000Y-65370000D01*
X137280000Y-62830000D02*
X137280000Y-65370000D01*
X137280000Y-65370000D02*
X139820000Y-65370000D01*
X156020000Y-65370000D02*
X163640000Y-65370000D01*
X156020000Y-62830000D02*
X163640000Y-62830000D01*
X153480000Y-62830000D02*
X156020000Y-62830000D01*
X163640000Y-65370000D02*
X163640000Y-62830000D01*
X156020000Y-62830000D02*
X156020000Y-65370000D01*
X153480000Y-62830000D02*
X153480000Y-65370000D01*
X153480000Y-65370000D02*
X156020000Y-65370000D01*
X171820000Y-65370000D02*
X179440000Y-65370000D01*
X171820000Y-62830000D02*
X179440000Y-62830000D01*
X169280000Y-62830000D02*
X171820000Y-62830000D01*
X179440000Y-65370000D02*
X179440000Y-62830000D01*
X171820000Y-62830000D02*
X171820000Y-65370000D01*
X169280000Y-62830000D02*
X169280000Y-65370000D01*
X169280000Y-65370000D02*
X171820000Y-65370000D01*
D14*
X108839000Y-68326000D02*
X105791000Y-68326000D01*
X105791000Y-68326000D02*
X105791000Y-67564000D01*
X105791000Y-67564000D02*
X108839000Y-67564000D01*
X108839000Y-67564000D02*
X108839000Y-68326000D01*
X113284000Y-68326000D02*
X110236000Y-68326000D01*
X110236000Y-68326000D02*
X110236000Y-67564000D01*
X110236000Y-67564000D02*
X113284000Y-67564000D01*
X113284000Y-67564000D02*
X113284000Y-68326000D01*
X117729000Y-68326000D02*
X114681000Y-68326000D01*
X114681000Y-68326000D02*
X114681000Y-67564000D01*
X114681000Y-67564000D02*
X117729000Y-67564000D01*
X117729000Y-67564000D02*
X117729000Y-68326000D01*
X124884000Y-68281000D02*
X121836000Y-68281000D01*
X121836000Y-68281000D02*
X121836000Y-67519000D01*
X121836000Y-67519000D02*
X124884000Y-67519000D01*
X124884000Y-67519000D02*
X124884000Y-68281000D01*
X129284000Y-68281000D02*
X126236000Y-68281000D01*
X126236000Y-68281000D02*
X126236000Y-67519000D01*
X126236000Y-67519000D02*
X129284000Y-67519000D01*
X129284000Y-67519000D02*
X129284000Y-68281000D01*
X133684000Y-68281000D02*
X130636000Y-68281000D01*
X130636000Y-68281000D02*
X130636000Y-67519000D01*
X130636000Y-67519000D02*
X133684000Y-67519000D01*
X133684000Y-67519000D02*
X133684000Y-68281000D01*
X140884000Y-68281000D02*
X137836000Y-68281000D01*
X137836000Y-68281000D02*
X137836000Y-67519000D01*
X137836000Y-67519000D02*
X140884000Y-67519000D01*
X140884000Y-67519000D02*
X140884000Y-68281000D01*
X145284000Y-68281000D02*
X142236000Y-68281000D01*
X142236000Y-68281000D02*
X142236000Y-67519000D01*
X142236000Y-67519000D02*
X145284000Y-67519000D01*
X145284000Y-67519000D02*
X145284000Y-68281000D01*
X149684000Y-68281000D02*
X146636000Y-68281000D01*
X146636000Y-68281000D02*
X146636000Y-67519000D01*
X146636000Y-67519000D02*
X149684000Y-67519000D01*
X149684000Y-67519000D02*
X149684000Y-68281000D01*
X156884000Y-68281000D02*
X153836000Y-68281000D01*
X153836000Y-68281000D02*
X153836000Y-67519000D01*
X153836000Y-67519000D02*
X156884000Y-67519000D01*
X156884000Y-67519000D02*
X156884000Y-68281000D01*
X161284000Y-68281000D02*
X158236000Y-68281000D01*
X158236000Y-68281000D02*
X158236000Y-67519000D01*
X158236000Y-67519000D02*
X161284000Y-67519000D01*
X161284000Y-67519000D02*
X161284000Y-68281000D01*
X165684000Y-68281000D02*
X162636000Y-68281000D01*
X162636000Y-68281000D02*
X162636000Y-67519000D01*
X162636000Y-67519000D02*
X165684000Y-67519000D01*
X165684000Y-67519000D02*
X165684000Y-68281000D01*
X172884000Y-68281000D02*
X169836000Y-68281000D01*
X169836000Y-68281000D02*
X169836000Y-67519000D01*
X169836000Y-67519000D02*
X172884000Y-67519000D01*
X172884000Y-67519000D02*
X172884000Y-68281000D01*
X177284000Y-68281000D02*
X174236000Y-68281000D01*
X174236000Y-68281000D02*
X174236000Y-67519000D01*
X174236000Y-67519000D02*
X177284000Y-67519000D01*
X177284000Y-67519000D02*
X177284000Y-68281000D01*
X181684000Y-68281000D02*
X178636000Y-68281000D01*
X178636000Y-68281000D02*
X178636000Y-67519000D01*
X178636000Y-67519000D02*
X181684000Y-67519000D01*
X181684000Y-67519000D02*
X181684000Y-68281000D01*
D15*
X106215000Y-69785000D02*
X108415000Y-69785000D01*
X106215000Y-71185000D02*
X108415000Y-71185000D01*
X110660000Y-69785000D02*
X112860000Y-69785000D01*
X110660000Y-71185000D02*
X112860000Y-71185000D01*
X115105000Y-69785000D02*
X117305000Y-69785000D01*
X115105000Y-71185000D02*
X117305000Y-71185000D01*
X122260000Y-69800000D02*
X124460000Y-69800000D01*
X122260000Y-71200000D02*
X124460000Y-71200000D01*
X126660000Y-69800000D02*
X128860000Y-69800000D01*
X126660000Y-71200000D02*
X128860000Y-71200000D01*
X131060000Y-69800000D02*
X133260000Y-69800000D01*
X131060000Y-71200000D02*
X133260000Y-71200000D01*
X138260000Y-69800000D02*
X140460000Y-69800000D01*
X138260000Y-71200000D02*
X140460000Y-71200000D01*
X142660000Y-69800000D02*
X144860000Y-69800000D01*
X142660000Y-71200000D02*
X144860000Y-71200000D01*
X147060000Y-69800000D02*
X149260000Y-69800000D01*
X147060000Y-71200000D02*
X149260000Y-71200000D01*
X154260000Y-69800000D02*
X156460000Y-69800000D01*
X154260000Y-71200000D02*
X156460000Y-71200000D01*
X158660000Y-69800000D02*
X160860000Y-69800000D01*
X158660000Y-71200000D02*
X160860000Y-71200000D01*
X163060000Y-69800000D02*
X165260000Y-69800000D01*
X163060000Y-71200000D02*
X165260000Y-71200000D01*
X170260000Y-69800000D02*
X172460000Y-69800000D01*
X170260000Y-71200000D02*
X172460000Y-71200000D01*
X174660000Y-69800000D02*
X176860000Y-69800000D01*
X174660000Y-71200000D02*
X176860000Y-71200000D01*
X179060000Y-69800000D02*
X181260000Y-69800000D01*
X179060000Y-71200000D02*
X181260000Y-71200000D01*
D16*
X174224000Y-101556000D02*
X177272000Y-101556000D01*
X177272000Y-101556000D02*
X177272000Y-94444000D01*
X177272000Y-94444000D02*
X174224000Y-94444000D01*
X171176000Y-101556000D02*
X170414000Y-101556000D01*
X170414000Y-101556000D02*
X168128000Y-100032000D01*
X168128000Y-100032000D02*
X168128000Y-95968000D01*
X168128000Y-95968000D02*
X170414000Y-94444000D01*
X170414000Y-94444000D02*
X171176000Y-94444000D01*
D15*
X142417157Y-92657359D02*
X142487868Y-92586649D01*
X142487868Y-92586649D02*
X142912132Y-92586649D01*
X142912132Y-92586649D02*
X147013351Y-96687868D01*
X147013351Y-96687868D02*
X147013351Y-97112132D01*
X147013351Y-97112132D02*
X142912132Y-101213351D01*
X142912132Y-101213351D02*
X142487868Y-101213351D01*
X142487868Y-101213351D02*
X138386649Y-97112132D01*
X138386649Y-97112132D02*
X138386649Y-96687868D01*
X138386649Y-96687868D02*
X142417157Y-92657359D01*
D17*
X142841888Y-91244235D02*
X142558112Y-91244235D01*
X142418020Y-91384327D02*
X142981980Y-91384327D01*
X143123868Y-91526215D02*
X142276132Y-91526215D01*
X142134244Y-91668103D02*
X143265756Y-91668103D01*
X141992356Y-91809991D02*
X142700000Y-91102347D01*
X142700000Y-91102347D02*
X143407644Y-91809991D01*
X143407644Y-91809991D02*
X141992356Y-91809991D01*
X137609991Y-97607644D02*
X136902347Y-96900000D01*
X136902347Y-96900000D02*
X137609991Y-96192356D01*
X143407644Y-101990009D02*
X142700000Y-102697653D01*
X142700000Y-102697653D02*
X141992356Y-101990009D01*
X147790009Y-96192356D02*
X148497653Y-96900000D01*
X148497653Y-96900000D02*
X147790009Y-97607644D01*
D11*
X142983981Y-93487503D02*
G75*
G03X142983981Y-93487503I-283981J0D01*
G74*
G01*
X187824000Y-95097000D02*
X184649000Y-95097000D01*
X184649000Y-95097000D02*
X184649000Y-96875000D01*
X184649000Y-96875000D02*
X187824000Y-96875000D01*
X187824000Y-90525000D02*
X184649000Y-90525000D01*
X184649000Y-90525000D02*
X184649000Y-92303000D01*
X184649000Y-92303000D02*
X187824000Y-92303000D01*
X193920000Y-97129000D02*
X187824000Y-97129000D01*
X187824000Y-97129000D02*
X187824000Y-90271000D01*
X187824000Y-90271000D02*
X195698000Y-90271000D01*
X195825000Y-90271000D02*
X195825000Y-97129000D01*
X195698000Y-97129000D02*
X193920000Y-97129000D01*
D15*
X190000000Y-70000000D02*
X189000000Y-71000000D01*
X189000000Y-71000000D02*
X189000000Y-74000000D01*
X189000000Y-74000000D02*
X190000000Y-75000000D01*
X190000000Y-75000000D02*
X189000000Y-76000000D01*
X189000000Y-76000000D02*
X189000000Y-79000000D01*
X189000000Y-79000000D02*
X190000000Y-80000000D01*
X197000000Y-70000000D02*
X197000000Y-80000000D01*
X197000000Y-80000000D02*
X184000000Y-80000000D01*
X184000000Y-80000000D02*
X184000000Y-70000000D01*
X184000000Y-70000000D02*
X197000000Y-70000000D01*
D14*
X184072707Y-98083396D02*
X184096535Y-98107224D01*
X184120362Y-98178707D01*
X184120362Y-98226362D01*
X184096535Y-98297845D01*
X184048880Y-98345500D01*
X184001224Y-98369328D01*
X183905914Y-98393156D01*
X183834431Y-98393156D01*
X183739120Y-98369328D01*
X183691465Y-98345500D01*
X183643810Y-98297845D01*
X183619982Y-98226362D01*
X183619982Y-98178707D01*
X183643810Y-98107224D01*
X183667638Y-98083396D01*
X184120362Y-97606844D02*
X184120362Y-97892776D01*
X184120362Y-97749810D02*
X183619982Y-97749810D01*
X183691465Y-97797465D01*
X183739120Y-97845120D01*
X183762948Y-97892776D01*
D18*
X178645340Y-88745486D02*
X178572769Y-88818057D01*
X178355055Y-88890629D01*
X178209912Y-88890629D01*
X177992197Y-88818057D01*
X177847055Y-88672914D01*
X177774483Y-88527771D01*
X177701912Y-88237486D01*
X177701912Y-88019771D01*
X177774483Y-87729486D01*
X177847055Y-87584343D01*
X177992197Y-87439200D01*
X178209912Y-87366629D01*
X178355055Y-87366629D01*
X178572769Y-87439200D01*
X178645340Y-87511771D01*
X179225912Y-87511771D02*
X179298483Y-87439200D01*
X179443626Y-87366629D01*
X179806483Y-87366629D01*
X179951626Y-87439200D01*
X180024197Y-87511771D01*
X180096769Y-87656914D01*
X180096769Y-87802057D01*
X180024197Y-88019771D01*
X179153340Y-88890629D01*
X180096769Y-88890629D01*
X173919489Y-89607997D02*
X175080632Y-89607997D01*
X174500061Y-90188569D02*
X174500061Y-89027426D01*
X111506000Y-72299286D02*
X111433429Y-72371857D01*
X111215715Y-72444429D01*
X111070572Y-72444429D01*
X110852857Y-72371857D01*
X110707715Y-72226714D01*
X110635143Y-72081571D01*
X110562572Y-71791286D01*
X110562572Y-71573571D01*
X110635143Y-71283286D01*
X110707715Y-71138143D01*
X110852857Y-70993000D01*
X111070572Y-70920429D01*
X111215715Y-70920429D01*
X111433429Y-70993000D01*
X111506000Y-71065571D01*
X112376857Y-71573571D02*
X112231715Y-71501000D01*
X112159143Y-71428429D01*
X112086572Y-71283286D01*
X112086572Y-71210714D01*
X112159143Y-71065571D01*
X112231715Y-70993000D01*
X112376857Y-70920429D01*
X112667143Y-70920429D01*
X112812286Y-70993000D01*
X112884857Y-71065571D01*
X112957429Y-71210714D01*
X112957429Y-71283286D01*
X112884857Y-71428429D01*
X112812286Y-71501000D01*
X112667143Y-71573571D01*
X112376857Y-71573571D01*
X112231715Y-71646143D01*
X112159143Y-71718714D01*
X112086572Y-71863857D01*
X112086572Y-72154143D01*
X112159143Y-72299286D01*
X112231715Y-72371857D01*
X112376857Y-72444429D01*
X112667143Y-72444429D01*
X112812286Y-72371857D01*
X112884857Y-72299286D01*
X112957429Y-72154143D01*
X112957429Y-71863857D01*
X112884857Y-71718714D01*
X112812286Y-71646143D01*
X112667143Y-71573571D01*
X127506000Y-72354286D02*
X127433429Y-72426857D01*
X127215715Y-72499429D01*
X127070572Y-72499429D01*
X126852857Y-72426857D01*
X126707715Y-72281714D01*
X126635143Y-72136571D01*
X126562572Y-71846286D01*
X126562572Y-71628571D01*
X126635143Y-71338286D01*
X126707715Y-71193143D01*
X126852857Y-71048000D01*
X127070572Y-70975429D01*
X127215715Y-70975429D01*
X127433429Y-71048000D01*
X127506000Y-71120571D01*
X128231715Y-72499429D02*
X128522000Y-72499429D01*
X128667143Y-72426857D01*
X128739715Y-72354286D01*
X128884857Y-72136571D01*
X128957429Y-71846286D01*
X128957429Y-71265714D01*
X128884857Y-71120571D01*
X128812286Y-71048000D01*
X128667143Y-70975429D01*
X128376857Y-70975429D01*
X128231715Y-71048000D01*
X128159143Y-71120571D01*
X128086572Y-71265714D01*
X128086572Y-71628571D01*
X128159143Y-71773714D01*
X128231715Y-71846286D01*
X128376857Y-71918857D01*
X128667143Y-71918857D01*
X128812286Y-71846286D01*
X128884857Y-71773714D01*
X128957429Y-71628571D01*
X142780285Y-72354286D02*
X142707714Y-72426857D01*
X142490000Y-72499429D01*
X142344857Y-72499429D01*
X142127142Y-72426857D01*
X141982000Y-72281714D01*
X141909428Y-72136571D01*
X141836857Y-71846286D01*
X141836857Y-71628571D01*
X141909428Y-71338286D01*
X141982000Y-71193143D01*
X142127142Y-71048000D01*
X142344857Y-70975429D01*
X142490000Y-70975429D01*
X142707714Y-71048000D01*
X142780285Y-71120571D01*
X144231714Y-72499429D02*
X143360857Y-72499429D01*
X143796285Y-72499429D02*
X143796285Y-70975429D01*
X143651142Y-71193143D01*
X143506000Y-71338286D01*
X143360857Y-71410857D01*
X145175143Y-70975429D02*
X145320286Y-70975429D01*
X145465429Y-71048000D01*
X145538000Y-71120571D01*
X145610571Y-71265714D01*
X145683143Y-71556000D01*
X145683143Y-71918857D01*
X145610571Y-72209143D01*
X145538000Y-72354286D01*
X145465429Y-72426857D01*
X145320286Y-72499429D01*
X145175143Y-72499429D01*
X145030000Y-72426857D01*
X144957429Y-72354286D01*
X144884857Y-72209143D01*
X144812286Y-71918857D01*
X144812286Y-71556000D01*
X144884857Y-71265714D01*
X144957429Y-71120571D01*
X145030000Y-71048000D01*
X145175143Y-70975429D01*
X158780285Y-72354286D02*
X158707714Y-72426857D01*
X158490000Y-72499429D01*
X158344857Y-72499429D01*
X158127142Y-72426857D01*
X157982000Y-72281714D01*
X157909428Y-72136571D01*
X157836857Y-71846286D01*
X157836857Y-71628571D01*
X157909428Y-71338286D01*
X157982000Y-71193143D01*
X158127142Y-71048000D01*
X158344857Y-70975429D01*
X158490000Y-70975429D01*
X158707714Y-71048000D01*
X158780285Y-71120571D01*
X160231714Y-72499429D02*
X159360857Y-72499429D01*
X159796285Y-72499429D02*
X159796285Y-70975429D01*
X159651142Y-71193143D01*
X159506000Y-71338286D01*
X159360857Y-71410857D01*
X161683143Y-72499429D02*
X160812286Y-72499429D01*
X161247714Y-72499429D02*
X161247714Y-70975429D01*
X161102571Y-71193143D01*
X160957429Y-71338286D01*
X160812286Y-71410857D01*
X174780285Y-72354286D02*
X174707714Y-72426857D01*
X174490000Y-72499429D01*
X174344857Y-72499429D01*
X174127142Y-72426857D01*
X173982000Y-72281714D01*
X173909428Y-72136571D01*
X173836857Y-71846286D01*
X173836857Y-71628571D01*
X173909428Y-71338286D01*
X173982000Y-71193143D01*
X174127142Y-71048000D01*
X174344857Y-70975429D01*
X174490000Y-70975429D01*
X174707714Y-71048000D01*
X174780285Y-71120571D01*
X176231714Y-72499429D02*
X175360857Y-72499429D01*
X175796285Y-72499429D02*
X175796285Y-70975429D01*
X175651142Y-71193143D01*
X175506000Y-71338286D01*
X175360857Y-71410857D01*
X176812286Y-71120571D02*
X176884857Y-71048000D01*
X177030000Y-70975429D01*
X177392857Y-70975429D01*
X177538000Y-71048000D01*
X177610571Y-71120571D01*
X177683143Y-71265714D01*
X177683143Y-71410857D01*
X177610571Y-71628571D01*
X176739714Y-72499429D01*
X177683143Y-72499429D01*
D16*
X118862619Y-101688524D02*
X118862619Y-100418524D01*
X119346428Y-100418524D01*
X119467381Y-100479000D01*
X119527857Y-100539476D01*
X119588333Y-100660429D01*
X119588333Y-100841857D01*
X119527857Y-100962810D01*
X119467381Y-101023286D01*
X119346428Y-101083762D01*
X118862619Y-101083762D01*
X120797857Y-101688524D02*
X120072143Y-101688524D01*
X120435000Y-101688524D02*
X120435000Y-100418524D01*
X120314048Y-100599952D01*
X120193095Y-100720905D01*
X120072143Y-100781381D01*
X107184524Y-97037381D02*
X105914524Y-97037381D01*
X105914524Y-96553572D01*
X105975000Y-96432619D01*
X106035476Y-96372143D01*
X106156429Y-96311667D01*
X106337857Y-96311667D01*
X106458810Y-96372143D01*
X106519286Y-96432619D01*
X106579762Y-96553572D01*
X106579762Y-97037381D01*
X105914524Y-95888333D02*
X105914524Y-95102143D01*
X106398333Y-95525476D01*
X106398333Y-95344048D01*
X106458810Y-95223095D01*
X106519286Y-95162619D01*
X106640238Y-95102143D01*
X106942619Y-95102143D01*
X107063571Y-95162619D01*
X107124048Y-95223095D01*
X107184524Y-95344048D01*
X107184524Y-95706905D01*
X107124048Y-95827857D01*
X107063571Y-95888333D01*
X109552619Y-62423524D02*
X109552619Y-61153524D01*
X110036428Y-61153524D01*
X110157381Y-61214000D01*
X110217857Y-61274476D01*
X110278333Y-61395429D01*
X110278333Y-61576857D01*
X110217857Y-61697810D01*
X110157381Y-61758286D01*
X110036428Y-61818762D01*
X109552619Y-61818762D01*
X111366905Y-61576857D02*
X111366905Y-62423524D01*
X111064524Y-61093048D02*
X110762143Y-62000190D01*
X111548333Y-62000190D01*
X125622619Y-62388524D02*
X125622619Y-61118524D01*
X126106428Y-61118524D01*
X126227381Y-61179000D01*
X126287857Y-61239476D01*
X126348333Y-61360429D01*
X126348333Y-61541857D01*
X126287857Y-61662810D01*
X126227381Y-61723286D01*
X126106428Y-61783762D01*
X125622619Y-61783762D01*
X127497381Y-61118524D02*
X126892619Y-61118524D01*
X126832143Y-61723286D01*
X126892619Y-61662810D01*
X127013571Y-61602333D01*
X127315952Y-61602333D01*
X127436905Y-61662810D01*
X127497381Y-61723286D01*
X127557857Y-61844238D01*
X127557857Y-62146619D01*
X127497381Y-62267571D01*
X127436905Y-62328048D01*
X127315952Y-62388524D01*
X127013571Y-62388524D01*
X126892619Y-62328048D01*
X126832143Y-62267571D01*
X141422619Y-62388524D02*
X141422619Y-61118524D01*
X141906428Y-61118524D01*
X142027381Y-61179000D01*
X142087857Y-61239476D01*
X142148333Y-61360429D01*
X142148333Y-61541857D01*
X142087857Y-61662810D01*
X142027381Y-61723286D01*
X141906428Y-61783762D01*
X141422619Y-61783762D01*
X143236905Y-61118524D02*
X142995000Y-61118524D01*
X142874048Y-61179000D01*
X142813571Y-61239476D01*
X142692619Y-61420905D01*
X142632143Y-61662810D01*
X142632143Y-62146619D01*
X142692619Y-62267571D01*
X142753095Y-62328048D01*
X142874048Y-62388524D01*
X143115952Y-62388524D01*
X143236905Y-62328048D01*
X143297381Y-62267571D01*
X143357857Y-62146619D01*
X143357857Y-61844238D01*
X143297381Y-61723286D01*
X143236905Y-61662810D01*
X143115952Y-61602333D01*
X142874048Y-61602333D01*
X142753095Y-61662810D01*
X142692619Y-61723286D01*
X142632143Y-61844238D01*
X157622619Y-62388524D02*
X157622619Y-61118524D01*
X158106428Y-61118524D01*
X158227381Y-61179000D01*
X158287857Y-61239476D01*
X158348333Y-61360429D01*
X158348333Y-61541857D01*
X158287857Y-61662810D01*
X158227381Y-61723286D01*
X158106428Y-61783762D01*
X157622619Y-61783762D01*
X158771667Y-61118524D02*
X159618333Y-61118524D01*
X159074048Y-62388524D01*
X173422619Y-62388524D02*
X173422619Y-61118524D01*
X173906428Y-61118524D01*
X174027381Y-61179000D01*
X174087857Y-61239476D01*
X174148333Y-61360429D01*
X174148333Y-61541857D01*
X174087857Y-61662810D01*
X174027381Y-61723286D01*
X173906428Y-61783762D01*
X173422619Y-61783762D01*
X174874048Y-61662810D02*
X174753095Y-61602333D01*
X174692619Y-61541857D01*
X174632143Y-61420905D01*
X174632143Y-61360429D01*
X174692619Y-61239476D01*
X174753095Y-61179000D01*
X174874048Y-61118524D01*
X175115952Y-61118524D01*
X175236905Y-61179000D01*
X175297381Y-61239476D01*
X175357857Y-61360429D01*
X175357857Y-61420905D01*
X175297381Y-61541857D01*
X175236905Y-61602333D01*
X175115952Y-61662810D01*
X174874048Y-61662810D01*
X174753095Y-61723286D01*
X174692619Y-61783762D01*
X174632143Y-61904714D01*
X174632143Y-62146619D01*
X174692619Y-62267571D01*
X174753095Y-62328048D01*
X174874048Y-62388524D01*
X175115952Y-62388524D01*
X175236905Y-62328048D01*
X175297381Y-62267571D01*
X175357857Y-62146619D01*
X175357857Y-61904714D01*
X175297381Y-61783762D01*
X175236905Y-61723286D01*
X175115952Y-61662810D01*
D19*
X107242429Y-70521286D02*
X107169857Y-70485000D01*
X107097286Y-70412429D01*
X106988429Y-70303571D01*
X106915857Y-70267286D01*
X106843286Y-70267286D01*
X106879571Y-70448714D02*
X106807000Y-70412429D01*
X106734429Y-70339857D01*
X106698143Y-70194714D01*
X106698143Y-69940714D01*
X106734429Y-69795571D01*
X106807000Y-69723000D01*
X106879571Y-69686714D01*
X107024714Y-69686714D01*
X107097286Y-69723000D01*
X107169857Y-69795571D01*
X107206143Y-69940714D01*
X107206143Y-70194714D01*
X107169857Y-70339857D01*
X107097286Y-70412429D01*
X107024714Y-70448714D01*
X106879571Y-70448714D01*
X107931857Y-70448714D02*
X107496429Y-70448714D01*
X107714143Y-70448714D02*
X107714143Y-69686714D01*
X107641572Y-69795571D01*
X107569000Y-69868143D01*
X107496429Y-69904429D01*
X111687429Y-70521286D02*
X111614857Y-70485000D01*
X111542286Y-70412429D01*
X111433429Y-70303571D01*
X111360857Y-70267286D01*
X111288286Y-70267286D01*
X111324571Y-70448714D02*
X111252000Y-70412429D01*
X111179429Y-70339857D01*
X111143143Y-70194714D01*
X111143143Y-69940714D01*
X111179429Y-69795571D01*
X111252000Y-69723000D01*
X111324571Y-69686714D01*
X111469714Y-69686714D01*
X111542286Y-69723000D01*
X111614857Y-69795571D01*
X111651143Y-69940714D01*
X111651143Y-70194714D01*
X111614857Y-70339857D01*
X111542286Y-70412429D01*
X111469714Y-70448714D01*
X111324571Y-70448714D01*
X111941429Y-69759286D02*
X111977715Y-69723000D01*
X112050286Y-69686714D01*
X112231715Y-69686714D01*
X112304286Y-69723000D01*
X112340572Y-69759286D01*
X112376857Y-69831857D01*
X112376857Y-69904429D01*
X112340572Y-70013286D01*
X111905143Y-70448714D01*
X112376857Y-70448714D01*
X116132429Y-70521286D02*
X116059857Y-70485000D01*
X115987286Y-70412429D01*
X115878429Y-70303571D01*
X115805857Y-70267286D01*
X115733286Y-70267286D01*
X115769571Y-70448714D02*
X115697000Y-70412429D01*
X115624429Y-70339857D01*
X115588143Y-70194714D01*
X115588143Y-69940714D01*
X115624429Y-69795571D01*
X115697000Y-69723000D01*
X115769571Y-69686714D01*
X115914714Y-69686714D01*
X115987286Y-69723000D01*
X116059857Y-69795571D01*
X116096143Y-69940714D01*
X116096143Y-70194714D01*
X116059857Y-70339857D01*
X115987286Y-70412429D01*
X115914714Y-70448714D01*
X115769571Y-70448714D01*
X116350143Y-69686714D02*
X116821857Y-69686714D01*
X116567857Y-69977000D01*
X116676715Y-69977000D01*
X116749286Y-70013286D01*
X116785572Y-70049571D01*
X116821857Y-70122143D01*
X116821857Y-70303571D01*
X116785572Y-70376143D01*
X116749286Y-70412429D01*
X116676715Y-70448714D01*
X116459000Y-70448714D01*
X116386429Y-70412429D01*
X116350143Y-70376143D01*
X123287429Y-70476286D02*
X123214857Y-70440000D01*
X123142286Y-70367429D01*
X123033429Y-70258571D01*
X122960857Y-70222286D01*
X122888286Y-70222286D01*
X122924571Y-70403714D02*
X122852000Y-70367429D01*
X122779429Y-70294857D01*
X122743143Y-70149714D01*
X122743143Y-69895714D01*
X122779429Y-69750571D01*
X122852000Y-69678000D01*
X122924571Y-69641714D01*
X123069714Y-69641714D01*
X123142286Y-69678000D01*
X123214857Y-69750571D01*
X123251143Y-69895714D01*
X123251143Y-70149714D01*
X123214857Y-70294857D01*
X123142286Y-70367429D01*
X123069714Y-70403714D01*
X122924571Y-70403714D01*
X123904286Y-69895714D02*
X123904286Y-70403714D01*
X123722857Y-69605429D02*
X123541429Y-70149714D01*
X124013143Y-70149714D01*
X127687429Y-70476286D02*
X127614857Y-70440000D01*
X127542286Y-70367429D01*
X127433429Y-70258571D01*
X127360857Y-70222286D01*
X127288286Y-70222286D01*
X127324571Y-70403714D02*
X127252000Y-70367429D01*
X127179429Y-70294857D01*
X127143143Y-70149714D01*
X127143143Y-69895714D01*
X127179429Y-69750571D01*
X127252000Y-69678000D01*
X127324571Y-69641714D01*
X127469714Y-69641714D01*
X127542286Y-69678000D01*
X127614857Y-69750571D01*
X127651143Y-69895714D01*
X127651143Y-70149714D01*
X127614857Y-70294857D01*
X127542286Y-70367429D01*
X127469714Y-70403714D01*
X127324571Y-70403714D01*
X128340572Y-69641714D02*
X127977715Y-69641714D01*
X127941429Y-70004571D01*
X127977715Y-69968286D01*
X128050286Y-69932000D01*
X128231715Y-69932000D01*
X128304286Y-69968286D01*
X128340572Y-70004571D01*
X128376857Y-70077143D01*
X128376857Y-70258571D01*
X128340572Y-70331143D01*
X128304286Y-70367429D01*
X128231715Y-70403714D01*
X128050286Y-70403714D01*
X127977715Y-70367429D01*
X127941429Y-70331143D01*
X132087429Y-70476286D02*
X132014857Y-70440000D01*
X131942286Y-70367429D01*
X131833429Y-70258571D01*
X131760857Y-70222286D01*
X131688286Y-70222286D01*
X131724571Y-70403714D02*
X131652000Y-70367429D01*
X131579429Y-70294857D01*
X131543143Y-70149714D01*
X131543143Y-69895714D01*
X131579429Y-69750571D01*
X131652000Y-69678000D01*
X131724571Y-69641714D01*
X131869714Y-69641714D01*
X131942286Y-69678000D01*
X132014857Y-69750571D01*
X132051143Y-69895714D01*
X132051143Y-70149714D01*
X132014857Y-70294857D01*
X131942286Y-70367429D01*
X131869714Y-70403714D01*
X131724571Y-70403714D01*
X132704286Y-69641714D02*
X132559143Y-69641714D01*
X132486572Y-69678000D01*
X132450286Y-69714286D01*
X132377715Y-69823143D01*
X132341429Y-69968286D01*
X132341429Y-70258571D01*
X132377715Y-70331143D01*
X132414000Y-70367429D01*
X132486572Y-70403714D01*
X132631715Y-70403714D01*
X132704286Y-70367429D01*
X132740572Y-70331143D01*
X132776857Y-70258571D01*
X132776857Y-70077143D01*
X132740572Y-70004571D01*
X132704286Y-69968286D01*
X132631715Y-69932000D01*
X132486572Y-69932000D01*
X132414000Y-69968286D01*
X132377715Y-70004571D01*
X132341429Y-70077143D01*
X139287429Y-70476286D02*
X139214857Y-70440000D01*
X139142286Y-70367429D01*
X139033429Y-70258571D01*
X138960857Y-70222286D01*
X138888286Y-70222286D01*
X138924571Y-70403714D02*
X138852000Y-70367429D01*
X138779429Y-70294857D01*
X138743143Y-70149714D01*
X138743143Y-69895714D01*
X138779429Y-69750571D01*
X138852000Y-69678000D01*
X138924571Y-69641714D01*
X139069714Y-69641714D01*
X139142286Y-69678000D01*
X139214857Y-69750571D01*
X139251143Y-69895714D01*
X139251143Y-70149714D01*
X139214857Y-70294857D01*
X139142286Y-70367429D01*
X139069714Y-70403714D01*
X138924571Y-70403714D01*
X139505143Y-69641714D02*
X140013143Y-69641714D01*
X139686572Y-70403714D01*
X143687429Y-70476286D02*
X143614857Y-70440000D01*
X143542286Y-70367429D01*
X143433429Y-70258571D01*
X143360857Y-70222286D01*
X143288286Y-70222286D01*
X143324571Y-70403714D02*
X143252000Y-70367429D01*
X143179429Y-70294857D01*
X143143143Y-70149714D01*
X143143143Y-69895714D01*
X143179429Y-69750571D01*
X143252000Y-69678000D01*
X143324571Y-69641714D01*
X143469714Y-69641714D01*
X143542286Y-69678000D01*
X143614857Y-69750571D01*
X143651143Y-69895714D01*
X143651143Y-70149714D01*
X143614857Y-70294857D01*
X143542286Y-70367429D01*
X143469714Y-70403714D01*
X143324571Y-70403714D01*
X144086572Y-69968286D02*
X144014000Y-69932000D01*
X143977715Y-69895714D01*
X143941429Y-69823143D01*
X143941429Y-69786857D01*
X143977715Y-69714286D01*
X144014000Y-69678000D01*
X144086572Y-69641714D01*
X144231715Y-69641714D01*
X144304286Y-69678000D01*
X144340572Y-69714286D01*
X144376857Y-69786857D01*
X144376857Y-69823143D01*
X144340572Y-69895714D01*
X144304286Y-69932000D01*
X144231715Y-69968286D01*
X144086572Y-69968286D01*
X144014000Y-70004571D01*
X143977715Y-70040857D01*
X143941429Y-70113429D01*
X143941429Y-70258571D01*
X143977715Y-70331143D01*
X144014000Y-70367429D01*
X144086572Y-70403714D01*
X144231715Y-70403714D01*
X144304286Y-70367429D01*
X144340572Y-70331143D01*
X144376857Y-70258571D01*
X144376857Y-70113429D01*
X144340572Y-70040857D01*
X144304286Y-70004571D01*
X144231715Y-69968286D01*
X148087429Y-70476286D02*
X148014857Y-70440000D01*
X147942286Y-70367429D01*
X147833429Y-70258571D01*
X147760857Y-70222286D01*
X147688286Y-70222286D01*
X147724571Y-70403714D02*
X147652000Y-70367429D01*
X147579429Y-70294857D01*
X147543143Y-70149714D01*
X147543143Y-69895714D01*
X147579429Y-69750571D01*
X147652000Y-69678000D01*
X147724571Y-69641714D01*
X147869714Y-69641714D01*
X147942286Y-69678000D01*
X148014857Y-69750571D01*
X148051143Y-69895714D01*
X148051143Y-70149714D01*
X148014857Y-70294857D01*
X147942286Y-70367429D01*
X147869714Y-70403714D01*
X147724571Y-70403714D01*
X148414000Y-70403714D02*
X148559143Y-70403714D01*
X148631715Y-70367429D01*
X148668000Y-70331143D01*
X148740572Y-70222286D01*
X148776857Y-70077143D01*
X148776857Y-69786857D01*
X148740572Y-69714286D01*
X148704286Y-69678000D01*
X148631715Y-69641714D01*
X148486572Y-69641714D01*
X148414000Y-69678000D01*
X148377715Y-69714286D01*
X148341429Y-69786857D01*
X148341429Y-69968286D01*
X148377715Y-70040857D01*
X148414000Y-70077143D01*
X148486572Y-70113429D01*
X148631715Y-70113429D01*
X148704286Y-70077143D01*
X148740572Y-70040857D01*
X148776857Y-69968286D01*
X154924572Y-70476286D02*
X154852000Y-70440000D01*
X154779429Y-70367429D01*
X154670572Y-70258571D01*
X154598000Y-70222286D01*
X154525429Y-70222286D01*
X154561714Y-70403714D02*
X154489143Y-70367429D01*
X154416572Y-70294857D01*
X154380286Y-70149714D01*
X154380286Y-69895714D01*
X154416572Y-69750571D01*
X154489143Y-69678000D01*
X154561714Y-69641714D01*
X154706857Y-69641714D01*
X154779429Y-69678000D01*
X154852000Y-69750571D01*
X154888286Y-69895714D01*
X154888286Y-70149714D01*
X154852000Y-70294857D01*
X154779429Y-70367429D01*
X154706857Y-70403714D01*
X154561714Y-70403714D01*
X155614000Y-70403714D02*
X155178572Y-70403714D01*
X155396286Y-70403714D02*
X155396286Y-69641714D01*
X155323715Y-69750571D01*
X155251143Y-69823143D01*
X155178572Y-69859429D01*
X156085714Y-69641714D02*
X156158286Y-69641714D01*
X156230857Y-69678000D01*
X156267143Y-69714286D01*
X156303429Y-69786857D01*
X156339714Y-69932000D01*
X156339714Y-70113429D01*
X156303429Y-70258571D01*
X156267143Y-70331143D01*
X156230857Y-70367429D01*
X156158286Y-70403714D01*
X156085714Y-70403714D01*
X156013143Y-70367429D01*
X155976857Y-70331143D01*
X155940572Y-70258571D01*
X155904286Y-70113429D01*
X155904286Y-69932000D01*
X155940572Y-69786857D01*
X155976857Y-69714286D01*
X156013143Y-69678000D01*
X156085714Y-69641714D01*
X159324572Y-70476286D02*
X159252000Y-70440000D01*
X159179429Y-70367429D01*
X159070572Y-70258571D01*
X158998000Y-70222286D01*
X158925429Y-70222286D01*
X158961714Y-70403714D02*
X158889143Y-70367429D01*
X158816572Y-70294857D01*
X158780286Y-70149714D01*
X158780286Y-69895714D01*
X158816572Y-69750571D01*
X158889143Y-69678000D01*
X158961714Y-69641714D01*
X159106857Y-69641714D01*
X159179429Y-69678000D01*
X159252000Y-69750571D01*
X159288286Y-69895714D01*
X159288286Y-70149714D01*
X159252000Y-70294857D01*
X159179429Y-70367429D01*
X159106857Y-70403714D01*
X158961714Y-70403714D01*
X160014000Y-70403714D02*
X159578572Y-70403714D01*
X159796286Y-70403714D02*
X159796286Y-69641714D01*
X159723715Y-69750571D01*
X159651143Y-69823143D01*
X159578572Y-69859429D01*
X160739714Y-70403714D02*
X160304286Y-70403714D01*
X160522000Y-70403714D02*
X160522000Y-69641714D01*
X160449429Y-69750571D01*
X160376857Y-69823143D01*
X160304286Y-69859429D01*
X163724572Y-70476286D02*
X163652000Y-70440000D01*
X163579429Y-70367429D01*
X163470572Y-70258571D01*
X163398000Y-70222286D01*
X163325429Y-70222286D01*
X163361714Y-70403714D02*
X163289143Y-70367429D01*
X163216572Y-70294857D01*
X163180286Y-70149714D01*
X163180286Y-69895714D01*
X163216572Y-69750571D01*
X163289143Y-69678000D01*
X163361714Y-69641714D01*
X163506857Y-69641714D01*
X163579429Y-69678000D01*
X163652000Y-69750571D01*
X163688286Y-69895714D01*
X163688286Y-70149714D01*
X163652000Y-70294857D01*
X163579429Y-70367429D01*
X163506857Y-70403714D01*
X163361714Y-70403714D01*
X164414000Y-70403714D02*
X163978572Y-70403714D01*
X164196286Y-70403714D02*
X164196286Y-69641714D01*
X164123715Y-69750571D01*
X164051143Y-69823143D01*
X163978572Y-69859429D01*
X164704286Y-69714286D02*
X164740572Y-69678000D01*
X164813143Y-69641714D01*
X164994572Y-69641714D01*
X165067143Y-69678000D01*
X165103429Y-69714286D01*
X165139714Y-69786857D01*
X165139714Y-69859429D01*
X165103429Y-69968286D01*
X164668000Y-70403714D01*
X165139714Y-70403714D01*
X170924572Y-70476286D02*
X170852000Y-70440000D01*
X170779429Y-70367429D01*
X170670572Y-70258571D01*
X170598000Y-70222286D01*
X170525429Y-70222286D01*
X170561714Y-70403714D02*
X170489143Y-70367429D01*
X170416572Y-70294857D01*
X170380286Y-70149714D01*
X170380286Y-69895714D01*
X170416572Y-69750571D01*
X170489143Y-69678000D01*
X170561714Y-69641714D01*
X170706857Y-69641714D01*
X170779429Y-69678000D01*
X170852000Y-69750571D01*
X170888286Y-69895714D01*
X170888286Y-70149714D01*
X170852000Y-70294857D01*
X170779429Y-70367429D01*
X170706857Y-70403714D01*
X170561714Y-70403714D01*
X171614000Y-70403714D02*
X171178572Y-70403714D01*
X171396286Y-70403714D02*
X171396286Y-69641714D01*
X171323715Y-69750571D01*
X171251143Y-69823143D01*
X171178572Y-69859429D01*
X171868000Y-69641714D02*
X172339714Y-69641714D01*
X172085714Y-69932000D01*
X172194572Y-69932000D01*
X172267143Y-69968286D01*
X172303429Y-70004571D01*
X172339714Y-70077143D01*
X172339714Y-70258571D01*
X172303429Y-70331143D01*
X172267143Y-70367429D01*
X172194572Y-70403714D01*
X171976857Y-70403714D01*
X171904286Y-70367429D01*
X171868000Y-70331143D01*
X175324572Y-70476286D02*
X175252000Y-70440000D01*
X175179429Y-70367429D01*
X175070572Y-70258571D01*
X174998000Y-70222286D01*
X174925429Y-70222286D01*
X174961714Y-70403714D02*
X174889143Y-70367429D01*
X174816572Y-70294857D01*
X174780286Y-70149714D01*
X174780286Y-69895714D01*
X174816572Y-69750571D01*
X174889143Y-69678000D01*
X174961714Y-69641714D01*
X175106857Y-69641714D01*
X175179429Y-69678000D01*
X175252000Y-69750571D01*
X175288286Y-69895714D01*
X175288286Y-70149714D01*
X175252000Y-70294857D01*
X175179429Y-70367429D01*
X175106857Y-70403714D01*
X174961714Y-70403714D01*
X176014000Y-70403714D02*
X175578572Y-70403714D01*
X175796286Y-70403714D02*
X175796286Y-69641714D01*
X175723715Y-69750571D01*
X175651143Y-69823143D01*
X175578572Y-69859429D01*
X176667143Y-69895714D02*
X176667143Y-70403714D01*
X176485714Y-69605429D02*
X176304286Y-70149714D01*
X176776000Y-70149714D01*
X179724572Y-70476286D02*
X179652000Y-70440000D01*
X179579429Y-70367429D01*
X179470572Y-70258571D01*
X179398000Y-70222286D01*
X179325429Y-70222286D01*
X179361714Y-70403714D02*
X179289143Y-70367429D01*
X179216572Y-70294857D01*
X179180286Y-70149714D01*
X179180286Y-69895714D01*
X179216572Y-69750571D01*
X179289143Y-69678000D01*
X179361714Y-69641714D01*
X179506857Y-69641714D01*
X179579429Y-69678000D01*
X179652000Y-69750571D01*
X179688286Y-69895714D01*
X179688286Y-70149714D01*
X179652000Y-70294857D01*
X179579429Y-70367429D01*
X179506857Y-70403714D01*
X179361714Y-70403714D01*
X180414000Y-70403714D02*
X179978572Y-70403714D01*
X180196286Y-70403714D02*
X180196286Y-69641714D01*
X180123715Y-69750571D01*
X180051143Y-69823143D01*
X179978572Y-69859429D01*
X181103429Y-69641714D02*
X180740572Y-69641714D01*
X180704286Y-70004571D01*
X180740572Y-69968286D01*
X180813143Y-69932000D01*
X180994572Y-69932000D01*
X181067143Y-69968286D01*
X181103429Y-70004571D01*
X181139714Y-70077143D01*
X181139714Y-70258571D01*
X181103429Y-70331143D01*
X181067143Y-70367429D01*
X180994572Y-70403714D01*
X180813143Y-70403714D01*
X180740572Y-70367429D01*
X180704286Y-70331143D01*
D10*
X107248334Y-69465952D02*
X107115000Y-69275476D01*
X107019762Y-69465952D02*
X107019762Y-69065952D01*
X107172143Y-69065952D01*
X107210238Y-69085000D01*
X107229286Y-69104048D01*
X107248334Y-69142143D01*
X107248334Y-69199286D01*
X107229286Y-69237381D01*
X107210238Y-69256429D01*
X107172143Y-69275476D01*
X107019762Y-69275476D01*
X107591191Y-69199286D02*
X107591191Y-69465952D01*
X107495953Y-69046905D02*
X107400714Y-69332619D01*
X107648334Y-69332619D01*
X111693334Y-69465952D02*
X111560000Y-69275476D01*
X111464762Y-69465952D02*
X111464762Y-69065952D01*
X111617143Y-69065952D01*
X111655238Y-69085000D01*
X111674286Y-69104048D01*
X111693334Y-69142143D01*
X111693334Y-69199286D01*
X111674286Y-69237381D01*
X111655238Y-69256429D01*
X111617143Y-69275476D01*
X111464762Y-69275476D01*
X112055238Y-69065952D02*
X111864762Y-69065952D01*
X111845714Y-69256429D01*
X111864762Y-69237381D01*
X111902857Y-69218333D01*
X111998095Y-69218333D01*
X112036191Y-69237381D01*
X112055238Y-69256429D01*
X112074286Y-69294524D01*
X112074286Y-69389762D01*
X112055238Y-69427857D01*
X112036191Y-69446905D01*
X111998095Y-69465952D01*
X111902857Y-69465952D01*
X111864762Y-69446905D01*
X111845714Y-69427857D01*
X116138334Y-69465952D02*
X116005000Y-69275476D01*
X115909762Y-69465952D02*
X115909762Y-69065952D01*
X116062143Y-69065952D01*
X116100238Y-69085000D01*
X116119286Y-69104048D01*
X116138334Y-69142143D01*
X116138334Y-69199286D01*
X116119286Y-69237381D01*
X116100238Y-69256429D01*
X116062143Y-69275476D01*
X115909762Y-69275476D01*
X116481191Y-69065952D02*
X116405000Y-69065952D01*
X116366905Y-69085000D01*
X116347857Y-69104048D01*
X116309762Y-69161190D01*
X116290714Y-69237381D01*
X116290714Y-69389762D01*
X116309762Y-69427857D01*
X116328810Y-69446905D01*
X116366905Y-69465952D01*
X116443095Y-69465952D01*
X116481191Y-69446905D01*
X116500238Y-69427857D01*
X116519286Y-69389762D01*
X116519286Y-69294524D01*
X116500238Y-69256429D01*
X116481191Y-69237381D01*
X116443095Y-69218333D01*
X116366905Y-69218333D01*
X116328810Y-69237381D01*
X116309762Y-69256429D01*
X116290714Y-69294524D01*
X123293334Y-69480952D02*
X123160000Y-69290476D01*
X123064762Y-69480952D02*
X123064762Y-69080952D01*
X123217143Y-69080952D01*
X123255238Y-69100000D01*
X123274286Y-69119048D01*
X123293334Y-69157143D01*
X123293334Y-69214286D01*
X123274286Y-69252381D01*
X123255238Y-69271429D01*
X123217143Y-69290476D01*
X123064762Y-69290476D01*
X123426667Y-69080952D02*
X123693334Y-69080952D01*
X123521905Y-69480952D01*
X127693334Y-69480952D02*
X127560000Y-69290476D01*
X127464762Y-69480952D02*
X127464762Y-69080952D01*
X127617143Y-69080952D01*
X127655238Y-69100000D01*
X127674286Y-69119048D01*
X127693334Y-69157143D01*
X127693334Y-69214286D01*
X127674286Y-69252381D01*
X127655238Y-69271429D01*
X127617143Y-69290476D01*
X127464762Y-69290476D01*
X127921905Y-69252381D02*
X127883810Y-69233333D01*
X127864762Y-69214286D01*
X127845714Y-69176190D01*
X127845714Y-69157143D01*
X127864762Y-69119048D01*
X127883810Y-69100000D01*
X127921905Y-69080952D01*
X127998095Y-69080952D01*
X128036191Y-69100000D01*
X128055238Y-69119048D01*
X128074286Y-69157143D01*
X128074286Y-69176190D01*
X128055238Y-69214286D01*
X128036191Y-69233333D01*
X127998095Y-69252381D01*
X127921905Y-69252381D01*
X127883810Y-69271429D01*
X127864762Y-69290476D01*
X127845714Y-69328571D01*
X127845714Y-69404762D01*
X127864762Y-69442857D01*
X127883810Y-69461905D01*
X127921905Y-69480952D01*
X127998095Y-69480952D01*
X128036191Y-69461905D01*
X128055238Y-69442857D01*
X128074286Y-69404762D01*
X128074286Y-69328571D01*
X128055238Y-69290476D01*
X128036191Y-69271429D01*
X127998095Y-69252381D01*
X132093334Y-69480952D02*
X131960000Y-69290476D01*
X131864762Y-69480952D02*
X131864762Y-69080952D01*
X132017143Y-69080952D01*
X132055238Y-69100000D01*
X132074286Y-69119048D01*
X132093334Y-69157143D01*
X132093334Y-69214286D01*
X132074286Y-69252381D01*
X132055238Y-69271429D01*
X132017143Y-69290476D01*
X131864762Y-69290476D01*
X132283810Y-69480952D02*
X132360000Y-69480952D01*
X132398095Y-69461905D01*
X132417143Y-69442857D01*
X132455238Y-69385714D01*
X132474286Y-69309524D01*
X132474286Y-69157143D01*
X132455238Y-69119048D01*
X132436191Y-69100000D01*
X132398095Y-69080952D01*
X132321905Y-69080952D01*
X132283810Y-69100000D01*
X132264762Y-69119048D01*
X132245714Y-69157143D01*
X132245714Y-69252381D01*
X132264762Y-69290476D01*
X132283810Y-69309524D01*
X132321905Y-69328571D01*
X132398095Y-69328571D01*
X132436191Y-69309524D01*
X132455238Y-69290476D01*
X132474286Y-69252381D01*
X139102858Y-69480952D02*
X138969524Y-69290476D01*
X138874286Y-69480952D02*
X138874286Y-69080952D01*
X139026667Y-69080952D01*
X139064762Y-69100000D01*
X139083810Y-69119048D01*
X139102858Y-69157143D01*
X139102858Y-69214286D01*
X139083810Y-69252381D01*
X139064762Y-69271429D01*
X139026667Y-69290476D01*
X138874286Y-69290476D01*
X139483810Y-69480952D02*
X139255238Y-69480952D01*
X139369524Y-69480952D02*
X139369524Y-69080952D01*
X139331429Y-69138095D01*
X139293334Y-69176190D01*
X139255238Y-69195238D01*
X139731429Y-69080952D02*
X139769524Y-69080952D01*
X139807619Y-69100000D01*
X139826667Y-69119048D01*
X139845714Y-69157143D01*
X139864762Y-69233333D01*
X139864762Y-69328571D01*
X139845714Y-69404762D01*
X139826667Y-69442857D01*
X139807619Y-69461905D01*
X139769524Y-69480952D01*
X139731429Y-69480952D01*
X139693333Y-69461905D01*
X139674286Y-69442857D01*
X139655238Y-69404762D01*
X139636190Y-69328571D01*
X139636190Y-69233333D01*
X139655238Y-69157143D01*
X139674286Y-69119048D01*
X139693333Y-69100000D01*
X139731429Y-69080952D01*
X143502858Y-69480952D02*
X143369524Y-69290476D01*
X143274286Y-69480952D02*
X143274286Y-69080952D01*
X143426667Y-69080952D01*
X143464762Y-69100000D01*
X143483810Y-69119048D01*
X143502858Y-69157143D01*
X143502858Y-69214286D01*
X143483810Y-69252381D01*
X143464762Y-69271429D01*
X143426667Y-69290476D01*
X143274286Y-69290476D01*
X143883810Y-69480952D02*
X143655238Y-69480952D01*
X143769524Y-69480952D02*
X143769524Y-69080952D01*
X143731429Y-69138095D01*
X143693334Y-69176190D01*
X143655238Y-69195238D01*
X144264762Y-69480952D02*
X144036190Y-69480952D01*
X144150476Y-69480952D02*
X144150476Y-69080952D01*
X144112381Y-69138095D01*
X144074286Y-69176190D01*
X144036190Y-69195238D01*
X147902858Y-69480952D02*
X147769524Y-69290476D01*
X147674286Y-69480952D02*
X147674286Y-69080952D01*
X147826667Y-69080952D01*
X147864762Y-69100000D01*
X147883810Y-69119048D01*
X147902858Y-69157143D01*
X147902858Y-69214286D01*
X147883810Y-69252381D01*
X147864762Y-69271429D01*
X147826667Y-69290476D01*
X147674286Y-69290476D01*
X148283810Y-69480952D02*
X148055238Y-69480952D01*
X148169524Y-69480952D02*
X148169524Y-69080952D01*
X148131429Y-69138095D01*
X148093334Y-69176190D01*
X148055238Y-69195238D01*
X148436190Y-69119048D02*
X148455238Y-69100000D01*
X148493333Y-69080952D01*
X148588571Y-69080952D01*
X148626667Y-69100000D01*
X148645714Y-69119048D01*
X148664762Y-69157143D01*
X148664762Y-69195238D01*
X148645714Y-69252381D01*
X148417143Y-69480952D01*
X148664762Y-69480952D01*
X155102858Y-69480952D02*
X154969524Y-69290476D01*
X154874286Y-69480952D02*
X154874286Y-69080952D01*
X155026667Y-69080952D01*
X155064762Y-69100000D01*
X155083810Y-69119048D01*
X155102858Y-69157143D01*
X155102858Y-69214286D01*
X155083810Y-69252381D01*
X155064762Y-69271429D01*
X155026667Y-69290476D01*
X154874286Y-69290476D01*
X155483810Y-69480952D02*
X155255238Y-69480952D01*
X155369524Y-69480952D02*
X155369524Y-69080952D01*
X155331429Y-69138095D01*
X155293334Y-69176190D01*
X155255238Y-69195238D01*
X155617143Y-69080952D02*
X155864762Y-69080952D01*
X155731429Y-69233333D01*
X155788571Y-69233333D01*
X155826667Y-69252381D01*
X155845714Y-69271429D01*
X155864762Y-69309524D01*
X155864762Y-69404762D01*
X155845714Y-69442857D01*
X155826667Y-69461905D01*
X155788571Y-69480952D01*
X155674286Y-69480952D01*
X155636190Y-69461905D01*
X155617143Y-69442857D01*
X159502858Y-69480952D02*
X159369524Y-69290476D01*
X159274286Y-69480952D02*
X159274286Y-69080952D01*
X159426667Y-69080952D01*
X159464762Y-69100000D01*
X159483810Y-69119048D01*
X159502858Y-69157143D01*
X159502858Y-69214286D01*
X159483810Y-69252381D01*
X159464762Y-69271429D01*
X159426667Y-69290476D01*
X159274286Y-69290476D01*
X159883810Y-69480952D02*
X159655238Y-69480952D01*
X159769524Y-69480952D02*
X159769524Y-69080952D01*
X159731429Y-69138095D01*
X159693334Y-69176190D01*
X159655238Y-69195238D01*
X160226667Y-69214286D02*
X160226667Y-69480952D01*
X160131429Y-69061905D02*
X160036190Y-69347619D01*
X160283810Y-69347619D01*
X163902858Y-69480952D02*
X163769524Y-69290476D01*
X163674286Y-69480952D02*
X163674286Y-69080952D01*
X163826667Y-69080952D01*
X163864762Y-69100000D01*
X163883810Y-69119048D01*
X163902858Y-69157143D01*
X163902858Y-69214286D01*
X163883810Y-69252381D01*
X163864762Y-69271429D01*
X163826667Y-69290476D01*
X163674286Y-69290476D01*
X164283810Y-69480952D02*
X164055238Y-69480952D01*
X164169524Y-69480952D02*
X164169524Y-69080952D01*
X164131429Y-69138095D01*
X164093334Y-69176190D01*
X164055238Y-69195238D01*
X164645714Y-69080952D02*
X164455238Y-69080952D01*
X164436190Y-69271429D01*
X164455238Y-69252381D01*
X164493333Y-69233333D01*
X164588571Y-69233333D01*
X164626667Y-69252381D01*
X164645714Y-69271429D01*
X164664762Y-69309524D01*
X164664762Y-69404762D01*
X164645714Y-69442857D01*
X164626667Y-69461905D01*
X164588571Y-69480952D01*
X164493333Y-69480952D01*
X164455238Y-69461905D01*
X164436190Y-69442857D01*
X171102858Y-69480952D02*
X170969524Y-69290476D01*
X170874286Y-69480952D02*
X170874286Y-69080952D01*
X171026667Y-69080952D01*
X171064762Y-69100000D01*
X171083810Y-69119048D01*
X171102858Y-69157143D01*
X171102858Y-69214286D01*
X171083810Y-69252381D01*
X171064762Y-69271429D01*
X171026667Y-69290476D01*
X170874286Y-69290476D01*
X171483810Y-69480952D02*
X171255238Y-69480952D01*
X171369524Y-69480952D02*
X171369524Y-69080952D01*
X171331429Y-69138095D01*
X171293334Y-69176190D01*
X171255238Y-69195238D01*
X171826667Y-69080952D02*
X171750476Y-69080952D01*
X171712381Y-69100000D01*
X171693333Y-69119048D01*
X171655238Y-69176190D01*
X171636190Y-69252381D01*
X171636190Y-69404762D01*
X171655238Y-69442857D01*
X171674286Y-69461905D01*
X171712381Y-69480952D01*
X171788571Y-69480952D01*
X171826667Y-69461905D01*
X171845714Y-69442857D01*
X171864762Y-69404762D01*
X171864762Y-69309524D01*
X171845714Y-69271429D01*
X171826667Y-69252381D01*
X171788571Y-69233333D01*
X171712381Y-69233333D01*
X171674286Y-69252381D01*
X171655238Y-69271429D01*
X171636190Y-69309524D01*
X175502858Y-69480952D02*
X175369524Y-69290476D01*
X175274286Y-69480952D02*
X175274286Y-69080952D01*
X175426667Y-69080952D01*
X175464762Y-69100000D01*
X175483810Y-69119048D01*
X175502858Y-69157143D01*
X175502858Y-69214286D01*
X175483810Y-69252381D01*
X175464762Y-69271429D01*
X175426667Y-69290476D01*
X175274286Y-69290476D01*
X175883810Y-69480952D02*
X175655238Y-69480952D01*
X175769524Y-69480952D02*
X175769524Y-69080952D01*
X175731429Y-69138095D01*
X175693334Y-69176190D01*
X175655238Y-69195238D01*
X176017143Y-69080952D02*
X176283810Y-69080952D01*
X176112381Y-69480952D01*
X179902858Y-69480952D02*
X179769524Y-69290476D01*
X179674286Y-69480952D02*
X179674286Y-69080952D01*
X179826667Y-69080952D01*
X179864762Y-69100000D01*
X179883810Y-69119048D01*
X179902858Y-69157143D01*
X179902858Y-69214286D01*
X179883810Y-69252381D01*
X179864762Y-69271429D01*
X179826667Y-69290476D01*
X179674286Y-69290476D01*
X180283810Y-69480952D02*
X180055238Y-69480952D01*
X180169524Y-69480952D02*
X180169524Y-69080952D01*
X180131429Y-69138095D01*
X180093334Y-69176190D01*
X180055238Y-69195238D01*
X180512381Y-69252381D02*
X180474286Y-69233333D01*
X180455238Y-69214286D01*
X180436190Y-69176190D01*
X180436190Y-69157143D01*
X180455238Y-69119048D01*
X180474286Y-69100000D01*
X180512381Y-69080952D01*
X180588571Y-69080952D01*
X180626667Y-69100000D01*
X180645714Y-69119048D01*
X180664762Y-69157143D01*
X180664762Y-69176190D01*
X180645714Y-69214286D01*
X180626667Y-69233333D01*
X180588571Y-69252381D01*
X180512381Y-69252381D01*
X180474286Y-69271429D01*
X180455238Y-69290476D01*
X180436190Y-69328571D01*
X180436190Y-69404762D01*
X180455238Y-69442857D01*
X180474286Y-69461905D01*
X180512381Y-69480952D01*
X180588571Y-69480952D01*
X180626667Y-69461905D01*
X180645714Y-69442857D01*
X180664762Y-69404762D01*
X180664762Y-69328571D01*
X180645714Y-69290476D01*
X180626667Y-69271429D01*
X180588571Y-69252381D01*
D16*
X171381619Y-98774095D02*
X172204095Y-98774095D01*
X172300857Y-98725714D01*
X172349238Y-98677333D01*
X172397619Y-98580571D01*
X172397619Y-98387048D01*
X172349238Y-98290286D01*
X172300857Y-98241905D01*
X172204095Y-98193524D01*
X171381619Y-98193524D01*
X172397619Y-97177524D02*
X172397619Y-97758095D01*
X172397619Y-97467809D02*
X171381619Y-97467809D01*
X171526762Y-97564571D01*
X171623524Y-97661333D01*
X171671905Y-97758095D01*
D17*
X141197945Y-96205313D02*
X141626859Y-96634227D01*
X141702550Y-96659457D01*
X141753011Y-96659457D01*
X141828702Y-96634227D01*
X141929622Y-96533306D01*
X141954852Y-96457616D01*
X141954852Y-96407155D01*
X141929622Y-96331464D01*
X141500708Y-95902550D01*
X141778241Y-95725938D02*
X141778241Y-95675478D01*
X141803471Y-95599787D01*
X141929622Y-95473636D01*
X142005313Y-95448406D01*
X142055773Y-95448406D01*
X142131464Y-95473636D01*
X142181925Y-95524097D01*
X142232385Y-95625018D01*
X142232385Y-96230543D01*
X142560378Y-95902550D01*
D16*
X197288524Y-94449904D02*
X196018524Y-94449904D01*
X196018524Y-94207999D01*
X196079000Y-94062857D01*
X196199952Y-93966095D01*
X196320905Y-93917714D01*
X196562810Y-93869333D01*
X196744238Y-93869333D01*
X196986143Y-93917714D01*
X197107095Y-93966095D01*
X197228048Y-94062857D01*
X197288524Y-94207999D01*
X197288524Y-94449904D01*
X197288524Y-92901714D02*
X197288524Y-93482285D01*
X197288524Y-93191999D02*
X196018524Y-93191999D01*
X196199952Y-93288761D01*
X196320905Y-93385523D01*
X196381381Y-93482285D01*
D15*
X190261905Y-82452381D02*
X190261905Y-81452381D01*
X190642858Y-81452381D01*
X190738096Y-81500000D01*
X190785715Y-81547619D01*
X190833334Y-81642857D01*
X190833334Y-81785714D01*
X190785715Y-81880952D01*
X190738096Y-81928571D01*
X190642858Y-81976190D01*
X190261905Y-81976190D01*
X191214286Y-81547619D02*
X191261905Y-81500000D01*
X191357143Y-81452381D01*
X191595239Y-81452381D01*
X191690477Y-81500000D01*
X191738096Y-81547619D01*
X191785715Y-81642857D01*
X191785715Y-81738095D01*
X191738096Y-81880952D01*
X191166667Y-82452381D01*
X191785715Y-82452381D01*
X196452381Y-70714285D02*
X196452381Y-71285714D01*
X196452381Y-71000000D02*
X195452381Y-71000000D01*
X195595238Y-71095238D01*
X195690476Y-71190476D01*
X195738095Y-71285714D01*
%LPC*%
D20*
X181100000Y-99800860D03*
X181100000Y-96199140D03*
D21*
X181098980Y-91300000D03*
X177101020Y-91300000D03*
D22*
X114300000Y-80645000D03*
X109220000Y-80645000D03*
X130300000Y-80700000D03*
X125220000Y-80700000D03*
X146300000Y-80700000D03*
X141220000Y-80700000D03*
X162300000Y-80700000D03*
X157220000Y-80700000D03*
X178300000Y-80700000D03*
X173220000Y-80700000D03*
D23*
X113450000Y-103400000D03*
D24*
X115990000Y-103400000D03*
X118530000Y-103400000D03*
X121070000Y-103400000D03*
X123610000Y-103400000D03*
X126150000Y-103400000D03*
D25*
X101530000Y-92290000D03*
D26*
X104070000Y-92290000D03*
X101530000Y-94830000D03*
X104070000Y-94830000D03*
X101530000Y-97370000D03*
X104070000Y-97370000D03*
X101530000Y-99910000D03*
X104070000Y-99910000D03*
D23*
X106680000Y-64135000D03*
D24*
X109220000Y-64135000D03*
X111760000Y-64135000D03*
X114300000Y-64135000D03*
D23*
X122750000Y-64100000D03*
D24*
X125290000Y-64100000D03*
X127830000Y-64100000D03*
X130370000Y-64100000D03*
D23*
X138550000Y-64100000D03*
D24*
X141090000Y-64100000D03*
X143630000Y-64100000D03*
X146170000Y-64100000D03*
D23*
X154750000Y-64100000D03*
D24*
X157290000Y-64100000D03*
X159830000Y-64100000D03*
X162370000Y-64100000D03*
D23*
X170550000Y-64100000D03*
D24*
X173090000Y-64100000D03*
X175630000Y-64100000D03*
X178170000Y-64100000D03*
D27*
X108204000Y-68961000D03*
X106426000Y-68961000D03*
X107315000Y-66929000D03*
X112649000Y-68961000D03*
X110871000Y-68961000D03*
X111760000Y-66929000D03*
X117094000Y-68961000D03*
X115316000Y-68961000D03*
X116205000Y-66929000D03*
X124249000Y-68916000D03*
X122471000Y-68916000D03*
X123360000Y-66884000D03*
X128649000Y-68916000D03*
X126871000Y-68916000D03*
X127760000Y-66884000D03*
X133049000Y-68916000D03*
X131271000Y-68916000D03*
X132160000Y-66884000D03*
X140249000Y-68916000D03*
X138471000Y-68916000D03*
X139360000Y-66884000D03*
X144649000Y-68916000D03*
X142871000Y-68916000D03*
X143760000Y-66884000D03*
X149049000Y-68916000D03*
X147271000Y-68916000D03*
X148160000Y-66884000D03*
X156249000Y-68916000D03*
X154471000Y-68916000D03*
X155360000Y-66884000D03*
X160649000Y-68916000D03*
X158871000Y-68916000D03*
X159760000Y-66884000D03*
X165049000Y-68916000D03*
X163271000Y-68916000D03*
X164160000Y-66884000D03*
X172249000Y-68916000D03*
X170471000Y-68916000D03*
X171360000Y-66884000D03*
X176649000Y-68916000D03*
X174871000Y-68916000D03*
X175760000Y-66884000D03*
X181049000Y-68916000D03*
X179271000Y-68916000D03*
X180160000Y-66884000D03*
D28*
X106553000Y-70485000D03*
X108077000Y-70485000D03*
X110998000Y-70485000D03*
X112522000Y-70485000D03*
X115443000Y-70485000D03*
X116967000Y-70485000D03*
X122598000Y-70500000D03*
X124122000Y-70500000D03*
X126998000Y-70500000D03*
X128522000Y-70500000D03*
X131398000Y-70500000D03*
X132922000Y-70500000D03*
X138598000Y-70500000D03*
X140122000Y-70500000D03*
X142998000Y-70500000D03*
X144522000Y-70500000D03*
X147398000Y-70500000D03*
X148922000Y-70500000D03*
X154598000Y-70500000D03*
X156122000Y-70500000D03*
X158998000Y-70500000D03*
X160522000Y-70500000D03*
X163398000Y-70500000D03*
X164922000Y-70500000D03*
X170598000Y-70500000D03*
X172122000Y-70500000D03*
X174998000Y-70500000D03*
X176522000Y-70500000D03*
X179398000Y-70500000D03*
X180922000Y-70500000D03*
D29*
X169398000Y-98000000D03*
D30*
X176002000Y-98000000D03*
X176002000Y-95714000D03*
X176002000Y-100286000D03*
D10*
G36*
X140331009Y-92551760D02*
X141250587Y-93471338D01*
X141038653Y-93683272D01*
X140119075Y-92763694D01*
X140331009Y-92551760D01*
X140331009Y-92551760D01*
G37*
G36*
X139977186Y-92905582D02*
X140896764Y-93825160D01*
X140684830Y-94037094D01*
X139765252Y-93117516D01*
X139977186Y-92905582D01*
X139977186Y-92905582D01*
G37*
G36*
X139623364Y-93259404D02*
X140542942Y-94178982D01*
X140331008Y-94390916D01*
X139411430Y-93471338D01*
X139623364Y-93259404D01*
X139623364Y-93259404D01*
G37*
G36*
X139271338Y-93611430D02*
X140190916Y-94531008D01*
X139978982Y-94742942D01*
X139059404Y-93823364D01*
X139271338Y-93611430D01*
X139271338Y-93611430D01*
G37*
G36*
X138917516Y-93965252D02*
X139837094Y-94884830D01*
X139625160Y-95096764D01*
X138705582Y-94177186D01*
X138917516Y-93965252D01*
X138917516Y-93965252D01*
G37*
G36*
X141392475Y-91490294D02*
X142312053Y-92409872D01*
X142100119Y-92621806D01*
X141180541Y-91702228D01*
X141392475Y-91490294D01*
X141392475Y-91490294D01*
G37*
G36*
X141038653Y-91844116D02*
X141958231Y-92763694D01*
X141746297Y-92975628D01*
X140826719Y-92056050D01*
X141038653Y-91844116D01*
X141038653Y-91844116D01*
G37*
G36*
X140684831Y-92197938D02*
X141604409Y-93117516D01*
X141392475Y-93329450D01*
X140472897Y-92409872D01*
X140684831Y-92197938D01*
X140684831Y-92197938D01*
G37*
G36*
X138209872Y-97287947D02*
X138421806Y-97499881D01*
X137502228Y-98419459D01*
X137290294Y-98207525D01*
X138209872Y-97287947D01*
X138209872Y-97287947D01*
G37*
G36*
X138563694Y-97641769D02*
X138775628Y-97853703D01*
X137856050Y-98773281D01*
X137644116Y-98561347D01*
X138563694Y-97641769D01*
X138563694Y-97641769D01*
G37*
G36*
X138917516Y-97995591D02*
X139129450Y-98207525D01*
X138209872Y-99127103D01*
X137997938Y-98915169D01*
X138917516Y-97995591D01*
X138917516Y-97995591D01*
G37*
G36*
X139271338Y-98349413D02*
X139483272Y-98561347D01*
X138563694Y-99480925D01*
X138351760Y-99268991D01*
X139271338Y-98349413D01*
X139271338Y-98349413D01*
G37*
G36*
X139625160Y-98703236D02*
X139837094Y-98915170D01*
X138917516Y-99834748D01*
X138705582Y-99622814D01*
X139625160Y-98703236D01*
X139625160Y-98703236D01*
G37*
G36*
X139978982Y-99057058D02*
X140190916Y-99268992D01*
X139271338Y-100188570D01*
X139059404Y-99976636D01*
X139978982Y-99057058D01*
X139978982Y-99057058D01*
G37*
G36*
X140331008Y-99409084D02*
X140542942Y-99621018D01*
X139623364Y-100540596D01*
X139411430Y-100328662D01*
X140331008Y-99409084D01*
X140331008Y-99409084D01*
G37*
G36*
X140684830Y-99762906D02*
X140896764Y-99974840D01*
X139977186Y-100894418D01*
X139765252Y-100682484D01*
X140684830Y-99762906D01*
X140684830Y-99762906D01*
G37*
G36*
X143299881Y-101178194D02*
X144219459Y-102097772D01*
X144007525Y-102309706D01*
X143087947Y-101390128D01*
X143299881Y-101178194D01*
X143299881Y-101178194D01*
G37*
G36*
X143653703Y-100824372D02*
X144573281Y-101743950D01*
X144361347Y-101955884D01*
X143441769Y-101036306D01*
X143653703Y-100824372D01*
X143653703Y-100824372D01*
G37*
G36*
X144007525Y-100470550D02*
X144927103Y-101390128D01*
X144715169Y-101602062D01*
X143795591Y-100682484D01*
X144007525Y-100470550D01*
X144007525Y-100470550D01*
G37*
G36*
X144361347Y-100116728D02*
X145280925Y-101036306D01*
X145068991Y-101248240D01*
X144149413Y-100328662D01*
X144361347Y-100116728D01*
X144361347Y-100116728D01*
G37*
G36*
X144715170Y-99762906D02*
X145634748Y-100682484D01*
X145422814Y-100894418D01*
X144503236Y-99974840D01*
X144715170Y-99762906D01*
X144715170Y-99762906D01*
G37*
G36*
X145068992Y-99409084D02*
X145988570Y-100328662D01*
X145776636Y-100540596D01*
X144857058Y-99621018D01*
X145068992Y-99409084D01*
X145068992Y-99409084D01*
G37*
G36*
X145421018Y-99057058D02*
X146340596Y-99976636D01*
X146128662Y-100188570D01*
X145209084Y-99268992D01*
X145421018Y-99057058D01*
X145421018Y-99057058D01*
G37*
G36*
X145774840Y-98703236D02*
X146694418Y-99622814D01*
X146482484Y-99834748D01*
X145562906Y-98915170D01*
X145774840Y-98703236D01*
X145774840Y-98703236D01*
G37*
G36*
X147897772Y-95380541D02*
X148109706Y-95592475D01*
X147190128Y-96512053D01*
X146978194Y-96300119D01*
X147897772Y-95380541D01*
X147897772Y-95380541D01*
G37*
G36*
X147543950Y-95026719D02*
X147755884Y-95238653D01*
X146836306Y-96158231D01*
X146624372Y-95946297D01*
X147543950Y-95026719D01*
X147543950Y-95026719D01*
G37*
G36*
X147190128Y-94672897D02*
X147402062Y-94884831D01*
X146482484Y-95804409D01*
X146270550Y-95592475D01*
X147190128Y-94672897D01*
X147190128Y-94672897D01*
G37*
G36*
X146836306Y-94319075D02*
X147048240Y-94531009D01*
X146128662Y-95450587D01*
X145916728Y-95238653D01*
X146836306Y-94319075D01*
X146836306Y-94319075D01*
G37*
G36*
X146482484Y-93965252D02*
X146694418Y-94177186D01*
X145774840Y-95096764D01*
X145562906Y-94884830D01*
X146482484Y-93965252D01*
X146482484Y-93965252D01*
G37*
G36*
X146128662Y-93611430D02*
X146340596Y-93823364D01*
X145421018Y-94742942D01*
X145209084Y-94531008D01*
X146128662Y-93611430D01*
X146128662Y-93611430D01*
G37*
G36*
X145776636Y-93259404D02*
X145988570Y-93471338D01*
X145068992Y-94390916D01*
X144857058Y-94178982D01*
X145776636Y-93259404D01*
X145776636Y-93259404D01*
G37*
G36*
X145422814Y-92905582D02*
X145634748Y-93117516D01*
X144715170Y-94037094D01*
X144503236Y-93825160D01*
X145422814Y-92905582D01*
X145422814Y-92905582D01*
G37*
G36*
X138563694Y-94319075D02*
X139483272Y-95238653D01*
X139271338Y-95450587D01*
X138351760Y-94531009D01*
X138563694Y-94319075D01*
X138563694Y-94319075D01*
G37*
G36*
X138209872Y-94672897D02*
X139129450Y-95592475D01*
X138917516Y-95804409D01*
X137997938Y-94884831D01*
X138209872Y-94672897D01*
X138209872Y-94672897D01*
G37*
G36*
X137856050Y-95026719D02*
X138775628Y-95946297D01*
X138563694Y-96158231D01*
X137644116Y-95238653D01*
X137856050Y-95026719D01*
X137856050Y-95026719D01*
G37*
G36*
X137502228Y-95380541D02*
X138421806Y-96300119D01*
X138209872Y-96512053D01*
X137290294Y-95592475D01*
X137502228Y-95380541D01*
X137502228Y-95380541D01*
G37*
G36*
X141038653Y-100116728D02*
X141250587Y-100328662D01*
X140331009Y-101248240D01*
X140119075Y-101036306D01*
X141038653Y-100116728D01*
X141038653Y-100116728D01*
G37*
G36*
X141392475Y-100470550D02*
X141604409Y-100682484D01*
X140684831Y-101602062D01*
X140472897Y-101390128D01*
X141392475Y-100470550D01*
X141392475Y-100470550D01*
G37*
G36*
X141746297Y-100824372D02*
X141958231Y-101036306D01*
X141038653Y-101955884D01*
X140826719Y-101743950D01*
X141746297Y-100824372D01*
X141746297Y-100824372D01*
G37*
G36*
X142100119Y-101178194D02*
X142312053Y-101390128D01*
X141392475Y-102309706D01*
X141180541Y-102097772D01*
X142100119Y-101178194D01*
X142100119Y-101178194D01*
G37*
G36*
X146128662Y-98349413D02*
X147048240Y-99268991D01*
X146836306Y-99480925D01*
X145916728Y-98561347D01*
X146128662Y-98349413D01*
X146128662Y-98349413D01*
G37*
G36*
X146482484Y-97995591D02*
X147402062Y-98915169D01*
X147190128Y-99127103D01*
X146270550Y-98207525D01*
X146482484Y-97995591D01*
X146482484Y-97995591D01*
G37*
G36*
X146836306Y-97641769D02*
X147755884Y-98561347D01*
X147543950Y-98773281D01*
X146624372Y-97853703D01*
X146836306Y-97641769D01*
X146836306Y-97641769D01*
G37*
G36*
X147190128Y-97287947D02*
X148109706Y-98207525D01*
X147897772Y-98419459D01*
X146978194Y-97499881D01*
X147190128Y-97287947D01*
X147190128Y-97287947D01*
G37*
G36*
X145068991Y-92551760D02*
X145280925Y-92763694D01*
X144361347Y-93683272D01*
X144149413Y-93471338D01*
X145068991Y-92551760D01*
X145068991Y-92551760D01*
G37*
G36*
X144715169Y-92197938D02*
X144927103Y-92409872D01*
X144007525Y-93329450D01*
X143795591Y-93117516D01*
X144715169Y-92197938D01*
X144715169Y-92197938D01*
G37*
G36*
X144361347Y-91844116D02*
X144573281Y-92056050D01*
X143653703Y-92975628D01*
X143441769Y-92763694D01*
X144361347Y-91844116D01*
X144361347Y-91844116D01*
G37*
G36*
X144007525Y-91490294D02*
X144219459Y-91702228D01*
X143299881Y-92621806D01*
X143087947Y-92409872D01*
X144007525Y-91490294D01*
X144007525Y-91490294D01*
G37*
D31*
X186300000Y-91414000D03*
D32*
X192650000Y-93700000D03*
D31*
X186300000Y-95986000D03*
D33*
X193000000Y-72500000D03*
X193000000Y-77500000D03*
M02*
